{"_v":2,"glyphs":{"0":{"ha":520,"x_min":47,"x_max":473,"o":"m 260 -12 l 260 -12 q 191 -12 144 27 q 96 65 72 147 q 47 228 47 357 l 47 357 q 47 482 70 564 q 93 645 141 685 q 188 725 260 725 l 260 725 q 330 725 378 684 q 425 642 449 561 q 473 479 473 357 l 473 357 q 473 266 460 197 q 447 128 421 82 q 395 35 355 12 q 314 -12 260 -12 z m 260 63 l 260 63 q 300 63 325 87 q 350 110 364 151 q 377 191 382 245 q 387 298 387 357 l 387 357 q 387 415 382 468 q 377 520 363 562 q 349 603 324 627 q 299 650 260 650 l 260 650 q 219 650 194 627 q 169 603 156 562 q 143 521 139 469 q 134 416 134 357 l 134 357 q 134 293 139 240 q 144 186 158 146 q 172 106 196 85 q 220 63 260 63 z"},"1":{"ha":520,"x_min":80,"x_max":333,"o":"m 333 714 l 333 0 l 248 0 l 248 492 q 248 530 250 562 q 251 594 252 619 l 252 619 q 245 612 235 602 q 225 592 212 579 l 212 579 l 126 505 l 80 561 l 261 714 l 333 714 z"},"2":{"ha":520,"x_min":43,"x_max":470,"o":"m 470 0 l 43 0 l 43 69 l 213 265 q 263 321 295 364 q 326 407 342 447 q 358 486 358 534 l 358 534 q 358 570 344 596 q 330 622 305 636 q 279 650 244 650 l 244 650 q 199 650 165 635 q 131 619 94 591 l 94 591 l 50 651 q 80 674 111 691 q 142 707 176 716 q 210 725 246 725 l 246 725 q 306 725 351 703 q 395 681 421 639 q 446 597 446 538 l 446 538 q 446 482 426 433 q 406 384 370 336 q 334 288 287 236 l 287 236 l 149 82 l 149 78 l 470 78 l 470 0 z"},"3":{"ha":520,"x_min":41,"x_max":465,"o":"m 220 -12 l 220 -12 q 165 -12 121 -3 q 76 5 41 21 l 41 21 l 41 102 q 82 83 127 73 q 171 62 217 62 l 217 62 q 296 62 336 99 q 375 135 375 203 l 375 203 q 375 245 355 274 q 335 302 295 317 q 255 331 195 331 l 195 331 l 138 331 l 138 406 l 197 406 q 248 406 285 423 q 321 439 340 470 q 359 500 359 541 l 359 541 q 359 593 328 622 q 297 651 241 651 l 241 651 q 196 651 161 638 q 125 625 85 598 l 85 598 l 42 658 q 88 691 138 708 q 187 725 244 725 l 244 725 q 302 725 348 706 q 393 686 420 647 q 447 607 447 548 l 447 548 q 447 504 431 470 q 415 435 385 411 q 354 387 310 376 l 310 376 l 310 372 q 385 361 425 316 q 465 271 465 200 l 465 200 q 465 128 433 81 q 401 34 346 11 q 290 -12 220 -12 z"},"4":{"ha":520,"x_min":20,"x_max":502,"o":"m 409 0 l 326 0 l 326 159 l 20 159 l 20 232 l 319 719 l 409 719 l 409 236 l 502 236 l 502 159 l 409 159 l 409 0 z m 286 538 l 101 236 l 326 236 l 326 478 q 326 496 327 520 q 327 543 328 569 q 329 594 330 619 l 330 619 l 326 619 q 318 599 309 579 q 299 558 286 538 l 286 538 z"},"5":{"ha":520,"x_min":58,"x_max":468,"o":"m 224 -12 l 224 -12 q 172 -12 130 -3 q 87 5 58 21 l 58 21 l 58 103 q 94 83 138 73 q 182 62 223 62 l 223 62 q 273 62 308 82 q 343 102 362 138 q 380 174 380 221 l 380 221 q 380 293 340 329 q 300 365 223 365 l 223 365 q 198 365 170 362 q 142 358 111 350 l 111 350 l 71 380 l 96 714 l 422 714 l 422 635 l 169 635 l 153 428 q 180 434 205 436 q 229 438 249 438 l 249 438 q 314 438 364 414 q 413 389 441 342 q 468 295 468 228 l 468 228 q 468 152 438 98 q 408 44 354 16 q 299 -12 224 -12 z"},"6":{"ha":520,"x_min":51,"x_max":475,"o":"m 270 -12 l 270 -12 q 214 -12 173 12 q 131 35 105 78 q 78 121 65 179 q 51 237 51 304 l 51 304 q 51 387 63 454 q 74 520 97 571 q 120 622 155 656 q 190 690 237 708 q 284 725 344 725 l 344 725 q 368 725 389 723 q 410 721 427 716 l 427 716 l 427 641 q 410 646 390 649 q 370 652 346 652 l 346 652 q 280 652 235 621 q 189 590 165 527 q 140 464 137 366 l 137 366 l 142 366 q 157 393 180 412 q 202 430 230 440 q 257 449 290 449 l 290 449 q 350 449 391 421 q 432 392 454 342 q 475 292 475 228 l 475 228 q 475 158 452 104 q 428 50 382 19 q 336 -12 270 -12 z m 269 62 l 269 62 q 327 62 359 105 q 390 147 390 227 l 390 227 q 390 300 360 339 q 330 378 271 378 l 271 378 q 231 378 202 360 q 172 341 156 312 q 139 283 139 250 l 139 250 q 139 216 148 183 q 156 150 172 123 q 188 95 213 79 q 237 62 269 62 z"},"7":{"ha":520,"x_min":39,"x_max":475,"o":"m 214 0 l 121 0 l 386 635 l 39 635 l 39 714 l 475 714 l 475 648 l 214 0 z"},"8":{"ha":520,"x_min":44,"x_max":476,"o":"m 263 -12 l 263 -12 q 199 -12 150 9 q 100 30 72 73 q 44 115 44 179 l 44 179 q 44 221 59 256 q 74 291 105 321 q 135 350 181 373 l 181 373 q 141 398 115 426 q 89 454 77 487 q 65 519 65 555 l 65 555 q 65 612 92 650 q 118 687 163 706 q 207 725 260 725 l 260 725 q 315 725 360 706 q 404 687 430 650 q 456 612 456 555 l 456 555 q 456 518 443 486 q 429 454 401 427 q 373 400 329 376 l 329 376 q 371 353 404 326 q 437 299 457 265 q 476 230 476 183 l 476 183 q 476 120 448 77 q 419 33 372 11 q 324 -12 263 -12 z m 261 59 l 261 59 q 318 59 355 91 q 391 122 391 182 l 391 182 q 391 211 379 236 q 366 261 339 284 q 311 306 267 326 l 267 326 l 248 336 q 206 315 180 292 q 153 268 141 241 q 129 213 129 178 l 129 178 q 129 125 163 92 q 197 59 261 59 z m 262 412 l 262 412 q 301 431 325 452 q 349 473 360 498 q 371 522 371 552 l 371 552 q 371 605 339 630 q 307 654 259 654 l 259 654 q 209 654 179 627 q 149 599 149 551 l 149 551 q 149 516 163 492 q 177 467 203 449 q 228 431 262 412 z"},"9":{"ha":520,"x_min":45,"x_max":469,"o":"m 175 -12 l 175 -12 q 157 -12 131 -9 q 105 -6 89 -2 l 89 -2 l 89 73 q 108 67 129 64 q 149 61 173 61 l 173 61 q 225 61 264 81 q 303 100 328 137 q 353 174 367 227 q 380 279 383 347 l 383 347 l 378 347 q 362 321 340 303 q 318 284 291 275 q 263 265 229 265 l 229 265 q 169 265 128 294 q 87 322 66 372 q 45 421 45 485 l 45 485 q 45 555 69 609 q 92 663 139 694 q 186 725 252 725 l 252 725 q 307 725 348 702 q 389 678 416 636 q 443 593 456 537 q 469 481 469 416 l 469 416 q 469 332 458 264 q 446 195 423 144 q 399 92 364 58 q 329 23 282 6 q 234 -12 175 -12 z m 249 337 l 249 337 q 288 337 318 356 q 348 374 365 404 q 381 433 381 467 l 381 467 q 381 498 374 531 q 366 563 350 590 q 333 617 309 634 q 285 651 252 651 l 252 651 q 194 651 163 609 q 131 566 131 486 l 131 486 q 131 413 161 375 q 191 337 249 337 z"},"\r":{"ha":277,"x_min":0,"x_max":0,"o":""}," ":{"ha":277,"x_min":0,"x_max":0,"o":""},"ഀ":{"ha":0,"x_min":-418,"x_max":-137,"o":"m -418 721 l -418 721 q -418 784 -380 824 q -342 864 -278 864 l -278 864 q -214 864 -175 825 q -137 785 -137 721 l -137 721 q -137 657 -175 618 q -214 578 -278 578 l -278 578 q -343 578 -380 618 q -418 658 -418 721 z m -348 722 l -348 722 q -348 690 -331 666 q -314 642 -278 642 l -278 642 q -242 642 -224 666 q -207 690 -207 722 l -207 722 q -207 754 -224 777 q -242 800 -278 800 l -278 800 q -313 800 -330 777 q -348 754 -348 722 z"},"ഁ":{"ha":0,"x_min":-440,"x_max":-116,"o":"m -278 653 l -278 653 q -355 653 -397 693 q -440 733 -440 808 l -440 808 q -440 822 -438 836 q -436 850 -432 862 l -432 862 l -366 850 q -369 840 -370 829 q -371 818 -371 809 l -371 809 q -371 774 -358 754 q -346 734 -324 726 q -303 717 -278 717 l -278 717 q -253 717 -232 726 q -211 735 -198 756 q -185 776 -185 811 l -185 811 q -185 819 -186 830 q -187 840 -190 851 l -190 851 l -123 862 q -120 850 -118 836 q -116 821 -116 808 l -116 808 q -116 734 -159 694 q -203 653 -278 653 z m -279 759 l -279 759 q -300 759 -313 773 q -326 787 -326 810 l -326 810 q -326 831 -313 845 q -300 859 -279 859 l -279 859 q -258 859 -244 845 q -231 831 -231 810 l -231 810 q -231 787 -244 773 q -258 759 -279 759 z"},"ം":{"ha":420,"x_min":32,"x_max":388,"o":"m 210 -12 l 210 -12 q 155 -12 115 12 q 75 35 54 78 q 32 120 32 176 l 32 176 q 32 234 55 276 q 77 317 117 340 q 157 363 210 363 l 210 363 q 262 363 302 341 q 342 318 365 277 q 388 235 388 176 l 388 176 q 388 118 365 76 q 342 34 302 11 q 262 -12 210 -12 z m 210 296 l 210 296 q 168 296 141 268 q 113 239 113 175 l 113 175 q 113 112 141 84 q 169 55 210 55 l 210 55 q 251 55 279 84 q 307 113 307 176 l 307 176 q 307 239 280 268 q 252 296 210 296 z"},"ഃ":{"ha":315,"x_min":32,"x_max":283,"o":"m 32 436 l 32 436 q 32 494 67 530 q 101 566 157 566 l 157 566 q 214 566 249 531 q 283 495 283 436 l 283 436 q 283 378 249 342 q 214 306 157 306 l 157 306 q 100 306 66 342 q 32 378 32 436 z m 100 437 l 100 437 q 100 408 115 389 q 129 370 157 370 l 157 370 q 186 370 201 389 q 215 408 215 437 l 215 437 q 215 466 200 484 q 185 502 157 502 l 157 502 q 130 502 115 484 q 100 466 100 437 z m 32 118 l 32 118 q 32 176 67 212 q 101 248 157 248 l 157 248 q 214 248 249 213 q 283 177 283 118 l 283 118 q 283 60 249 24 q 214 -12 157 -12 l 157 -12 q 100 -12 66 24 q 32 60 32 118 z m 100 119 l 100 119 q 100 89 115 70 q 129 51 157 51 l 157 51 q 186 51 201 70 q 215 89 215 119 l 215 119 q 215 147 200 166 q 185 184 157 184 l 157 184 q 130 184 115 166 q 100 147 100 119 z"},"ഄ":{"ha":546,"x_min":35,"x_max":511,"o":"m 49 318 l 49 318 l 129 303 q 123 282 121 260 q 118 237 118 213 l 118 213 q 118 147 152 105 q 186 63 272 63 l 272 63 q 359 63 394 105 q 428 147 428 213 l 428 213 q 428 237 426 260 q 423 282 417 303 l 417 303 l 497 318 q 502 299 507 271 q 511 243 511 211 l 511 211 q 511 148 488 99 q 464 49 412 20 q 359 -9 272 -9 l 272 -9 q 187 -9 135 20 q 82 49 59 99 q 35 148 35 211 l 35 211 q 35 243 40 271 q 44 299 49 318 z m 236 171 l 236 403 l 312 403 l 312 171 l 236 171 z"},"അ":{"ha":1362,"x_min":38,"x_max":1324,"o":"m 342 566 l 342 566 q 380 566 422 559 q 464 551 502 534 l 502 534 q 507 532 513 527 q 518 521 524 519 l 524 519 q 570 505 597 482 q 624 459 636 431 q 648 402 648 369 l 648 369 q 648 343 640 322 q 632 300 613 283 q 594 265 562 252 l 562 252 l 563 257 q 607 244 633 213 q 658 181 658 135 l 658 135 q 658 96 641 62 q 623 28 586 8 q 548 -12 486 -12 l 486 -12 q 416 -12 370 20 q 324 51 302 107 q 279 163 279 235 l 279 235 q 279 291 295 342 q 310 393 342 437 q 373 480 423 512 l 423 512 q 428 515 433 519 q 438 523 443 527 l 443 527 q 476 545 517 556 q 558 566 609 566 l 609 566 q 671 566 713 550 q 754 534 783 507 q 811 480 832 446 l 832 446 l 854 250 l 854 0 l 770 0 l 770 289 q 770 361 760 399 q 750 436 726 459 l 726 459 q 706 478 677 489 q 648 500 599 500 l 599 500 q 575 500 553 496 q 530 492 511 485 l 511 485 q 471 472 442 446 q 413 419 395 384 q 377 349 369 312 q 360 274 360 236 l 360 236 q 360 146 393 100 q 426 54 486 54 l 486 54 q 531 54 554 74 q 577 94 577 135 l 577 135 q 577 174 550 197 q 523 219 470 219 l 470 219 l 456 219 l 456 287 l 466 287 q 518 287 543 310 q 567 332 567 369 l 567 369 q 567 417 538 445 q 509 473 453 485 l 453 485 q 419 495 394 497 q 369 499 348 499 l 348 499 q 272 499 223 470 q 173 440 149 390 q 124 340 124 276 l 124 276 q 124 222 138 180 q 151 138 176 107 q 201 75 234 51 l 234 51 l 182 -9 q 143 18 111 58 q 78 98 58 154 q 38 210 38 281 l 38 281 q 38 341 56 393 q 74 444 112 483 q 150 522 207 544 q 264 566 342 566 z m 1130 -12 l 1130 -12 q 1071 -12 1032 17 q 993 45 974 93 q 954 140 954 197 l 954 197 q 954 294 1000 349 q 1046 403 1124 403 l 1124 403 q 1172 403 1207 380 q 1242 356 1265 317 q 1287 277 1295 228 l 1295 228 l 1270 224 q 1263 250 1246 276 q 1229 301 1203 318 q 1176 335 1141 335 l 1141 335 q 1086 335 1061 298 q 1036 260 1036 198 l 1036 198 q 1036 155 1046 123 q 1056 91 1077 74 q 1098 56 1131 56 l 1131 56 q 1167 56 1192 76 q 1217 95 1231 137 q 1244 179 1244 248 l 1244 248 q 1244 256 1243 271 q 1241 286 1239 302 l 1239 302 q 1238 309 1238 319 q 1237 328 1235 335 l 1235 335 q 1227 375 1203 412 q 1178 448 1134 472 q 1090 495 1024 495 l 1024 495 q 986 495 956 486 q 926 477 903 457 l 903 457 q 887 442 876 421 q 865 400 860 371 q 854 341 854 297 l 854 297 l 854 205 l 802 456 q 824 487 853 512 q 882 537 923 552 q 964 566 1023 566 l 1023 566 q 1098 566 1154 543 q 1210 519 1248 476 q 1286 432 1305 373 q 1324 314 1324 242 l 1324 242 q 1324 151 1299 95 q 1274 38 1230 13 q 1186 -12 1130 -12 z"},"ആ":{"ha":1497,"x_min":38,"x_max":1472,"o":"m 342 566 l 342 566 q 380 566 422 559 q 464 551 502 534 l 502 534 q 507 532 513 527 q 518 521 524 519 l 524 519 q 570 505 597 482 q 624 459 636 431 q 648 402 648 369 l 648 369 q 648 343 640 322 q 632 300 613 283 q 594 265 562 252 l 562 252 l 563 257 q 607 244 633 213 q 658 181 658 135 l 658 135 q 658 96 641 62 q 623 28 586 8 q 548 -12 486 -12 l 486 -12 q 416 -12 370 20 q 324 51 302 107 q 279 163 279 235 l 279 235 q 279 291 295 342 q 310 393 342 437 q 373 480 423 512 l 423 512 q 428 515 433 519 q 438 523 443 527 l 443 527 q 476 545 517 556 q 558 566 609 566 l 609 566 q 671 566 713 550 q 754 534 783 507 q 811 480 832 446 l 832 446 l 854 250 l 854 0 l 770 0 l 770 289 q 770 361 760 399 q 750 436 726 459 l 726 459 q 706 478 677 489 q 648 500 599 500 l 599 500 q 575 500 553 496 q 530 492 511 485 l 511 485 q 471 472 442 446 q 413 419 395 384 q 377 349 369 312 q 360 274 360 236 l 360 236 q 360 146 393 100 q 426 54 486 54 l 486 54 q 531 54 554 74 q 577 94 577 135 l 577 135 q 577 174 550 197 q 523 219 470 219 l 470 219 l 456 219 l 456 287 l 466 287 q 518 287 543 310 q 567 332 567 369 l 567 369 q 567 417 538 445 q 509 473 453 485 l 453 485 q 419 495 394 497 q 369 499 348 499 l 348 499 q 272 499 223 470 q 173 440 149 390 q 124 340 124 276 l 124 276 q 124 222 138 180 q 151 138 176 107 q 201 75 234 51 l 234 51 l 182 -9 q 143 18 111 58 q 78 98 58 154 q 38 210 38 281 l 38 281 q 38 341 56 393 q 74 444 112 483 q 150 522 207 544 q 264 566 342 566 z m 1014 566 l 1014 566 q 1096 566 1154 536 q 1212 506 1248 453 q 1283 400 1296 329 l 1296 329 q 1301 305 1303 279 q 1305 253 1305 225 l 1305 225 q 1305 141 1282 89 q 1258 36 1216 12 q 1173 -12 1113 -12 l 1113 -12 q 1054 -12 1016 14 q 977 40 959 82 q 941 123 941 170 l 941 170 q 941 270 1007 326 q 1072 381 1186 381 l 1186 381 q 1195 381 1206 381 q 1216 380 1227 378 l 1227 378 l 1251 377 q 1320 365 1369 326 q 1418 286 1445 226 q 1472 165 1472 90 l 1472 90 q 1472 23 1454 -31 q 1435 -85 1399 -123 q 1362 -161 1308 -181 q 1253 -201 1182 -201 l 1182 -201 q 1138 -201 1102 -193 q 1065 -186 1037 -176 l 1037 -176 l 1063 -109 q 1088 -119 1119 -124 q 1149 -129 1184 -129 l 1184 -129 q 1241 -129 1281 -112 q 1320 -95 1344 -65 q 1368 -35 1379 6 q 1389 46 1389 93 l 1389 93 q 1389 145 1377 184 q 1365 223 1342 251 q 1318 279 1283 297 l 1283 297 l 1250 303 q 1234 309 1217 312 q 1200 314 1186 314 l 1186 314 q 1136 314 1100 299 q 1064 283 1045 252 q 1025 221 1025 171 l 1025 171 q 1025 141 1034 115 q 1042 89 1063 73 q 1083 57 1116 57 l 1116 57 q 1169 57 1197 98 q 1225 138 1225 229 l 1225 229 q 1225 255 1222 283 q 1219 310 1213 336 l 1213 336 l 1209 359 q 1197 397 1173 428 q 1149 459 1111 477 q 1072 495 1016 495 l 1016 495 q 984 495 955 486 q 925 477 902 457 l 902 457 q 886 442 876 421 q 865 400 860 370 q 854 340 854 296 l 854 296 l 854 205 l 799 453 q 823 487 853 513 q 883 538 924 552 q 964 566 1014 566 z"},"ഇ":{"ha":896,"x_min":38,"x_max":858,"o":"m 299 566 l 299 566 q 356 566 394 554 q 431 541 457 520 q 483 498 503 469 l 503 469 l 483 473 q 514 525 554 546 q 593 566 643 566 l 643 566 q 699 566 740 546 q 780 525 806 489 q 832 452 845 405 q 858 358 858 306 l 858 306 q 858 218 835 159 q 812 99 766 62 l 766 62 q 739 41 705 27 q 671 13 624 7 q 576 0 507 0 l 507 0 l 255 0 q 213 0 194 -3 q 174 -6 161 -13 l 161 -13 q 145 -20 138 -33 q 130 -46 130 -63 l 130 -63 q 130 -78 136 -90 q 141 -103 154 -111 l 154 -111 q 167 -121 190 -125 q 213 -130 254 -130 l 254 -130 l 838 -130 l 838 -201 l 250 -201 q 199 -201 163 -193 q 127 -186 102 -170 l 102 -170 q 75 -154 61 -128 q 46 -102 46 -68 l 46 -68 q 46 -33 59 -6 q 72 21 99 39 l 99 39 q 113 49 131 56 q 149 62 174 66 q 199 69 234 69 l 234 69 l 495 69 q 566 69 609 76 q 651 83 677 97 q 702 110 721 129 l 721 129 q 752 161 762 206 q 772 251 772 304 l 772 304 q 772 352 759 396 q 745 439 716 468 q 687 496 641 496 l 641 496 q 615 496 596 488 q 577 480 564 464 l 564 464 q 547 443 540 410 q 533 377 533 314 l 533 314 l 533 126 l 449 126 l 449 319 q 449 378 439 410 q 429 441 409 461 l 409 461 q 391 479 366 488 q 340 497 299 497 l 299 497 q 260 497 231 488 q 201 478 179 461 q 156 443 141 420 q 125 396 115 368 l 115 368 q 114 363 116 359 q 118 355 117 351 l 117 351 q 115 341 114 331 q 112 320 112 308 l 112 308 q 112 246 132 214 q 151 182 193 182 l 193 182 q 231 182 248 208 q 265 233 265 269 l 265 269 q 265 292 258 311 q 251 329 236 340 q 220 351 194 351 l 194 351 q 154 351 129 328 q 103 305 85 281 l 85 281 l 61 333 q 76 353 98 372 q 119 391 148 404 q 176 416 209 416 l 209 416 q 257 416 288 396 q 318 375 332 342 q 346 309 346 269 l 346 269 q 346 227 330 192 q 313 157 280 136 q 246 115 193 115 l 193 115 q 147 115 112 138 q 77 160 58 204 q 38 248 38 314 l 38 314 q 38 386 70 443 q 101 500 160 533 q 218 566 299 566 z"},"ഈ":{"ha":1591,"x_min":38,"x_max":1553,"o":"m 299 566 l 299 566 q 356 566 394 554 q 431 541 457 520 q 483 498 503 469 l 503 469 l 483 473 q 514 525 554 546 q 593 566 643 566 l 643 566 q 699 566 740 546 q 780 525 806 489 q 832 452 845 405 q 858 358 858 306 l 858 306 q 858 218 835 159 q 812 99 766 62 l 766 62 q 739 41 705 27 q 671 13 624 7 q 576 0 507 0 l 507 0 l 255 0 q 213 0 194 -3 q 174 -6 161 -13 l 161 -13 q 145 -20 138 -33 q 130 -46 130 -63 l 130 -63 q 130 -78 136 -90 q 141 -103 154 -111 l 154 -111 q 167 -121 190 -125 q 213 -130 254 -130 l 254 -130 l 838 -130 l 838 -201 l 250 -201 q 199 -201 163 -193 q 127 -186 102 -170 l 102 -170 q 75 -154 61 -128 q 46 -102 46 -68 l 46 -68 q 46 -33 59 -6 q 72 21 99 39 l 99 39 q 113 49 131 56 q 149 62 174 66 q 199 69 234 69 l 234 69 l 495 69 q 566 69 609 76 q 651 83 677 97 q 702 110 721 129 l 721 129 q 752 161 762 206 q 772 251 772 304 l 772 304 q 772 352 759 396 q 745 439 716 468 q 687 496 641 496 l 641 496 q 615 496 596 488 q 577 480 564 464 l 564 464 q 547 443 540 410 q 533 377 533 314 l 533 314 l 533 126 l 449 126 l 449 319 q 449 378 439 410 q 429 441 409 461 l 409 461 q 391 479 366 488 q 340 497 299 497 l 299 497 q 260 497 231 488 q 201 478 179 461 q 156 443 141 420 q 125 396 115 368 l 115 368 q 114 363 116 359 q 118 355 117 351 l 117 351 q 115 341 114 331 q 112 320 112 308 l 112 308 q 112 246 132 214 q 151 182 193 182 l 193 182 q 231 182 248 208 q 265 233 265 269 l 265 269 q 265 292 258 311 q 251 329 236 340 q 220 351 194 351 l 194 351 q 154 351 129 328 q 103 305 85 281 l 85 281 l 61 333 q 76 353 98 372 q 119 391 148 404 q 176 416 209 416 l 209 416 q 257 416 288 396 q 318 375 332 342 q 346 309 346 269 l 346 269 q 346 227 330 192 q 313 157 280 136 q 246 115 193 115 l 193 115 q 147 115 112 138 q 77 160 58 204 q 38 248 38 314 l 38 314 q 38 386 70 443 q 101 500 160 533 q 218 566 299 566 z m 1366 566 l 1366 566 q 1425 566 1467 535 q 1508 504 1531 446 q 1553 387 1553 305 l 1553 305 q 1553 200 1523 129 q 1493 58 1436 23 q 1378 -12 1295 -12 l 1295 -12 q 1236 -12 1188 0 q 1140 11 1093 36 l 1093 36 l 1134 102 q 1168 83 1205 72 q 1241 60 1290 60 l 1290 60 q 1357 60 1396 90 q 1435 120 1451 175 q 1467 230 1467 305 l 1467 305 q 1467 403 1439 449 q 1410 495 1362 495 l 1362 495 q 1337 495 1321 487 q 1304 478 1294 462 l 1294 462 q 1283 445 1280 420 q 1276 395 1276 345 l 1276 345 l 1276 259 l 1193 259 l 1193 341 q 1193 385 1189 414 q 1185 443 1174 459 l 1174 459 q 1163 478 1146 487 q 1129 495 1107 495 l 1107 495 q 1061 495 1038 463 q 1015 430 1015 380 l 1015 380 q 1015 346 1019 320 q 1023 294 1029 272 l 1029 272 l 951 255 q 942 284 937 319 q 931 353 931 385 l 931 385 q 931 434 950 475 q 968 516 1007 541 q 1045 566 1103 566 l 1103 566 q 1152 566 1185 545 q 1217 524 1238 484 l 1238 484 l 1226 485 q 1252 529 1286 548 q 1320 566 1366 566 z"},"ഉ":{"ha":632,"x_min":38,"x_max":594,"o":"m 316 566 l 316 566 q 394 566 447 542 q 500 518 533 479 q 565 439 580 390 q 594 341 594 291 l 594 291 q 594 215 575 160 q 556 104 516 69 l 516 69 q 486 43 449 28 q 412 13 364 7 q 316 0 253 0 l 253 0 l 246 0 q 212 0 193 -2 q 174 -5 161 -12 l 161 -12 q 145 -19 138 -32 q 130 -46 130 -63 l 130 -63 q 130 -78 136 -90 q 141 -103 154 -111 l 154 -111 q 167 -121 190 -125 q 213 -130 254 -130 l 254 -130 l 577 -130 l 577 -201 l 250 -201 q 199 -201 163 -193 q 127 -186 102 -170 l 102 -170 q 75 -154 61 -128 q 46 -102 46 -68 l 46 -68 q 46 -33 59 -5 q 72 22 99 39 l 99 39 q 120 53 151 61 q 182 69 229 69 l 229 69 l 237 69 q 304 69 347 75 q 390 81 418 95 q 445 108 463 129 l 463 129 q 490 157 500 198 q 509 239 509 290 l 509 290 q 509 328 499 365 q 488 402 465 432 q 441 462 403 480 q 365 497 309 497 l 309 497 q 267 497 235 488 q 203 478 180 461 q 156 443 141 419 q 125 395 115 368 l 115 368 q 114 363 116 359 q 118 355 117 351 l 117 351 q 115 341 114 331 q 112 320 112 308 l 112 308 q 112 246 132 214 q 151 182 193 182 l 193 182 q 231 182 248 208 q 265 233 265 269 l 265 269 q 265 292 258 311 q 251 329 236 340 q 220 351 194 351 l 194 351 q 154 351 129 328 q 103 305 85 281 l 85 281 l 61 333 q 76 353 98 372 q 119 391 148 404 q 176 416 209 416 l 209 416 q 257 416 288 396 q 318 375 332 342 q 346 309 346 269 l 346 269 q 346 227 330 192 q 313 157 280 136 q 246 115 193 115 l 193 115 q 147 115 112 138 q 77 160 58 204 q 38 248 38 314 l 38 314 q 38 368 56 414 q 74 460 110 494 q 146 528 198 547 q 249 566 316 566 z"},"ഊ":{"ha":1327,"x_min":38,"x_max":1288,"o":"m 316 566 l 316 566 q 394 566 447 542 q 500 518 533 479 q 565 439 580 390 q 594 341 594 291 l 594 291 q 594 215 575 160 q 556 104 516 69 l 516 69 q 486 43 449 28 q 412 13 364 7 q 316 0 253 0 l 253 0 l 246 0 q 212 0 193 -2 q 174 -5 161 -12 l 161 -12 q 145 -19 138 -32 q 130 -46 130 -63 l 130 -63 q 130 -78 136 -90 q 141 -103 154 -111 l 154 -111 q 167 -121 190 -125 q 213 -130 254 -130 l 254 -130 l 577 -130 l 577 -201 l 250 -201 q 199 -201 163 -193 q 127 -186 102 -170 l 102 -170 q 75 -154 61 -128 q 46 -102 46 -68 l 46 -68 q 46 -33 59 -5 q 72 22 99 39 l 99 39 q 120 53 151 61 q 182 69 229 69 l 229 69 l 237 69 q 304 69 347 75 q 390 81 418 95 q 445 108 463 129 l 463 129 q 490 157 500 198 q 509 239 509 290 l 509 290 q 509 328 499 365 q 488 402 465 432 q 441 462 403 480 q 365 497 309 497 l 309 497 q 267 497 235 488 q 203 478 180 461 q 156 443 141 419 q 125 395 115 368 l 115 368 q 114 363 116 359 q 118 355 117 351 l 117 351 q 115 341 114 331 q 112 320 112 308 l 112 308 q 112 246 132 214 q 151 182 193 182 l 193 182 q 231 182 248 208 q 265 233 265 269 l 265 269 q 265 292 258 311 q 251 329 236 340 q 220 351 194 351 l 194 351 q 154 351 129 328 q 103 305 85 281 l 85 281 l 61 333 q 76 353 98 372 q 119 391 148 404 q 176 416 209 416 l 209 416 q 257 416 288 396 q 318 375 332 342 q 346 309 346 269 l 346 269 q 346 227 330 192 q 313 157 280 136 q 246 115 193 115 l 193 115 q 147 115 112 138 q 77 160 58 204 q 38 248 38 314 l 38 314 q 38 368 56 414 q 74 460 110 494 q 146 528 198 547 q 249 566 316 566 z m 1101 566 l 1101 566 q 1160 566 1202 535 q 1243 504 1266 446 q 1288 387 1288 305 l 1288 305 q 1288 200 1258 129 q 1228 58 1171 23 q 1113 -12 1030 -12 l 1030 -12 q 971 -12 923 0 q 875 11 828 36 l 828 36 l 869 102 q 903 83 940 72 q 976 60 1025 60 l 1025 60 q 1092 60 1131 90 q 1170 120 1186 175 q 1202 230 1202 305 l 1202 305 q 1202 403 1174 449 q 1145 495 1097 495 l 1097 495 q 1072 495 1056 487 q 1039 478 1029 462 l 1029 462 q 1018 445 1015 420 q 1011 395 1011 345 l 1011 345 l 1011 259 l 928 259 l 928 341 q 928 385 924 414 q 920 443 909 459 l 909 459 q 898 478 881 487 q 864 495 842 495 l 842 495 q 796 495 773 463 q 750 430 750 380 l 750 380 q 750 346 754 320 q 758 294 764 272 l 764 272 l 686 255 q 677 284 672 319 q 666 353 666 385 l 666 385 q 666 434 685 475 q 703 516 742 541 q 780 566 838 566 l 838 566 q 887 566 920 545 q 952 524 973 484 l 973 484 l 961 485 q 987 529 1021 548 q 1055 566 1101 566 z"},"ഋ":{"ha":801,"x_min":36,"x_max":765,"o":"m 601 566 l 601 566 q 676 566 721 512 q 765 457 765 363 l 765 363 q 765 296 745 247 q 724 197 683 160 l 683 160 q 644 124 584 108 q 524 92 426 92 l 426 92 l 373 92 q 310 92 265 98 q 220 103 189 116 q 157 129 132 149 l 132 149 q 85 185 61 239 q 36 292 36 359 l 36 359 q 36 421 57 468 q 78 514 118 540 q 157 566 212 566 l 212 566 q 264 566 298 544 q 332 521 348 485 q 364 449 364 406 l 364 406 q 364 361 348 327 q 332 292 300 272 q 268 252 218 252 l 218 252 q 180 252 152 264 q 123 275 102 294 q 80 312 62 332 l 62 332 l 85 389 q 100 371 116 355 q 131 339 152 329 q 173 319 204 319 l 204 319 q 248 319 267 344 q 285 369 285 408 l 285 408 q 285 446 267 472 q 248 497 208 497 l 208 497 q 176 497 155 481 q 133 465 123 435 q 112 404 112 363 l 112 363 q 112 350 113 337 q 114 324 117 311 l 117 311 l 114 295 q 127 255 150 228 q 172 201 205 185 q 238 169 282 162 q 326 155 384 155 l 384 155 l 412 155 q 474 155 520 163 q 566 170 599 186 q 631 202 653 229 q 674 256 687 296 l 687 296 l 683 312 q 686 324 688 337 q 689 349 689 357 l 689 357 q 689 405 679 436 q 668 467 648 482 q 628 497 598 497 l 598 497 q 556 497 536 471 q 516 445 516 405 l 516 405 q 516 368 535 344 q 553 319 596 319 l 596 319 q 626 319 647 329 q 668 338 684 353 q 700 368 715 384 l 715 384 l 738 330 q 721 311 700 293 q 678 275 650 264 q 621 252 582 252 l 582 252 q 532 252 500 273 q 467 293 452 328 q 437 363 437 406 l 437 406 q 437 449 454 486 q 471 522 508 544 q 544 566 601 566 z m 403 -213 l 403 -213 q 292 -213 217 -194 q 142 -175 105 -134 q 67 -93 67 -28 l 67 -28 q 67 16 90 47 q 113 77 152 97 q 190 116 240 125 q 289 134 342 134 l 342 134 l 455 134 q 510 134 560 125 q 610 116 649 97 q 688 77 711 46 q 734 14 734 -30 l 734 -30 q 734 -89 700 -130 q 665 -171 592 -192 q 519 -213 403 -213 z m 402 -142 l 402 -142 q 491 -142 545 -129 q 599 -117 624 -91 q 649 -66 649 -28 l 649 -28 q 649 6 630 28 q 611 50 578 63 q 545 75 501 80 q 457 85 405 85 l 405 85 l 392 85 q 324 85 270 75 q 216 65 184 41 q 152 16 152 -28 l 152 -28 q 152 -67 177 -92 q 201 -118 257 -130 q 312 -142 402 -142 z"},"ഌ":{"ha":1066,"x_min":41,"x_max":1028,"o":"m 328 566 l 328 566 q 404 566 450 540 q 496 514 532 465 l 532 465 l 547 402 l 558 242 l 558 0 l 475 0 l 475 313 q 475 370 466 404 q 457 438 435 459 l 435 459 q 417 477 393 486 q 368 495 328 495 l 328 495 q 264 495 217 463 q 170 430 145 373 q 119 316 119 243 l 119 243 l 119 226 q 119 168 132 131 q 145 93 168 75 q 191 57 222 57 l 222 57 q 244 57 261 68 q 277 79 287 101 q 296 123 296 157 l 296 157 q 296 209 274 234 q 251 259 212 259 l 212 259 q 178 259 149 241 q 119 223 92 193 l 92 193 l 75 251 q 101 284 142 306 q 183 327 229 327 l 229 327 q 274 327 307 309 q 340 290 359 254 q 377 217 377 163 l 377 163 q 377 107 358 68 q 339 28 305 8 q 270 -12 221 -12 l 221 -12 q 173 -12 132 14 q 90 39 66 95 q 41 151 41 241 l 41 241 q 41 349 79 421 q 117 493 183 530 q 248 566 328 566 z m 834 -12 l 834 -12 q 775 -12 736 17 q 697 45 678 93 q 658 140 658 197 l 658 197 q 658 294 704 349 q 750 403 828 403 l 828 403 q 876 403 911 380 q 946 356 969 317 q 991 277 999 228 l 999 228 l 974 224 q 967 250 950 276 q 933 301 907 318 q 880 335 845 335 l 845 335 q 790 335 765 298 q 740 260 740 198 l 740 198 q 740 155 750 123 q 760 91 781 74 q 802 56 835 56 l 835 56 q 871 56 896 76 q 921 95 934 137 q 947 179 947 248 l 947 248 q 947 256 946 271 q 944 286 942 302 l 942 302 q 941 309 941 319 q 941 328 939 335 l 939 335 q 931 375 906 412 q 881 448 838 472 q 794 495 728 495 l 728 495 q 690 495 660 486 q 629 477 607 457 l 607 457 q 591 442 580 421 q 569 400 564 371 q 558 341 558 297 l 558 297 l 558 205 l 506 456 q 528 487 557 512 q 586 537 627 552 q 668 566 726 566 l 726 566 q 801 566 858 543 q 914 519 952 476 q 990 432 1009 373 q 1028 314 1028 242 l 1028 242 q 1028 151 1003 95 q 977 38 934 13 q 890 -12 834 -12 z"},"എ":{"ha":1159,"x_min":32,"x_max":1117,"o":"m 212 346 l 212 346 q 274 346 314 321 q 354 296 374 257 q 393 218 393 175 l 393 175 q 393 133 380 102 q 367 71 351 57 l 351 57 l 330 69 l 786 69 l 785 0 l 301 0 l 271 52 q 289 73 301 99 q 312 124 312 162 l 312 162 q 312 215 287 246 q 261 277 213 277 l 213 277 q 182 277 160 263 q 137 249 125 224 q 113 199 113 168 l 113 168 q 113 130 127 101 q 141 72 168 46 l 168 46 l 119 -7 q 81 25 57 69 q 32 112 32 169 l 32 169 q 32 222 55 262 q 77 301 118 324 q 158 346 212 346 z m 821 566 l 821 566 q 891 566 946 542 q 1001 517 1039 469 q 1077 420 1097 348 q 1117 275 1117 179 l 1117 179 q 1117 111 1103 38 q 1088 -35 1058 -103 q 1027 -172 979 -228 l 979 -228 l 915 -181 q 955 -133 981 -76 q 1006 -20 1019 45 q 1031 110 1031 180 l 1031 180 q 1031 241 1021 298 q 1010 354 986 399 q 961 444 920 470 q 879 495 818 495 l 818 495 q 746 495 699 452 q 651 408 628 328 q 604 248 604 141 l 604 141 q 604 115 605 93 q 606 71 607 51 l 607 51 q 608 46 608 41 q 608 36 609 31 l 609 31 q 613 -39 630 -81 q 647 -123 671 -141 q 695 -160 720 -160 l 720 -160 q 745 -160 756 -144 l 756 -144 q 762 -136 765 -121 q 768 -107 768 -81 l 768 -81 l 768 406 l 852 406 l 852 -57 q 852 -104 845 -135 q 838 -166 822 -187 l 822 -187 q 807 -206 783 -217 q 759 -228 724 -228 l 724 -228 q 664 -228 617 -189 q 570 -150 545 -67 q 519 16 519 146 l 519 146 q 519 243 539 321 q 558 398 597 453 q 635 508 691 537 q 747 566 821 566 z"},"ഏ":{"ha":1162,"x_min":32,"x_max":1130,"o":"m 212 346 l 212 346 q 274 346 314 321 q 354 296 374 257 q 393 218 393 175 l 393 175 q 393 133 380 102 q 367 71 351 57 l 351 57 l 330 69 l 786 69 l 785 0 l 301 0 l 271 52 q 289 73 301 99 q 312 124 312 162 l 312 162 q 312 215 287 246 q 261 277 213 277 l 213 277 q 182 277 160 263 q 137 248 125 224 q 113 199 113 168 l 113 168 q 113 130 127 101 q 141 72 168 46 l 168 46 l 119 -7 q 81 25 57 69 q 32 112 32 169 l 32 169 q 32 222 55 262 q 77 301 118 324 q 158 346 212 346 z m 860 566 l 860 566 q 931 566 981 547 q 1031 527 1062 494 q 1093 460 1107 419 q 1121 378 1121 335 l 1121 335 q 1121 284 1105 247 q 1089 210 1063 184 q 1036 157 1003 140 l 1003 140 l 1005 146 q 1061 126 1096 82 q 1130 37 1130 -35 l 1130 -35 q 1130 -102 1107 -144 q 1083 -187 1043 -207 q 1002 -228 949 -228 l 949 -228 q 932 -228 911 -226 q 890 -224 877 -220 l 877 -220 l 894 -153 q 906 -156 919 -157 q 932 -158 942 -158 l 942 -158 q 975 -158 998 -144 q 1021 -131 1033 -103 q 1044 -76 1044 -34 l 1044 -34 q 1044 26 1012 65 q 979 104 911 104 l 911 104 l 911 173 q 950 182 978 201 q 1006 220 1021 253 q 1035 285 1035 333 l 1035 333 q 1035 376 1018 413 q 1000 450 961 473 q 922 495 858 495 l 858 495 q 767 495 711 450 q 654 404 629 324 q 604 244 604 141 l 604 141 q 604 116 605 93 q 606 70 607 51 l 607 51 q 607 46 608 41 q 608 36 609 31 l 609 31 q 613 -39 630 -81 q 647 -123 671 -141 q 695 -160 720 -160 l 720 -160 q 745 -160 756 -144 l 756 -144 q 762 -136 765 -121 q 768 -107 768 -81 l 768 -81 l 768 406 l 852 406 l 852 -57 q 852 -104 845 -135 q 838 -166 822 -187 l 822 -187 q 807 -206 783 -217 q 759 -228 724 -228 l 724 -228 q 664 -228 618 -189 q 571 -150 545 -67 q 519 16 519 146 l 519 146 q 519 241 540 319 q 561 396 604 452 q 647 507 711 537 q 775 566 860 566 z"},"ഐ":{"ha":1813,"x_min":37,"x_max":1771,"o":"m 217 -12 l 217 -12 q 169 -12 128 14 q 87 39 62 93 q 37 147 37 233 l 37 233 q 37 312 60 374 q 83 435 124 478 q 165 521 221 544 q 276 566 341 566 l 341 566 q 411 566 463 545 q 515 523 549 485 q 583 446 599 395 q 615 343 615 284 l 615 284 q 615 213 597 159 q 578 104 546 63 q 514 22 471 -9 l 471 -9 l 420 51 q 449 72 474 103 q 499 134 514 177 q 529 219 529 274 l 529 274 q 529 343 507 393 q 484 442 442 469 q 399 495 337 495 l 337 495 q 274 495 224 462 q 173 428 145 368 q 116 308 116 229 l 116 229 q 116 169 129 131 q 142 92 165 75 q 188 57 219 57 l 219 57 q 241 57 258 68 q 274 79 284 102 q 293 124 293 158 l 293 158 q 293 209 270 234 q 247 259 209 259 l 209 259 q 175 259 146 242 q 116 224 89 193 l 89 193 l 71 251 q 98 284 139 306 q 180 327 225 327 l 225 327 q 271 327 304 309 q 337 290 356 254 q 374 217 374 163 l 374 163 q 374 107 355 68 q 336 28 301 8 q 266 -12 217 -12 z m 866 346 l 866 346 q 928 346 968 321 q 1008 296 1028 257 q 1047 218 1047 175 l 1047 175 q 1047 133 1034 102 q 1021 71 1005 57 l 1005 57 l 984 69 l 1440 69 l 1439 0 l 955 0 l 925 52 q 943 73 955 99 q 966 124 966 162 l 966 162 q 966 215 941 246 q 915 277 867 277 l 867 277 q 836 277 814 263 q 791 249 779 224 q 767 199 767 168 l 767 168 q 767 130 781 101 q 795 72 822 46 l 822 46 l 773 -7 q 735 25 711 69 q 686 112 686 169 l 686 169 q 686 222 709 262 q 731 301 772 324 q 812 346 866 346 z m 1475 566 l 1475 566 q 1545 566 1600 542 q 1655 517 1693 469 q 1731 420 1751 348 q 1771 275 1771 179 l 1771 179 q 1771 111 1757 38 q 1742 -35 1712 -103 q 1681 -172 1633 -228 l 1633 -228 l 1569 -181 q 1609 -133 1635 -76 q 1660 -20 1673 45 q 1685 110 1685 180 l 1685 180 q 1685 241 1675 298 q 1664 354 1640 399 q 1615 444 1574 470 q 1533 495 1472 495 l 1472 495 q 1400 495 1353 452 q 1305 408 1282 328 q 1258 248 1258 141 l 1258 141 q 1258 115 1259 93 q 1260 71 1261 51 l 1261 51 q 1262 46 1262 41 q 1262 36 1263 31 l 1263 31 q 1267 -39 1284 -81 q 1301 -123 1325 -141 q 1349 -160 1374 -160 l 1374 -160 q 1399 -160 1410 -144 l 1410 -144 q 1416 -136 1419 -121 q 1422 -107 1422 -81 l 1422 -81 l 1422 406 l 1506 406 l 1506 -57 q 1506 -104 1499 -135 q 1492 -166 1476 -187 l 1476 -187 q 1461 -206 1437 -217 q 1413 -228 1378 -228 l 1378 -228 q 1318 -228 1271 -189 q 1224 -150 1199 -67 q 1173 16 1173 146 l 1173 146 q 1173 243 1193 321 q 1212 398 1251 453 q 1289 508 1345 537 q 1401 566 1475 566 z"},"ഒ":{"ha":696,"x_min":38,"x_max":659,"o":"m 413 566 l 413 566 q 500 566 552 545 q 603 523 627 486 q 650 449 650 404 l 650 404 q 650 376 640 352 q 630 327 609 308 q 587 288 551 274 l 551 274 l 548 280 q 601 265 630 228 q 659 190 659 140 l 659 140 q 659 69 615 29 q 571 -11 494 -11 l 494 -11 q 468 -11 445 -7 q 421 -4 404 0 l 404 0 l 421 66 q 436 62 451 60 q 466 58 482 58 l 482 58 q 528 58 551 79 q 574 99 574 143 l 574 143 q 574 163 568 181 q 561 198 546 211 l 546 211 q 530 226 507 234 q 484 241 443 241 l 443 241 l 429 241 l 429 310 l 445 310 q 476 310 502 317 q 527 324 543 340 l 543 340 q 555 351 560 365 q 565 379 565 399 l 565 399 q 565 443 528 469 q 491 495 410 495 l 410 495 q 344 495 290 476 q 235 457 197 422 q 158 387 138 340 q 117 292 117 234 l 117 234 l 117 221 q 117 166 130 130 q 142 93 165 75 q 188 57 219 57 l 219 57 q 242 57 259 68 q 275 79 285 102 q 294 124 294 157 l 294 157 q 294 209 271 234 q 248 259 210 259 l 210 259 q 179 259 152 244 q 125 229 100 202 l 100 202 l 95 273 q 121 296 155 312 q 189 327 226 327 l 226 327 q 272 327 305 309 q 338 290 357 254 q 375 217 375 163 l 375 163 q 375 107 356 68 q 337 28 302 8 q 267 -12 218 -12 l 218 -12 q 170 -12 129 14 q 88 39 63 92 q 38 144 38 228 l 38 228 q 38 304 64 367 q 89 429 137 474 q 185 518 255 542 q 325 566 413 566 z"},"ഓ":{"ha":1161,"x_min":38,"x_max":1121,"o":"m 413 566 l 413 566 q 500 566 552 545 q 603 523 627 486 q 650 449 650 404 l 650 404 q 650 376 640 352 q 630 327 609 308 q 587 288 551 274 l 551 274 l 548 280 q 601 265 630 228 q 659 190 659 140 l 659 140 q 659 69 615 29 q 571 -11 494 -11 l 494 -11 q 468 -11 445 -7 q 421 -4 404 0 l 404 0 l 421 66 q 436 62 451 60 q 466 58 482 58 l 482 58 q 528 58 551 79 q 574 99 574 143 l 574 143 q 574 163 568 181 q 561 198 546 211 l 546 211 q 530 226 507 234 q 484 241 443 241 l 443 241 l 429 241 l 429 310 l 445 310 q 476 310 502 317 q 527 324 543 340 l 543 340 q 555 351 560 365 q 565 379 565 399 l 565 399 q 565 443 528 469 q 491 495 410 495 l 410 495 q 344 495 290 476 q 235 457 197 422 q 158 387 138 340 q 117 292 117 234 l 117 234 l 117 221 q 117 166 130 130 q 142 93 165 75 q 188 57 219 57 l 219 57 q 242 57 259 68 q 275 79 285 102 q 294 124 294 157 l 294 157 q 294 209 271 234 q 248 259 210 259 l 210 259 q 179 259 152 244 q 125 229 100 202 l 100 202 l 95 273 q 121 296 155 312 q 189 327 226 327 l 226 327 q 272 327 305 309 q 338 290 357 254 q 375 217 375 163 l 375 163 q 375 107 356 68 q 337 28 302 8 q 267 -12 218 -12 l 218 -12 q 170 -12 129 14 q 88 39 63 92 q 38 144 38 228 l 38 228 q 38 304 64 367 q 89 429 137 474 q 185 518 255 542 q 325 566 413 566 z m 1121 279 l 1121 279 q 1121 218 1111 166 q 1100 113 1076 73 q 1052 33 1012 11 q 972 -12 912 -12 l 912 -12 q 864 -12 829 4 q 794 20 771 47 q 747 74 733 106 q 719 138 713 169 l 713 169 l 797 186 q 804 159 816 129 q 828 98 851 78 q 873 57 909 57 l 909 57 q 955 57 983 84 q 1010 111 1023 161 q 1036 210 1036 278 l 1036 278 q 1036 346 1023 395 q 1010 444 983 471 q 956 497 914 497 l 914 497 q 879 497 856 478 q 833 458 820 429 q 807 399 800 370 l 800 370 l 717 387 q 725 419 740 451 q 755 483 779 509 q 803 535 838 551 q 872 566 920 566 l 920 566 q 977 566 1015 544 q 1053 521 1077 482 q 1100 442 1111 390 q 1121 338 1121 279 z"},"ഔ":{"ha":1386,"x_min":38,"x_max":1348,"o":"m 413 566 l 413 566 q 500 566 552 545 q 603 523 627 486 q 650 449 650 404 l 650 404 q 650 376 640 352 q 630 327 609 308 q 587 288 551 274 l 551 274 l 548 280 q 601 265 630 228 q 659 190 659 140 l 659 140 q 659 69 615 29 q 571 -11 494 -11 l 494 -11 q 468 -11 445 -7 q 421 -4 404 0 l 404 0 l 421 66 q 436 62 451 60 q 466 58 482 58 l 482 58 q 528 58 551 79 q 574 99 574 143 l 574 143 q 574 163 568 181 q 561 198 546 211 l 546 211 q 530 226 507 234 q 484 241 443 241 l 443 241 l 429 241 l 429 310 l 445 310 q 476 310 502 317 q 527 324 543 340 l 543 340 q 555 351 560 365 q 565 379 565 399 l 565 399 q 565 443 528 469 q 491 495 410 495 l 410 495 q 344 495 290 476 q 235 457 197 422 q 158 387 138 340 q 117 292 117 234 l 117 234 l 117 221 q 117 166 130 130 q 142 93 165 75 q 188 57 219 57 l 219 57 q 242 57 259 68 q 275 79 285 102 q 294 124 294 157 l 294 157 q 294 209 271 234 q 248 259 210 259 l 210 259 q 179 259 152 244 q 125 229 100 202 l 100 202 l 95 273 q 121 296 155 312 q 189 327 226 327 l 226 327 q 272 327 305 309 q 338 290 357 254 q 375 217 375 163 l 375 163 q 375 107 356 68 q 337 28 302 8 q 267 -12 218 -12 l 218 -12 q 170 -12 129 14 q 88 39 63 92 q 38 144 38 228 l 38 228 q 38 304 64 367 q 89 429 137 474 q 185 518 255 542 q 325 566 413 566 z m 1161 566 l 1161 566 q 1220 566 1262 535 q 1303 504 1326 446 q 1348 387 1348 305 l 1348 305 q 1348 200 1318 129 q 1288 58 1231 23 q 1173 -12 1090 -12 l 1090 -12 q 1031 -12 983 0 q 935 11 888 36 l 888 36 l 929 102 q 963 83 1000 72 q 1036 60 1085 60 l 1085 60 q 1152 60 1191 90 q 1230 120 1246 175 q 1262 230 1262 305 l 1262 305 q 1262 403 1234 449 q 1205 495 1157 495 l 1157 495 q 1132 495 1116 487 q 1099 478 1089 462 l 1089 462 q 1078 445 1075 420 q 1071 395 1071 345 l 1071 345 l 1071 259 l 988 259 l 988 341 q 988 385 984 414 q 980 443 969 459 l 969 459 q 958 478 941 487 q 924 495 902 495 l 902 495 q 856 495 833 463 q 810 430 810 380 l 810 380 q 810 346 814 320 q 818 294 824 272 l 824 272 l 746 255 q 737 284 732 319 q 726 353 726 385 l 726 385 q 726 434 745 475 q 763 516 802 541 q 840 566 898 566 l 898 566 q 947 566 980 545 q 1012 524 1033 484 l 1033 484 l 1021 485 q 1047 529 1081 548 q 1115 566 1161 566 z"},"ക":{"ha":949,"x_min":31,"x_max":918,"o":"m 202 -12 l 202 -12 q 119 -12 75 32 q 31 76 31 152 l 31 152 q 31 201 52 235 q 73 268 106 288 l 106 288 q 129 302 158 311 q 186 319 226 323 q 266 327 323 327 l 323 327 l 638 327 q 723 327 772 318 q 821 308 854 283 l 854 283 q 883 263 901 231 q 918 199 918 151 l 918 151 q 918 76 875 32 q 832 -12 755 -12 l 755 -12 q 732 -12 710 -9 q 688 -7 668 -1 l 668 -1 l 685 65 q 698 62 714 60 q 729 58 743 58 l 743 58 q 789 58 812 81 q 835 104 835 150 l 835 150 q 835 178 825 197 q 815 216 798 229 l 798 229 q 773 246 736 253 q 699 259 634 259 l 634 259 l 314 259 q 249 259 214 253 q 178 247 152 230 l 152 230 q 135 218 125 199 q 114 180 114 153 l 114 153 q 114 121 126 100 q 137 78 158 68 q 179 57 207 57 l 207 57 q 238 57 266 68 q 294 78 326 102 l 326 102 l 372 48 q 343 26 316 13 q 289 0 262 -6 q 234 -12 202 -12 z m 477 566 l 477 566 q 551 566 598 530 q 644 494 667 430 q 690 365 690 279 l 690 279 q 690 182 665 118 q 639 53 592 21 q 544 -12 477 -12 l 477 -12 q 425 -12 386 7 q 347 26 320 62 l 320 62 q 291 100 277 156 q 263 211 263 279 l 263 279 q 263 418 320 492 q 377 566 477 566 z m 477 497 l 477 497 q 410 497 378 444 q 346 390 346 278 l 346 278 q 346 202 361 153 q 375 103 404 80 q 433 57 476 57 l 476 57 q 519 57 548 80 q 577 102 592 152 q 607 201 607 278 l 607 278 q 607 354 593 403 q 578 452 549 475 q 520 497 477 497 z"},"ഖ":{"ha":914,"x_min":38,"x_max":847,"o":"m 343 566 l 343 566 q 414 566 466 545 q 517 523 551 485 q 584 446 601 395 q 617 343 617 284 l 617 284 q 617 233 607 193 q 596 152 579 120 q 561 87 537 60 l 537 60 l 530 0 l 468 0 l 431 54 q 457 78 480 109 q 502 139 517 180 q 531 221 531 275 l 531 275 q 531 344 508 393 q 485 442 443 469 q 400 495 340 495 l 340 495 q 275 495 225 461 q 174 427 146 370 q 117 312 117 239 l 117 239 l 117 222 q 117 167 130 130 q 143 93 166 75 q 189 57 220 57 l 220 57 q 242 57 259 68 q 276 79 286 102 q 295 124 295 158 l 295 158 q 295 209 272 234 q 249 259 211 259 l 211 259 q 180 259 153 244 q 125 229 100 202 l 100 202 l 95 273 q 121 296 156 312 q 190 327 226 327 l 226 327 q 272 327 306 309 q 339 290 358 254 q 376 217 376 163 l 376 163 q 376 107 357 68 q 338 28 303 8 q 268 -12 219 -12 l 219 -12 q 171 -12 130 14 q 88 39 63 94 q 38 148 38 234 l 38 234 q 38 340 79 414 q 119 488 188 527 q 257 566 343 566 z m 764 554 l 847 554 l 847 0 l 497 0 l 513 69 l 764 69 l 764 554 z"},"ഗ":{"ha":818,"x_min":38,"x_max":780,"o":"m 564 566 l 564 566 q 631 566 680 534 q 728 501 754 441 q 780 381 780 297 l 780 297 q 780 228 764 173 q 747 118 717 74 q 686 29 643 -9 l 643 -9 l 586 49 q 617 75 642 109 q 666 143 680 189 q 694 234 694 294 l 694 294 q 694 355 678 401 q 662 446 633 471 q 603 495 562 495 l 562 495 q 530 495 511 485 q 491 474 478 457 l 478 457 q 463 433 457 395 q 451 357 451 282 l 451 282 l 451 225 q 451 182 446 149 q 441 115 431 90 q 420 65 401 44 l 401 44 q 377 17 342 3 q 307 -12 256 -12 l 256 -12 q 189 -12 140 20 q 90 52 64 113 q 38 173 38 258 l 38 258 q 38 329 55 384 q 71 439 102 484 q 133 528 175 566 l 175 566 l 232 508 q 202 483 178 448 q 153 413 139 367 q 124 320 124 261 l 124 261 q 124 199 140 154 q 156 108 186 84 q 215 59 254 59 l 254 59 q 289 59 309 69 q 328 79 340 97 l 340 97 q 357 121 362 162 q 366 203 366 277 l 366 277 l 366 330 q 366 394 378 437 q 389 479 415 508 l 415 508 q 441 536 476 551 q 511 566 564 566 z"},"ഘ":{"ha":1209,"x_min":32,"x_max":1143,"o":"m 212 566 l 212 566 q 275 566 315 541 q 354 516 374 478 q 393 439 393 395 l 393 395 q 393 355 381 325 q 368 294 352 280 l 352 280 l 332 291 l 514 291 l 527 223 l 301 223 l 271 275 q 289 294 301 320 q 312 346 312 384 l 312 384 q 312 436 287 467 q 261 497 213 497 l 213 497 q 181 497 159 483 q 136 469 125 445 q 113 420 113 389 l 113 389 q 113 352 127 323 q 140 294 167 269 l 167 269 l 118 216 q 80 248 56 291 q 32 334 32 390 l 32 390 q 32 443 55 483 q 77 522 118 544 q 158 566 212 566 z m 1059 554 l 1143 554 l 1143 0 l 484 0 l 484 320 q 484 392 499 435 q 514 477 541 505 l 541 505 q 569 536 610 551 q 650 566 704 566 l 704 566 q 758 566 799 552 q 839 537 865 509 l 865 509 q 895 479 908 435 q 921 390 921 329 l 921 329 l 921 223 l 567 223 l 567 69 l 1059 69 l 1059 554 z m 703 497 l 703 497 q 632 497 600 456 q 567 415 567 324 l 567 324 l 567 291 l 837 291 l 837 324 q 837 417 805 457 q 773 497 703 497 z"},"ങ":{"ha":971,"x_min":41,"x_max":934,"o":"m 328 566 l 328 566 q 404 566 451 540 q 497 513 532 463 l 532 463 l 546 397 l 558 242 l 558 0 l 475 0 l 475 313 q 475 370 466 404 q 457 438 435 459 l 435 459 q 417 477 393 486 q 368 495 328 495 l 328 495 q 264 495 217 463 q 170 430 145 373 q 119 316 119 243 l 119 243 l 119 226 q 119 168 132 131 q 145 93 168 75 q 191 57 222 57 l 222 57 q 244 57 261 68 q 277 79 287 101 q 296 123 296 157 l 296 157 q 296 209 274 234 q 251 259 212 259 l 212 259 q 178 259 149 241 q 119 223 92 193 l 92 193 l 75 251 q 101 284 142 306 q 183 327 229 327 l 229 327 q 274 327 307 309 q 340 290 359 254 q 377 217 377 163 l 377 163 q 377 107 358 68 q 339 28 305 8 q 270 -12 221 -12 l 221 -12 q 173 -12 132 14 q 90 39 66 95 q 41 151 41 241 l 41 241 q 41 349 79 421 q 117 493 183 530 q 248 566 328 566 z m 732 566 l 732 566 q 795 566 838 546 q 881 525 903 490 q 925 455 925 412 l 925 412 q 925 380 915 354 q 905 328 884 309 q 862 289 826 274 l 826 274 l 823 280 q 876 265 905 228 q 934 190 934 140 l 934 140 q 934 70 890 30 q 846 -11 769 -11 l 769 -11 q 742 -11 719 -7 q 696 -4 679 0 l 679 0 l 696 66 q 713 62 727 60 q 741 58 757 58 l 757 58 q 800 58 825 77 q 849 96 849 143 l 849 143 q 849 163 843 181 q 836 198 821 211 l 821 211 q 805 226 782 234 q 758 241 714 241 l 714 241 l 696 241 l 696 310 l 715 310 q 750 310 776 317 q 801 324 817 340 l 817 340 q 829 351 835 367 q 840 383 840 404 l 840 404 q 840 450 810 473 q 779 495 730 495 l 730 495 q 692 495 662 484 q 632 472 611 451 l 611 451 q 595 435 583 412 q 571 389 565 354 q 558 318 558 264 l 558 264 l 558 125 l 494 126 l 489 262 l 510 434 q 528 472 559 502 q 590 531 634 549 q 678 566 732 566 z"},"ച":{"ha":851,"x_min":17,"x_max":785,"o":"m 701 554 l 785 554 l 785 0 l 17 0 l 17 69 l 400 69 l 349 55 q 371 72 391 105 q 411 137 411 186 l 411 186 q 411 236 388 266 q 364 296 319 296 l 319 296 q 275 296 251 268 q 227 240 227 190 l 227 190 q 227 179 229 168 q 230 157 231 150 l 231 150 l 150 139 q 148 149 146 166 q 144 182 144 198 l 144 198 q 144 275 192 320 q 240 365 321 365 l 321 365 q 368 365 401 351 q 433 336 453 311 q 473 286 483 255 q 492 224 492 191 l 492 191 q 492 160 485 134 q 477 108 465 88 q 452 67 437 51 l 437 51 l 415 69 l 701 69 l 701 554 z"},"ഛ":{"ha":1228,"x_min":17,"x_max":1190,"o":"m 321 365 l 321 365 q 368 365 401 351 q 433 336 453 311 q 473 286 483 255 q 492 224 492 191 l 492 191 q 492 160 485 134 q 477 108 465 88 q 452 67 437 51 l 437 51 l 415 69 l 701 69 l 720 0 l 17 0 l 17 69 l 400 69 l 349 55 q 371 72 391 105 q 411 137 411 186 l 411 186 q 411 236 388 266 q 364 296 319 296 l 319 296 q 275 296 251 268 q 227 240 227 190 l 227 190 q 227 179 229 168 q 230 157 231 150 l 231 150 l 150 139 q 148 149 146 166 q 144 182 144 198 l 144 198 q 144 275 192 320 q 240 365 321 365 z m 886 566 l 886 566 q 962 566 1019 543 q 1076 519 1114 475 q 1151 431 1171 372 q 1190 313 1190 242 l 1190 242 q 1190 151 1165 95 q 1139 38 1096 13 q 1052 -12 997 -12 l 997 -12 q 937 -12 898 17 q 859 45 840 93 q 820 140 820 197 l 820 197 q 820 294 866 349 q 911 403 989 403 l 989 403 q 1037 403 1073 380 q 1108 356 1131 317 q 1153 277 1161 228 l 1161 228 l 1135 224 q 1129 250 1112 276 q 1094 301 1068 318 q 1041 335 1006 335 l 1006 335 q 952 335 927 298 q 901 260 901 198 l 901 198 q 901 155 912 123 q 922 91 943 74 q 964 56 997 56 l 997 56 q 1033 56 1058 76 q 1082 95 1096 137 q 1109 179 1109 248 l 1109 248 q 1109 250 1108 270 q 1106 290 1103 310 l 1103 310 q 1102 315 1102 323 q 1102 331 1100 335 l 1100 335 q 1093 378 1066 415 q 1039 451 995 473 q 950 495 888 495 l 888 495 q 823 495 776 469 q 729 443 704 394 q 678 345 678 276 l 678 276 q 678 223 691 183 q 704 143 727 112 q 750 81 777 54 l 777 54 l 739 0 l 698 0 l 685 47 q 661 72 639 107 q 617 142 604 186 q 591 230 591 281 l 591 281 q 591 337 609 389 q 626 440 662 480 q 698 520 754 543 q 810 566 886 566 z"},"ജ":{"ha":856,"x_min":35,"x_max":817,"o":"m 272 566 l 272 566 q 323 566 361 555 q 399 544 428 522 q 457 500 482 464 l 482 464 l 452 469 q 481 516 521 541 q 560 566 622 566 l 622 566 q 690 566 733 539 q 776 511 797 468 q 817 425 817 377 l 817 377 q 817 335 805 304 q 793 273 771 251 q 749 228 716 212 l 716 212 l 592 185 l 532 175 q 506 171 469 169 q 431 167 397 167 l 397 167 l 236 167 q 195 167 176 164 q 156 161 144 156 l 144 156 q 129 149 123 138 q 117 127 117 113 l 117 113 q 117 90 128 78 q 139 65 156 60 q 173 55 188 55 l 188 55 q 226 55 260 63 q 294 71 328 86 q 362 101 400 121 l 400 121 q 421 131 440 141 q 459 150 477 158 q 495 166 513 173 q 531 179 550 185 l 550 185 q 568 192 584 200 q 599 207 613 214 q 626 220 639 225 q 652 229 667 229 l 667 229 q 701 229 730 218 q 758 206 776 181 q 794 156 794 113 l 794 113 q 794 54 758 21 q 722 -12 659 -12 l 659 -12 q 607 -12 577 7 q 547 26 535 56 q 522 86 522 117 l 522 117 q 522 148 537 170 q 551 192 579 205 l 579 205 l 630 216 q 620 208 611 196 q 601 183 595 165 q 589 146 589 121 l 589 121 q 589 83 608 66 q 627 49 656 49 l 656 49 q 692 49 706 69 q 720 88 720 115 l 720 115 q 720 139 711 153 q 702 167 687 174 q 672 180 654 180 l 654 180 q 631 180 613 171 q 594 162 572 145 l 572 145 l 564 152 q 552 141 537 129 q 522 116 504 103 q 486 90 463 77 l 463 77 q 413 49 367 29 q 321 8 277 -2 q 233 -12 187 -12 l 187 -12 q 148 -12 113 0 q 78 12 57 39 q 35 66 35 111 l 35 111 q 35 141 48 166 q 60 191 87 207 l 87 207 q 107 219 136 226 q 165 232 221 232 l 221 232 l 510 232 q 557 232 591 236 q 625 240 650 249 q 675 257 692 271 l 692 271 q 713 288 723 314 q 733 339 733 373 l 733 373 q 733 402 722 431 q 711 459 686 479 q 660 498 615 498 l 615 498 q 587 498 568 490 q 548 482 535 467 l 535 467 q 516 446 510 411 q 503 376 503 320 l 503 320 l 503 260 l 423 260 l 423 326 q 423 371 415 407 q 407 443 380 468 l 380 468 q 363 482 338 491 q 313 500 269 500 l 269 500 q 221 500 187 490 q 152 480 129 456 l 129 456 q 125 452 124 445 q 122 438 120 431 l 120 431 q 115 417 113 406 q 111 394 111 380 l 111 380 q 111 336 130 318 q 149 299 179 299 l 179 299 q 203 299 217 309 q 230 319 236 335 q 241 351 241 367 l 241 367 q 241 399 226 415 q 210 431 177 431 l 177 431 q 143 431 117 415 q 90 399 73 380 l 73 380 l 71 418 q 94 445 127 462 q 159 478 197 478 l 197 478 q 238 478 264 463 q 290 448 303 423 q 315 397 315 366 l 315 366 q 315 331 301 303 q 287 274 258 257 q 228 240 180 240 l 180 240 q 114 240 78 277 q 42 314 42 384 l 42 384 q 42 436 69 477 q 95 518 147 542 q 198 566 272 566 z"},"ഝ":{"ha":1507,"x_min":38,"x_max":1469,"o":"m 602 566 l 602 566 q 658 566 698 553 q 738 540 767 516 l 767 516 q 808 482 826 430 q 843 378 843 295 l 843 295 l 843 237 q 843 175 850 143 q 857 110 873 89 l 873 89 q 885 74 903 67 q 921 59 947 59 l 947 59 q 972 59 991 68 q 1010 77 1022 93 l 1022 93 q 1037 115 1044 147 q 1050 178 1050 238 l 1050 238 l 1050 554 l 1134 554 l 1134 248 q 1134 191 1140 158 q 1145 125 1159 104 l 1159 104 q 1174 81 1196 70 q 1217 59 1246 59 l 1246 59 q 1286 59 1317 85 q 1348 111 1366 157 q 1384 202 1384 259 l 1384 259 q 1384 320 1369 367 q 1354 413 1330 447 q 1305 480 1276 504 l 1276 504 l 1335 563 q 1373 527 1404 485 q 1434 443 1452 388 q 1469 333 1469 259 l 1469 259 q 1469 182 1443 121 q 1417 59 1367 24 q 1316 -12 1244 -12 l 1244 -12 q 1187 -12 1151 12 q 1114 36 1087 80 l 1087 80 l 1095 79 q 1079 50 1056 30 q 1033 9 1004 -1 q 975 -12 937 -12 l 937 -12 q 896 -12 864 1 q 832 14 809 40 l 809 40 q 795 56 784 78 q 772 99 766 136 q 759 172 759 231 l 759 231 l 759 279 q 759 327 754 362 q 748 397 736 422 q 724 446 705 463 l 705 463 q 686 480 658 490 q 630 499 593 499 l 593 499 q 579 499 557 497 q 535 494 512 484 l 512 484 l 485 468 q 450 449 423 414 q 395 378 379 328 q 362 278 362 217 l 362 217 q 362 153 377 118 q 391 83 414 70 q 437 57 463 57 l 463 57 q 491 57 514 70 q 537 83 551 118 q 564 153 564 217 l 564 217 q 564 276 548 327 q 531 377 502 415 q 472 453 433 473 l 433 473 l 414 483 q 394 492 374 495 q 354 498 330 498 l 330 498 q 264 498 218 470 q 172 441 148 391 q 124 341 124 276 l 124 276 q 124 222 138 180 q 151 138 176 107 q 201 75 234 51 l 234 51 l 182 -9 q 143 18 111 58 q 78 98 58 154 q 38 210 38 281 l 38 281 q 38 341 57 393 q 75 445 111 484 q 146 522 199 544 q 252 566 322 566 l 322 566 q 367 566 405 557 q 442 547 479 524 l 479 524 l 501 504 q 566 464 608 391 q 650 317 650 216 l 650 216 q 650 145 629 94 q 607 42 566 15 q 524 -12 463 -12 l 463 -12 q 404 -12 362 16 q 320 43 299 95 q 277 146 277 216 l 277 216 q 277 284 295 338 q 313 392 346 434 q 379 475 423 504 l 423 504 l 441 521 q 480 545 522 556 q 563 566 602 566 z"},"ഞ":{"ha":1319,"x_min":41,"x_max":1281,"o":"m 328 566 l 328 566 q 404 566 451 540 q 497 513 532 463 l 532 463 l 546 424 l 558 256 l 558 0 l 475 0 l 475 313 q 475 371 466 405 q 457 438 435 459 l 435 459 q 417 477 393 486 q 369 495 328 495 l 328 495 q 264 495 217 463 q 170 430 145 373 q 119 316 119 243 l 119 243 l 119 226 q 119 168 132 131 q 145 93 168 75 q 191 57 222 57 l 222 57 q 244 57 261 68 q 277 79 287 101 q 296 123 296 157 l 296 157 q 296 209 274 234 q 251 259 212 259 l 212 259 q 178 259 149 241 q 119 223 92 193 l 92 193 l 75 251 q 101 284 142 306 q 183 327 229 327 l 229 327 q 274 327 307 309 q 340 290 359 254 q 377 217 377 163 l 377 163 q 377 107 358 68 q 339 28 305 8 q 270 -12 221 -12 l 221 -12 q 173 -12 132 14 q 90 39 66 95 q 41 151 41 241 l 41 241 q 41 349 79 421 q 117 493 183 530 q 248 566 328 566 z m 717 566 l 717 566 q 765 566 803 556 q 840 546 875 524 l 875 524 l 898 504 q 960 464 1001 391 q 1042 318 1042 216 l 1042 216 q 1042 145 1021 94 q 999 42 958 15 q 916 -12 855 -12 l 855 -12 q 796 -12 754 16 q 712 43 691 95 q 669 146 669 216 l 669 216 q 669 284 689 338 q 708 392 743 434 q 777 475 821 504 l 821 504 l 837 520 q 876 545 918 556 q 960 566 1010 566 l 1010 566 q 1079 566 1130 544 q 1180 522 1214 483 q 1248 444 1265 392 q 1281 340 1281 281 l 1281 281 q 1281 212 1263 158 q 1244 104 1212 63 q 1180 22 1137 -9 l 1137 -9 l 1085 51 q 1115 72 1140 103 q 1164 133 1180 175 q 1195 217 1195 273 l 1195 273 q 1195 336 1173 387 q 1151 438 1108 468 q 1065 498 1001 498 l 1001 498 q 974 498 952 495 q 929 491 907 482 l 907 482 l 881 467 q 845 449 817 413 q 788 377 771 328 q 754 278 754 217 l 754 217 q 754 153 769 118 q 783 83 806 70 q 829 57 855 57 l 855 57 q 883 57 906 70 q 928 83 942 118 q 956 153 956 217 l 956 217 q 956 276 941 326 q 925 376 898 414 q 870 451 832 472 l 832 472 l 812 482 q 800 488 787 491 q 774 494 759 496 q 744 498 723 498 l 723 498 q 679 498 650 487 q 620 475 603 455 l 603 455 q 580 431 569 396 q 558 360 558 300 l 558 300 l 558 12 l 477 12 l 477 220 l 505 453 q 527 486 555 512 q 583 537 623 552 q 662 566 717 566 z"},"ട":{"ha":513,"x_min":19,"x_max":488,"o":"m 252 566 l 252 566 q 327 566 383 550 q 439 534 488 509 l 488 509 l 444 444 q 404 467 358 481 q 311 495 252 495 l 252 495 q 203 495 173 483 q 143 470 130 449 q 117 428 117 403 l 117 403 q 117 382 122 368 q 127 354 138 344 l 138 344 q 156 327 190 322 q 223 316 267 316 l 267 316 l 274 316 q 340 316 382 302 q 423 288 448 258 l 448 258 q 464 240 472 215 q 480 189 480 158 l 480 158 q 480 108 455 70 q 430 31 381 10 q 331 -12 256 -12 l 256 -12 q 186 -12 128 5 q 69 21 19 48 l 19 48 l 62 113 q 90 97 120 85 q 150 72 185 66 q 219 59 259 59 l 259 59 q 309 59 339 72 q 369 84 383 106 q 396 127 396 153 l 396 153 q 396 176 390 193 q 383 210 368 221 l 368 221 q 353 233 328 239 q 303 245 258 245 l 258 245 l 249 245 q 190 245 142 258 q 94 271 68 299 l 68 299 q 50 317 41 343 q 32 368 32 402 l 32 402 q 32 449 57 486 q 81 523 130 545 q 179 566 252 566 z"},"ഠ":{"ha":601,"x_min":38,"x_max":563,"o":"m 301 566 l 301 566 q 383 566 442 532 q 500 497 532 432 q 563 367 563 276 l 563 276 q 563 188 532 123 q 500 58 441 23 q 382 -12 299 -12 l 299 -12 q 210 -12 152 28 q 94 67 66 133 q 38 199 38 279 l 38 279 q 38 368 70 432 q 101 496 160 531 q 219 566 301 566 z m 300 59 l 300 59 q 359 59 398 87 q 437 114 457 164 q 477 213 477 278 l 477 278 q 477 343 457 392 q 437 441 398 468 q 359 495 301 495 l 301 495 q 218 495 171 438 q 124 381 124 278 l 124 278 q 124 175 170 117 q 216 59 300 59 z"},"ഡ":{"ha":1114,"x_min":38,"x_max":1076,"o":"m 544 -12 l 544 -12 q 503 -12 471 1 q 439 14 416 40 l 416 40 q 402 56 391 78 q 379 99 373 135 q 366 171 366 230 l 366 230 l 366 297 q 366 355 362 395 q 357 434 340 457 l 340 457 q 329 475 310 485 q 290 495 254 495 l 254 495 q 215 495 186 471 q 156 446 140 401 q 124 355 124 293 l 124 293 q 124 234 139 188 q 153 142 177 108 q 201 73 232 47 l 232 47 l 175 -11 q 133 27 102 72 q 71 116 55 171 q 38 226 38 297 l 38 297 q 38 381 64 442 q 90 502 140 534 q 190 566 258 566 l 258 566 q 307 566 342 552 q 376 537 400 511 l 400 511 q 420 490 431 465 q 441 439 446 406 q 450 373 450 327 l 450 327 l 450 238 q 450 178 457 144 q 463 110 480 89 l 480 89 q 492 75 510 67 q 528 59 554 59 l 554 59 q 579 59 598 68 q 617 77 629 93 l 629 93 q 644 114 651 146 q 657 178 657 237 l 657 237 l 657 554 l 741 554 l 741 247 q 741 190 747 158 q 752 125 766 104 l 766 104 q 781 81 803 70 q 824 59 853 59 l 853 59 q 893 59 925 85 q 956 111 973 157 q 990 202 990 259 l 990 259 q 990 321 976 367 q 961 413 936 447 q 911 480 883 504 l 883 504 l 942 563 q 980 527 1011 485 q 1041 443 1059 388 q 1076 332 1076 258 l 1076 258 q 1076 182 1050 121 q 1024 59 974 24 q 923 -12 851 -12 l 851 -12 q 794 -12 758 12 q 722 35 694 79 l 694 79 l 702 78 q 676 34 638 11 q 600 -12 544 -12 z"},"ഢ":{"ha":1216,"x_min":38,"x_max":1175,"o":"m 544 -12 l 544 -12 q 503 -12 471 1 q 439 14 416 40 l 416 40 q 402 56 391 78 q 379 99 373 136 q 366 172 366 231 l 366 231 l 366 297 q 366 355 362 395 q 357 434 340 457 l 340 457 q 329 475 310 485 q 290 495 254 495 l 254 495 q 215 495 186 471 q 156 446 140 401 q 124 356 124 294 l 124 294 q 124 234 139 188 q 153 142 177 108 q 201 73 232 47 l 232 47 l 175 -12 q 132 27 102 72 q 71 116 55 171 q 38 226 38 297 l 38 297 q 38 382 64 442 q 90 502 140 534 q 190 566 258 566 l 258 566 q 307 566 342 552 q 376 537 400 511 l 400 511 q 420 490 431 465 q 441 439 446 406 q 450 373 450 327 l 450 327 l 450 237 q 450 178 457 144 q 463 110 480 89 l 480 89 q 492 75 510 67 q 528 59 554 59 l 554 59 q 579 59 598 68 q 617 77 629 93 l 629 93 q 644 115 651 147 q 657 178 657 238 l 657 238 l 657 554 l 741 554 l 741 263 l 702 79 q 676 35 638 12 q 600 -12 544 -12 z m 998 566 l 998 566 q 1045 566 1086 541 q 1126 516 1151 461 q 1175 405 1175 313 l 1175 313 q 1175 207 1137 134 q 1098 61 1033 25 q 968 -12 887 -12 l 887 -12 q 813 -12 769 13 q 725 37 689 83 l 689 83 l 671 299 l 671 530 l 741 530 l 741 242 q 741 182 750 149 q 759 116 780 95 l 780 95 q 798 77 823 68 q 848 59 888 59 l 888 59 q 952 59 999 92 q 1046 125 1072 182 q 1097 239 1097 311 l 1097 311 l 1097 329 q 1097 390 1083 427 q 1069 464 1047 481 q 1024 497 994 497 l 994 497 q 972 497 956 486 q 939 475 930 454 q 920 432 920 398 l 920 398 q 920 345 943 320 q 965 295 1003 295 l 1003 295 q 1040 295 1069 313 q 1097 331 1124 361 l 1124 361 l 1141 303 q 1115 271 1075 249 q 1035 227 989 227 l 989 227 q 943 227 910 246 q 876 265 858 302 q 839 339 839 393 l 839 393 q 839 447 858 486 q 876 525 912 546 q 947 566 998 566 z"},"ണ":{"ha":1244,"x_min":41,"x_max":1206,"o":"m 328 566 l 328 566 q 404 566 450 540 q 495 514 528 470 l 528 470 l 510 472 q 540 520 581 543 q 621 566 673 566 l 673 566 q 734 566 772 542 q 809 518 833 475 l 833 475 l 821 470 q 854 523 893 545 q 931 566 986 566 l 986 566 q 1056 566 1106 531 q 1155 495 1181 435 q 1206 374 1206 297 l 1206 297 q 1206 227 1190 173 q 1173 118 1143 74 q 1112 30 1069 -9 l 1069 -9 l 1012 50 q 1043 75 1068 110 q 1092 144 1106 190 q 1120 235 1120 295 l 1120 295 q 1120 353 1104 398 q 1087 443 1057 469 q 1026 495 985 495 l 985 495 q 954 495 932 485 q 909 474 895 451 l 895 451 q 881 430 876 398 q 870 365 870 304 l 870 304 l 870 0 l 787 0 l 787 321 q 787 378 781 410 q 774 441 757 462 l 757 462 q 744 478 724 487 q 704 495 673 495 l 673 495 q 644 495 624 486 q 604 476 591 460 l 591 460 q 573 438 566 406 q 559 373 559 315 l 559 315 l 559 0 l 475 0 l 475 309 q 475 370 466 404 q 457 438 435 459 l 435 459 q 417 477 391 486 q 365 495 328 495 l 328 495 q 264 495 217 463 q 170 430 145 373 q 119 316 119 243 l 119 243 l 119 226 q 119 168 132 131 q 145 93 168 75 q 191 57 222 57 l 222 57 q 244 57 261 68 q 277 79 287 101 q 296 123 296 157 l 296 157 q 296 209 274 234 q 251 259 212 259 l 212 259 q 178 259 149 241 q 119 223 92 193 l 92 193 l 75 251 q 101 284 142 306 q 183 327 229 327 l 229 327 q 274 327 307 309 q 340 290 359 254 q 377 217 377 163 l 377 163 q 377 107 358 68 q 339 28 305 8 q 270 -12 221 -12 l 221 -12 q 173 -12 132 14 q 90 39 66 95 q 41 151 41 241 l 41 241 q 41 349 79 421 q 117 493 183 530 q 248 566 328 566 z"},"ത":{"ha":927,"x_min":38,"x_max":889,"o":"m 463 -12 l 463 -12 q 404 -12 362 16 q 320 43 299 95 q 277 146 277 216 l 277 216 q 277 284 297 338 q 316 392 351 434 q 385 476 429 504 l 429 504 l 445 520 q 484 545 526 556 q 568 566 618 566 l 618 566 q 687 566 738 544 q 788 522 822 483 q 856 444 873 392 q 889 340 889 281 l 889 281 q 889 212 871 158 q 852 104 820 63 q 788 22 745 -9 l 745 -9 l 694 51 q 723 72 748 103 q 773 133 788 175 q 803 217 803 273 l 803 273 q 803 338 781 389 q 759 440 716 469 q 672 498 609 498 l 609 498 q 582 498 560 495 q 537 491 515 482 l 515 482 l 488 467 q 453 449 425 413 q 396 377 379 328 q 362 278 362 217 l 362 217 q 362 153 377 118 q 391 83 414 70 q 437 57 463 57 l 463 57 q 491 57 514 70 q 537 83 551 118 q 564 153 564 217 l 564 217 q 564 276 548 327 q 531 377 502 415 q 472 453 433 473 l 433 473 l 414 483 q 394 492 374 495 q 354 498 330 498 l 330 498 q 264 498 218 470 q 172 442 148 392 q 124 342 124 276 l 124 276 q 124 222 138 180 q 151 138 176 107 q 201 75 234 51 l 234 51 l 182 -9 q 143 18 111 58 q 78 98 58 154 q 38 210 38 281 l 38 281 q 38 341 57 393 q 75 445 111 484 q 146 522 199 544 q 252 566 322 566 l 322 566 q 367 566 405 556 q 442 546 479 523 l 479 523 l 502 504 q 566 464 608 391 q 650 317 650 216 l 650 216 q 650 145 629 94 q 607 42 566 15 q 524 -12 463 -12 z"},"ഥ":{"ha":820,"x_min":67,"x_max":760,"o":"m 67 554 l 150 554 l 150 69 l 354 69 l 354 0 l 67 0 l 67 554 z m 534 566 l 534 566 q 590 566 631 551 q 671 535 699 508 l 699 508 q 733 475 747 427 q 760 378 760 305 l 760 305 l 760 0 l 311 0 l 311 306 q 311 356 317 393 q 323 430 337 458 q 350 486 372 508 l 372 508 q 400 535 440 551 q 480 566 534 566 z m 534 495 l 534 495 q 500 495 475 485 q 450 475 433 456 l 433 456 q 414 434 404 398 q 394 361 394 293 l 394 293 l 394 69 l 677 69 l 677 288 q 677 355 667 395 q 657 434 636 456 l 636 456 q 619 475 595 485 q 570 495 534 495 z"},"ദ":{"ha":587,"x_min":49,"x_max":551,"o":"m 344 566 l 344 566 q 409 566 453 546 q 497 525 520 491 q 542 456 542 412 l 542 412 q 542 364 519 330 q 496 296 443 274 l 443 274 l 440 280 q 493 265 522 228 q 551 191 551 142 l 551 142 q 551 70 505 30 q 459 -11 376 -11 l 376 -11 q 344 -11 320 -7 q 295 -4 276 0 l 276 0 l 294 67 q 313 63 331 61 q 349 58 367 58 l 367 58 q 416 58 441 78 q 466 98 466 143 l 466 143 q 466 163 459 181 q 452 198 437 211 l 437 211 q 422 226 399 234 q 375 241 327 241 l 327 241 l 295 241 l 295 310 l 326 310 q 366 310 392 317 q 418 324 434 340 l 434 340 q 445 351 451 367 q 457 382 457 404 l 457 404 q 457 449 427 472 q 396 495 342 495 l 342 495 q 272 495 226 461 q 180 426 157 364 q 134 302 134 221 l 134 221 q 134 168 141 113 q 147 57 158 9 l 158 9 l 78 -4 q 65 45 57 106 q 49 167 49 221 l 49 221 q 49 326 83 403 q 116 480 182 523 q 248 566 344 566 z"},"ധ":{"ha":831,"x_min":38,"x_max":793,"o":"m 567 -12 l 567 -12 q 526 -12 496 1 q 466 14 446 36 q 425 58 409 85 l 409 85 l 422 83 q 393 33 355 11 q 316 -12 259 -12 l 259 -12 q 188 -12 139 24 q 90 59 64 120 q 38 181 38 257 l 38 257 q 38 327 55 382 q 71 436 102 480 q 133 524 175 562 l 175 562 l 232 504 q 202 479 178 445 q 153 410 139 365 q 124 320 124 259 l 124 259 q 124 202 141 157 q 157 111 188 85 q 219 59 260 59 l 260 59 q 292 59 314 71 q 336 82 349 104 l 349 104 q 364 125 369 157 q 374 189 374 248 l 374 248 l 374 554 l 458 554 l 458 250 q 458 191 463 159 q 468 126 483 104 l 483 104 q 497 82 518 71 q 539 59 569 59 l 569 59 q 609 59 641 85 q 672 110 690 156 q 707 201 707 260 l 707 260 q 707 322 693 368 q 678 413 654 447 q 629 480 600 503 l 600 503 l 659 562 q 697 527 728 485 q 758 443 776 388 q 793 332 793 259 l 793 259 q 793 179 766 118 q 738 57 688 23 q 637 -12 567 -12 z"},"ന":{"ha":831,"x_min":38,"x_max":793,"o":"m 264 566 l 264 566 q 306 566 336 553 q 365 540 387 519 q 408 497 422 469 l 422 469 l 409 471 q 439 521 478 544 q 516 566 572 566 l 572 566 q 643 566 692 531 q 741 495 767 435 q 793 374 793 297 l 793 297 q 793 227 777 173 q 760 118 729 74 q 698 30 656 -8 l 656 -8 l 599 50 q 629 75 654 110 q 679 144 693 190 q 707 235 707 295 l 707 295 q 707 353 691 398 q 674 443 643 469 q 612 495 571 495 l 571 495 q 539 495 518 484 q 496 473 482 450 l 482 450 q 468 430 463 398 q 457 365 457 306 l 457 306 l 457 0 l 374 0 l 374 304 q 374 363 369 396 q 363 429 349 450 l 349 450 q 334 472 313 484 q 292 495 262 495 l 262 495 q 222 495 191 470 q 160 444 142 399 q 124 354 124 294 l 124 294 q 124 233 139 188 q 154 142 178 109 q 202 75 231 51 l 231 51 l 172 -8 q 134 27 104 69 q 73 111 56 167 q 38 222 38 295 l 38 295 q 38 376 66 437 q 93 497 144 532 q 194 566 264 566 z"},"ഩ":{"ha":932,"x_min":41,"x_max":894,"o":"m 328 566 l 328 566 q 404 566 450 540 q 495 514 528 470 l 528 470 l 514 477 q 542 524 581 545 q 620 566 674 566 l 674 566 q 745 566 794 531 q 843 495 869 435 q 894 374 894 297 l 894 297 q 894 227 878 173 q 862 118 831 74 q 800 30 758 -8 l 758 -8 l 701 50 q 731 75 756 110 q 780 144 795 190 q 809 235 809 295 l 809 295 q 809 353 792 398 q 775 443 745 469 q 714 495 673 495 l 673 495 q 641 495 620 484 q 598 473 583 450 l 583 450 q 570 430 564 398 q 558 365 558 303 l 558 303 l 558 0 l 475 0 l 475 313 q 475 370 466 404 q 457 438 435 459 l 435 459 q 417 477 393 486 q 368 495 328 495 l 328 495 q 264 495 217 463 q 170 430 145 373 q 119 316 119 243 l 119 243 l 119 226 q 119 168 132 131 q 145 93 168 75 q 191 57 222 57 l 222 57 q 244 57 261 68 q 277 79 287 101 q 296 123 296 157 l 296 157 q 296 209 274 234 q 251 259 212 259 l 212 259 q 178 259 149 241 q 119 223 92 193 l 92 193 l 75 251 q 101 284 142 306 q 183 327 229 327 l 229 327 q 274 327 307 309 q 340 290 359 254 q 377 217 377 163 l 377 163 q 377 107 358 68 q 339 28 305 8 q 270 -12 221 -12 l 221 -12 q 173 -12 132 14 q 90 39 66 95 q 41 151 41 241 l 41 241 q 41 349 79 421 q 117 493 183 530 q 248 566 328 566 z"},"പ":{"ha":818,"x_min":32,"x_max":751,"o":"m 212 346 l 212 346 q 275 346 315 321 q 354 296 374 257 q 393 218 393 175 l 393 175 q 393 133 380 102 q 367 71 351 57 l 351 57 l 331 69 l 668 69 l 668 554 l 751 554 l 751 0 l 301 0 l 270 52 q 288 73 300 99 q 312 124 312 162 l 312 162 q 312 215 287 246 q 261 277 213 277 l 213 277 q 182 277 160 263 q 137 248 125 224 q 113 199 113 168 l 113 168 q 113 130 127 101 q 141 72 168 46 l 168 46 l 119 -7 q 82 25 57 69 q 32 112 32 169 l 32 169 q 32 222 55 262 q 77 301 118 324 q 158 346 212 346 z"},"ഫ":{"ha":1030,"x_min":32,"x_max":971,"o":"m 212 346 l 212 346 q 275 346 315 321 q 354 296 374 257 q 393 218 393 175 l 393 175 q 393 133 380 102 q 367 71 351 57 l 351 57 l 331 69 l 573 69 l 573 0 l 301 0 l 270 52 q 288 73 300 99 q 312 124 312 162 l 312 162 q 312 215 287 246 q 261 277 213 277 l 213 277 q 182 277 160 263 q 137 248 125 224 q 113 199 113 168 l 113 168 q 113 130 127 101 q 141 72 168 46 l 168 46 l 119 -7 q 81 25 57 69 q 32 112 32 169 l 32 169 q 32 222 55 262 q 77 301 118 324 q 158 346 212 346 z m 744 566 l 744 566 q 800 566 841 551 q 882 535 910 508 l 910 508 q 943 475 957 427 q 971 378 971 305 l 971 305 l 971 0 l 522 0 l 522 306 q 522 356 528 393 q 534 430 548 458 q 561 486 583 508 l 583 508 q 610 535 651 551 q 691 566 744 566 z m 745 495 l 745 495 q 711 495 686 485 q 661 475 644 456 l 644 456 q 624 434 615 398 q 605 361 605 293 l 605 293 l 605 69 l 887 69 l 887 288 q 887 355 877 395 q 867 434 847 456 l 847 456 q 830 475 806 485 q 781 495 745 495 z"},"ബ":{"ha":1191,"x_min":41,"x_max":1125,"o":"m 328 566 l 328 566 q 404 566 450 540 q 495 514 528 470 l 528 470 l 546 424 l 558 265 l 558 0 l 475 0 l 475 313 q 475 370 466 404 q 457 438 435 459 l 435 459 q 417 477 393 486 q 368 495 328 495 l 328 495 q 264 495 217 463 q 170 430 145 373 q 119 316 119 243 l 119 243 l 119 226 q 119 168 132 131 q 145 93 168 75 q 191 57 222 57 l 222 57 q 244 57 261 68 q 277 79 287 101 q 296 123 296 157 l 296 157 q 296 209 274 234 q 251 259 212 259 l 212 259 q 178 259 149 241 q 119 223 92 193 l 92 193 l 75 251 q 101 284 142 306 q 183 327 229 327 l 229 327 q 274 327 307 309 q 340 290 359 254 q 377 217 377 163 l 377 163 q 377 107 358 68 q 339 28 305 8 q 270 -12 221 -12 l 221 -12 q 173 -12 132 14 q 90 39 66 95 q 41 151 41 241 l 41 241 q 41 349 79 421 q 117 493 183 530 q 248 566 328 566 z m 1041 554 l 1125 554 l 1125 0 l 746 0 l 710 50 q 736 79 758 112 q 780 144 795 189 q 809 233 809 295 l 809 295 q 809 353 792 398 q 775 443 745 469 q 714 495 673 495 l 673 495 q 641 495 620 484 q 598 473 583 450 l 583 450 q 570 430 564 398 q 558 365 558 303 l 558 303 l 558 4 l 478 4 l 478 255 l 519 422 l 514 477 q 542 524 581 545 q 620 566 674 566 l 674 566 q 745 566 794 531 q 843 495 869 435 q 894 374 894 297 l 894 297 q 894 240 884 197 q 873 153 855 119 q 836 85 813 56 l 813 56 l 801 69 l 1041 69 l 1041 554 z"},"ഭ":{"ha":600,"x_min":49,"x_max":568,"o":"m 365 566 l 365 566 q 424 566 470 550 q 516 534 542 503 q 567 471 567 425 l 567 425 q 567 399 560 379 q 553 359 540 346 l 540 346 q 525 329 500 321 q 475 312 430 312 l 430 312 l 411 312 q 381 312 365 309 q 349 306 339 301 l 339 301 q 331 296 327 289 q 323 281 323 270 l 323 270 q 323 245 346 237 q 368 228 409 228 l 409 228 l 418 228 q 459 228 488 220 q 517 212 535 195 l 535 195 q 552 181 560 161 q 568 140 568 114 l 568 114 q 568 78 550 49 q 532 20 495 4 q 458 -12 398 -12 l 398 -12 q 371 -12 341 -8 q 310 -5 282 3 q 254 10 233 19 l 233 19 l 262 86 q 296 72 330 65 q 363 58 397 58 l 397 58 q 449 58 469 74 q 488 89 488 112 l 488 112 q 488 138 469 149 q 449 160 411 160 l 411 160 l 400 160 q 348 160 317 170 q 285 180 268 199 l 268 199 q 257 213 251 230 q 244 247 244 269 l 244 269 q 244 293 253 314 q 261 335 280 349 l 280 349 q 299 364 329 372 q 358 380 405 380 l 405 380 l 432 380 q 461 380 474 390 q 486 400 486 424 l 486 424 q 486 461 453 478 q 419 495 363 495 l 363 495 q 284 495 234 461 q 183 426 159 364 q 134 302 134 221 l 134 221 q 134 168 141 113 q 147 57 158 9 l 158 9 l 78 -4 q 65 45 57 106 q 49 167 49 221 l 49 221 q 49 325 84 403 q 119 480 189 523 q 259 566 365 566 z"},"മ":{"ha":664,"x_min":57,"x_max":607,"o":"m 325 566 l 325 566 q 397 566 449 548 q 501 530 534 496 l 534 496 q 560 471 576 440 q 592 408 600 367 q 607 325 607 270 l 607 270 l 607 0 l 57 0 l 57 273 q 57 325 65 366 q 72 407 88 439 q 104 471 128 495 l 128 495 q 162 529 210 548 q 257 566 325 566 z m 280 496 l 280 496 q 244 496 216 476 q 188 456 170 421 l 170 421 q 156 393 148 353 q 140 313 140 253 l 140 253 l 140 65 l 143 66 q 203 117 250 174 q 296 230 322 289 q 348 348 348 404 l 348 404 q 348 432 341 453 q 334 473 320 485 q 305 496 280 496 z m 432 394 l 432 394 q 432 334 408 276 q 384 218 340 161 q 295 104 234 45 l 234 45 l 228 64 q 254 66 283 68 q 311 69 334 69 l 334 69 l 523 69 l 523 260 q 523 331 510 379 q 497 426 468 455 q 438 483 390 496 l 390 496 l 392 502 q 410 481 421 456 q 432 430 432 394 z"},"യ":{"ha":949,"x_min":38,"x_max":908,"o":"m 607 -12 l 607 -12 q 568 -12 529 -3 q 489 6 452 28 l 452 28 q 446 31 438 36 q 430 41 425 45 l 425 45 q 376 82 346 129 q 316 176 302 231 q 288 285 288 343 l 288 343 q 288 381 298 416 q 307 451 323 479 l 323 479 l 333 492 q 350 516 373 533 q 396 549 424 558 q 451 566 482 566 l 482 566 q 573 566 624 505 q 674 444 674 337 l 674 337 q 674 243 638 170 q 602 96 540 49 l 540 49 q 533 44 526 39 q 518 34 510 29 l 510 29 q 473 8 432 -2 q 390 -12 344 -12 l 344 -12 q 271 -12 214 14 q 157 39 118 86 q 79 132 59 195 q 38 257 38 332 l 38 332 q 38 404 63 456 q 87 508 133 537 q 178 566 239 566 l 239 566 q 291 566 328 547 q 364 528 394 493 l 394 493 l 335 440 q 320 465 298 481 q 275 497 242 497 l 242 497 q 207 497 180 479 q 153 461 138 424 q 123 387 123 331 l 123 331 q 123 254 149 192 q 175 129 226 92 q 276 55 350 55 l 350 55 q 372 55 393 58 q 414 60 433 67 l 433 67 q 442 70 452 74 q 462 78 470 82 l 470 82 q 504 103 531 141 q 558 178 574 229 q 589 279 589 336 l 589 336 q 589 396 574 432 q 559 467 535 482 q 510 497 482 497 l 482 497 q 449 497 424 479 q 399 461 386 425 q 373 389 373 337 l 373 337 q 373 288 387 238 q 400 188 427 147 q 453 105 491 81 l 491 81 q 499 77 506 76 q 513 74 521 70 l 521 70 q 538 64 560 60 q 582 55 606 55 l 606 55 q 681 55 729 88 q 776 120 800 178 q 823 235 823 307 l 823 307 q 823 366 806 422 q 788 478 755 523 l 755 523 l 825 566 q 866 511 887 445 q 908 379 908 312 l 908 312 q 908 240 889 181 q 870 121 833 78 q 795 35 739 12 q 682 -12 607 -12 z"},"ര":{"ha":674,"x_min":38,"x_max":637,"o":"m 332 566 l 332 566 q 409 566 466 543 q 523 519 561 475 q 598 431 618 372 q 637 313 637 242 l 637 242 q 637 151 612 95 q 586 38 543 13 q 499 -12 444 -12 l 444 -12 q 384 -12 345 17 q 305 45 286 93 q 266 140 266 197 l 266 197 q 266 294 312 349 q 358 403 436 403 l 436 403 q 485 403 520 380 q 555 356 578 317 q 600 277 608 228 l 608 228 l 582 224 q 576 250 559 276 q 542 301 516 318 q 489 335 454 335 l 454 335 q 399 335 374 298 q 348 260 348 198 l 348 198 q 348 155 358 123 q 368 91 389 74 q 410 56 444 56 l 444 56 q 479 56 504 76 q 529 95 543 137 q 556 179 556 248 l 556 248 q 556 250 555 270 q 553 290 550 310 l 550 310 q 549 315 549 323 q 549 331 547 335 l 547 335 q 539 378 513 415 q 486 451 442 473 q 397 495 334 495 l 334 495 q 270 495 223 469 q 175 443 150 394 q 124 345 124 276 l 124 276 q 124 222 138 181 q 151 139 176 107 q 201 75 234 51 l 234 51 l 182 -9 q 143 18 111 59 q 78 99 58 155 q 38 210 38 281 l 38 281 q 38 337 56 389 q 73 440 109 480 q 145 520 201 543 q 256 566 332 566 z"},"റ":{"ha":617,"x_min":38,"x_max":579,"o":"m 312 566 l 312 566 q 380 566 431 545 q 481 523 514 485 q 547 446 563 395 q 579 343 579 284 l 579 284 q 579 213 561 159 q 542 104 510 63 q 478 22 436 -9 l 436 -9 l 384 51 q 413 72 438 103 q 463 134 478 177 q 493 219 493 275 l 493 275 q 493 342 472 392 q 450 441 409 468 q 368 495 310 495 l 310 495 q 252 495 211 467 q 169 439 147 390 q 124 340 124 276 l 124 276 q 124 224 138 182 q 151 139 176 107 q 201 75 234 51 l 234 51 l 182 -8 q 143 17 111 58 q 78 99 58 155 q 38 210 38 281 l 38 281 q 38 342 56 394 q 73 446 108 485 q 143 523 194 545 q 245 566 312 566 z"},"ല":{"ha":785,"x_min":60,"x_max":719,"o":"m 635 554 l 719 554 l 719 0 l 60 0 l 60 320 q 60 392 75 435 q 90 477 117 505 l 117 505 q 146 536 186 551 q 226 566 280 566 l 280 566 q 334 566 375 552 q 415 537 442 509 l 442 509 q 471 479 484 435 q 497 390 497 329 l 497 329 l 497 223 l 144 223 l 144 69 l 635 69 l 635 554 z m 279 497 l 279 497 q 208 497 176 456 q 144 415 144 324 l 144 324 l 144 291 l 414 291 l 414 324 q 414 417 382 457 q 349 497 279 497 z"},"ള":{"ha":663,"x_min":38,"x_max":626,"o":"m 365 497 l 365 497 q 314 497 273 488 q 232 478 201 461 q 169 443 148 420 q 127 397 116 370 l 116 370 q 115 366 117 360 q 118 354 117 350 l 117 350 q 115 340 114 330 q 112 319 112 310 l 112 310 q 112 247 132 215 q 151 182 193 182 l 193 182 q 231 182 248 208 q 265 233 265 269 l 265 269 q 265 292 258 311 q 251 329 236 340 q 220 351 194 351 l 194 351 q 154 351 129 328 q 103 305 85 281 l 85 281 l 61 333 q 77 353 99 372 q 120 391 148 404 q 176 416 209 416 l 209 416 q 257 416 288 396 q 318 375 332 342 q 346 309 346 269 l 346 269 q 346 227 330 192 q 313 157 280 136 q 246 115 193 115 l 193 115 q 147 115 112 138 q 77 160 58 204 q 38 247 38 310 l 38 310 q 38 366 59 413 q 80 459 122 494 q 164 528 226 547 q 287 566 367 566 l 367 566 q 451 566 507 547 q 562 528 590 492 q 617 455 617 402 l 617 402 q 617 367 603 340 q 589 312 561 293 q 532 274 486 264 l 486 264 l 406 283 l 406 310 l 413 310 q 442 310 465 315 q 488 319 504 333 l 504 333 q 519 346 526 361 q 532 376 532 397 l 532 397 q 532 428 515 450 q 498 472 462 485 q 425 497 365 497 z m 626 147 l 626 147 q 626 113 614 86 q 602 58 580 39 l 580 39 q 564 27 544 18 q 524 9 496 5 q 467 0 422 0 l 422 0 l 254 0 q 213 0 194 -3 q 174 -6 161 -13 l 161 -13 q 145 -20 138 -33 q 130 -46 130 -63 l 130 -63 q 130 -78 136 -90 q 141 -103 154 -111 l 154 -111 q 167 -121 190 -125 q 213 -130 254 -130 l 254 -130 l 605 -130 l 605 -201 l 250 -201 q 199 -201 163 -193 q 127 -186 102 -170 l 102 -170 q 75 -154 61 -128 q 46 -102 46 -68 l 46 -68 q 46 -33 59 -6 q 72 21 99 39 l 99 39 q 113 49 131 56 q 149 62 174 66 q 199 69 234 69 l 234 69 l 414 69 q 452 69 477 74 q 502 79 517 91 l 517 91 q 529 102 535 117 q 541 132 541 154 l 541 154 q 541 175 534 191 q 526 207 510 219 l 510 219 q 496 229 475 235 q 454 241 419 241 l 419 241 l 406 241 l 406 294 l 494 286 q 559 275 593 238 q 626 200 626 147 z"},"ഴ":{"ha":602,"x_min":36,"x_max":566,"o":"m 240 409 l 240 409 q 240 477 282 522 q 324 566 403 566 l 403 566 q 462 566 498 541 q 534 515 550 476 q 566 437 566 395 l 566 395 q 566 326 537 271 q 507 215 453 183 q 399 151 324 151 l 324 151 l 305 151 q 214 151 154 184 q 94 216 65 272 q 36 328 36 398 l 36 398 q 36 439 48 481 q 60 522 88 566 l 88 566 l 154 529 q 133 492 126 462 q 119 432 119 400 l 119 400 q 119 339 143 299 q 166 258 209 238 q 251 218 306 218 l 306 218 l 323 218 q 375 218 411 242 q 446 265 465 306 q 483 346 483 398 l 483 398 q 483 437 466 468 q 448 498 403 498 l 403 498 q 375 498 357 486 q 339 474 331 454 q 322 433 322 407 l 322 407 q 322 365 335 330 q 347 295 363 263 q 378 230 391 197 q 403 163 403 123 l 403 123 q 403 93 391 62 q 378 31 346 10 q 313 -12 252 -12 l 252 -12 q 216 -12 179 -4 q 141 3 104 22 l 104 22 l 134 87 q 159 73 188 66 q 216 58 248 58 l 248 58 q 294 58 309 78 q 323 98 323 126 l 323 126 q 323 164 311 196 q 298 228 282 261 q 265 293 253 329 q 240 365 240 409 z"},"വ":{"ha":876,"x_min":38,"x_max":809,"o":"m 312 566 l 312 566 q 380 566 431 545 q 481 523 514 485 q 547 446 563 395 q 579 343 579 284 l 579 284 q 579 231 568 189 q 556 147 537 114 q 517 81 493 53 l 493 53 l 476 69 l 725 69 l 725 554 l 809 554 l 809 0 l 428 0 l 392 58 q 418 78 441 108 q 464 137 479 179 q 493 221 493 275 l 493 275 q 493 342 472 392 q 450 441 409 468 q 368 495 309 495 l 309 495 q 252 495 211 467 q 169 439 147 390 q 124 340 124 276 l 124 276 q 124 224 138 182 q 151 139 176 107 q 201 75 234 51 l 234 51 l 182 -9 q 143 17 111 58 q 78 99 58 155 q 38 210 38 281 l 38 281 q 38 342 56 394 q 73 446 108 485 q 143 523 194 545 q 245 566 312 566 z"},"ശ":{"ha":949,"x_min":38,"x_max":912,"o":"m 621 566 l 621 566 q 691 566 745 543 q 798 520 836 478 q 873 435 893 376 q 912 316 912 242 l 912 242 q 912 151 887 95 q 861 38 818 13 q 774 -12 719 -12 l 719 -12 q 659 -12 620 17 q 580 45 561 93 q 541 140 541 197 l 541 197 q 541 294 587 349 q 633 403 712 403 l 712 403 q 760 403 795 380 q 830 356 853 317 q 875 277 884 228 l 884 228 l 857 224 q 851 250 834 276 q 817 301 791 318 q 764 335 729 335 l 729 335 q 674 335 649 298 q 623 260 623 198 l 623 198 q 623 155 633 123 q 643 91 664 74 q 685 56 719 56 l 719 56 q 754 56 779 76 q 804 95 818 137 q 831 179 831 248 l 831 248 q 831 250 830 270 q 828 290 825 310 l 825 310 q 824 315 825 323 q 826 331 824 334 l 824 334 q 815 381 788 418 q 760 454 719 475 q 677 495 624 495 l 624 495 q 587 495 559 487 q 530 479 511 463 l 511 463 q 476 435 464 386 q 452 336 452 260 l 452 260 l 452 227 q 452 160 441 117 q 430 74 401 44 l 401 44 q 377 17 342 3 q 307 -12 256 -12 l 256 -12 q 189 -12 140 20 q 90 52 64 113 q 38 173 38 258 l 38 258 q 38 329 55 384 q 71 439 102 484 q 133 528 175 566 l 175 566 l 232 508 q 202 483 178 448 q 153 413 139 367 q 124 320 124 261 l 124 261 q 124 199 140 154 q 156 108 186 84 q 215 59 254 59 l 254 59 q 288 59 308 69 q 328 79 340 97 l 340 97 q 356 121 361 162 q 366 203 366 255 l 366 255 l 366 288 q 366 367 384 419 q 401 471 441 507 l 441 507 q 474 537 519 552 q 564 566 621 566 z"},"ഷ":{"ha":1052,"x_min":32,"x_max":985,"o":"m 212 346 l 212 346 q 274 346 314 321 q 354 296 374 257 q 393 218 393 175 l 393 175 q 393 133 380 102 q 367 71 351 57 l 351 57 l 330 69 l 621 69 l 636 0 l 301 0 l 271 52 q 289 73 301 99 q 312 124 312 162 l 312 162 q 312 215 287 246 q 261 277 213 277 l 213 277 q 182 277 160 263 q 137 248 125 224 q 113 199 113 168 l 113 168 q 113 130 127 101 q 141 72 168 46 l 168 46 l 119 -7 q 82 25 57 69 q 32 112 32 169 l 32 169 q 32 222 55 262 q 77 301 118 324 q 158 346 212 346 z m 985 0 l 601 0 l 601 389 q 601 419 597 442 q 593 465 583 478 l 583 478 q 576 487 566 492 q 556 497 541 497 l 541 497 q 512 497 496 476 q 480 455 480 415 l 480 415 q 480 385 491 360 q 501 334 528 319 q 554 303 600 303 l 600 303 l 632 303 q 685 303 726 324 q 767 344 799 379 q 831 414 857 459 q 883 504 905 554 l 905 554 l 985 554 l 985 0 z m 544 566 l 544 566 q 576 566 600 558 q 623 550 640 534 l 640 534 q 663 514 674 482 q 684 449 684 393 l 684 393 l 684 69 l 902 69 l 902 318 q 902 341 903 365 q 904 389 905 410 q 906 430 908 441 l 908 441 l 910 438 q 884 371 842 326 q 800 281 749 259 q 697 236 641 236 l 641 236 l 609 236 q 535 236 488 260 q 441 284 419 325 q 397 365 397 415 l 397 415 q 397 453 414 488 q 430 522 463 544 q 496 566 544 566 z"},"സ":{"ha":1114,"x_min":38,"x_max":1076,"o":"m 571 566 l 571 566 q 611 566 644 553 q 676 540 698 514 l 698 514 q 713 498 724 477 q 735 455 742 419 q 748 383 748 324 l 748 324 l 748 257 q 748 199 753 160 q 758 121 774 97 l 774 97 q 786 79 806 69 q 825 59 860 59 l 860 59 q 900 59 929 84 q 958 108 974 154 q 990 200 990 261 l 990 261 q 990 321 976 367 q 962 413 938 448 q 913 483 883 508 l 883 508 l 939 566 q 982 528 1013 484 q 1043 439 1060 384 q 1076 329 1076 258 l 1076 258 q 1076 173 1050 113 q 1023 52 975 20 q 926 -12 858 -12 l 858 -12 q 807 -12 772 3 q 737 17 713 44 l 713 44 q 695 65 684 90 q 673 115 669 149 q 664 182 664 227 l 664 227 l 664 316 q 664 376 658 411 q 651 445 634 465 l 634 465 q 623 480 605 488 q 586 495 560 495 l 560 495 q 535 495 516 486 q 497 477 485 461 l 485 461 q 470 440 464 409 q 457 377 457 317 l 457 317 l 457 0 l 374 0 l 374 307 q 374 364 369 397 q 363 430 348 450 l 348 450 q 334 473 312 484 q 290 495 261 495 l 261 495 q 221 495 190 469 q 159 443 142 398 q 124 353 124 295 l 124 295 q 124 234 139 188 q 154 142 179 109 q 203 75 232 51 l 232 51 l 172 -8 q 134 27 104 70 q 73 112 56 168 q 38 223 38 297 l 38 297 q 38 373 64 434 q 90 495 141 531 q 191 566 263 566 l 263 566 q 320 566 357 543 q 393 519 420 475 l 420 475 l 413 476 q 438 520 477 543 q 515 566 571 566 z"},"ഹ":{"ha":1086,"x_min":32,"x_max":1048,"o":"m 212 346 l 212 346 q 274 346 314 321 q 354 296 374 257 q 393 218 393 175 l 393 175 q 393 133 380 102 q 367 71 351 57 l 351 57 l 330 69 l 621 69 l 635 0 l 301 0 l 271 52 q 289 73 301 99 q 312 124 312 162 l 312 162 q 312 215 287 246 q 261 277 213 277 l 213 277 q 182 277 160 263 q 137 248 125 224 q 113 199 113 168 l 113 168 q 113 130 127 101 q 141 72 168 46 l 168 46 l 119 -7 q 82 25 57 69 q 32 112 32 169 l 32 169 q 32 222 55 262 q 77 301 118 324 q 158 346 212 346 z m 780 566 l 780 566 q 848 566 899 545 q 949 523 982 485 q 1015 446 1032 395 q 1048 343 1048 284 l 1048 284 q 1048 213 1029 159 q 1010 104 978 63 q 946 22 904 -9 l 904 -9 l 852 51 q 881 72 906 103 q 931 133 946 176 q 961 219 961 275 l 961 275 q 961 342 939 392 q 917 441 877 468 q 836 495 778 495 l 778 495 q 721 495 680 467 q 638 439 616 390 q 593 340 593 276 l 593 276 q 593 226 605 186 q 617 146 640 115 q 662 83 693 58 l 693 58 l 654 0 l 627 0 l 586 60 q 565 86 547 119 q 528 152 517 193 q 506 234 506 282 l 506 282 q 506 342 524 394 q 541 446 576 485 q 611 523 662 545 q 713 566 780 566 z"},"ഺ":{"ha":701,"x_min":20,"x_max":684,"o":"m 115 69 l 684 69 l 684 0 l 433 0 l 433 -202 l 348 -202 l 348 0 l 64 0 l 20 50 l 213 559 l 291 534 l 115 69 z"},"഻":{"ha":0,"x_min":-313,"x_max":-243,"o":"m -313 586 l -313 864 l -243 864 l -243 586 l -313 586 z"},"഼":{"ha":0,"x_min":-231,"x_max":21,"o":"m -231 721 l -231 721 q -231 779 -196 815 q -161 851 -106 851 l -106 851 q -49 851 -14 816 q 21 780 21 721 l 21 721 q 21 663 -13 627 q -48 591 -106 591 l -106 591 q -162 591 -196 627 q -231 663 -231 721 z m -162 722 l -162 722 q -162 693 -147 674 q -133 655 -106 655 l -106 655 q -77 655 -62 674 q -47 693 -47 722 l -47 722 q -47 751 -62 769 q -77 787 -106 787 l -106 787 q -133 787 -147 769 q -162 751 -162 722 z"},"ഽ":{"ha":430,"x_min":-75,"x_max":505,"o":"m 345 792 l 345 792 q 391 792 423 774 q 455 755 476 722 q 496 689 505 647 l 505 647 l 422 631 q 415 657 406 678 q 396 699 382 711 q 367 723 343 723 l 343 723 q 323 723 308 716 q 292 708 282 694 l 282 694 q 270 676 264 645 q 258 614 258 557 l 258 557 l 258 -12 q 258 -78 247 -122 q 236 -167 208 -198 l 208 -198 q 187 -220 158 -232 q 128 -244 84 -244 l 84 -244 q 39 -244 7 -225 q -25 -206 -45 -173 q -65 -140 -75 -99 l -75 -99 l 9 -83 q 16 -109 25 -130 q 34 -151 49 -163 q 64 -175 87 -175 l 87 -175 q 109 -175 124 -167 q 138 -160 148 -146 l 148 -146 q 161 -128 167 -99 q 172 -70 172 -18 l 172 -18 l 172 551 q 172 629 183 672 q 193 714 221 744 l 221 744 q 241 766 272 779 q 303 792 345 792 z"},"ാ":{"ha":464,"x_min":16,"x_max":424,"o":"m 424 279 l 424 279 q 424 218 414 166 q 403 113 379 73 q 355 33 315 11 q 275 -12 215 -12 l 215 -12 q 167 -12 132 4 q 97 20 74 47 q 50 74 36 106 q 22 138 16 169 l 16 169 l 100 186 q 107 159 119 129 q 131 98 154 78 q 176 57 212 57 l 212 57 q 258 57 286 84 q 313 111 326 161 q 339 210 339 278 l 339 278 q 339 346 326 395 q 313 444 286 471 q 259 497 217 497 l 217 497 q 182 497 159 478 q 136 458 123 429 q 110 399 103 370 l 103 370 l 20 387 q 28 419 43 451 q 58 483 82 509 q 106 535 141 551 q 175 566 223 566 l 223 566 q 280 566 318 544 q 356 521 380 482 q 403 442 414 390 q 424 338 424 279 z"},"ി":{"ha":217,"x_min":-197,"x_max":150,"o":"m -30 843 l -30 843 q 6 843 35 834 q 63 825 84 807 l 84 807 q 109 787 124 759 q 138 731 144 689 q 150 646 150 581 l 150 581 l 150 0 l 67 0 l 67 549 q 67 602 65 640 q 62 678 56 704 q 49 730 37 745 l 37 745 q 26 759 10 767 q -6 774 -28 774 l -28 774 q -49 774 -68 765 q -88 756 -101 736 q -114 716 -114 681 l -114 681 q -114 672 -112 661 q -111 649 -110 640 l -110 640 l -191 626 q -193 638 -195 652 q -197 666 -197 679 l -197 679 q -197 734 -174 770 q -151 806 -112 825 q -74 843 -30 843 z"},"ീ":{"ha":217,"x_min":-262,"x_max":150,"o":"m -94 843 l -94 843 q -50 843 -9 833 q 31 822 64 798 l 64 798 q 114 763 132 704 q 150 645 150 552 l 150 552 l 150 0 l 67 0 l 67 533 q 67 576 65 609 q 63 642 58 668 q 52 693 42 712 l 42 712 q 22 752 -12 766 q -47 780 -103 780 l -103 780 q -123 780 -143 773 q -163 765 -175 749 q -188 732 -188 706 l -188 706 q -188 678 -174 661 q -160 644 -130 644 l -130 644 q -97 644 -83 663 q -69 682 -69 708 l -69 708 q -69 732 -78 754 q -88 776 -106 790 l -106 790 l -23 774 q -15 764 -9 746 q -3 727 -3 704 l -3 704 q -3 670 -15 642 q -28 613 -56 596 q -85 578 -133 578 l -133 578 q -167 578 -196 593 q -226 607 -244 636 q -262 665 -262 708 l -262 708 q -262 747 -242 778 q -222 808 -184 826 q -147 843 -94 843 z"},"ു":{"ha":307,"x_min":-22,"x_max":310,"o":"m 145 -227 l 145 -227 q 68 -227 23 -180 q -22 -133 -22 -53 l -22 -53 q -22 0 -1 39 q 20 77 58 99 q 96 120 144 120 l 144 120 q 193 120 231 100 q 268 79 289 41 q 310 2 310 -53 l 310 -53 q 310 -107 289 -146 q 268 -185 231 -206 q 194 -227 145 -227 z m 145 -162 l 145 -162 q 182 -162 207 -134 q 231 -107 231 -53 l 231 -53 q 231 0 207 28 q 183 55 144 55 l 144 55 q 105 55 81 28 q 57 1 57 -54 l 57 -54 q 57 -107 82 -134 q 106 -162 145 -162 z m 99 566 l 99 566 q 155 566 187 544 q 219 521 233 484 q 246 447 246 404 l 246 404 q 246 342 230 257 q 213 172 187 84 l 187 84 l 110 99 q 133 185 147 259 q 160 333 160 398 l 160 398 q 160 440 145 468 q 130 495 87 495 l 87 495 q 72 495 57 493 q 42 491 31 487 l 31 487 l 15 555 q 30 560 52 563 q 73 566 99 566 z"},"ൂ":{"ha":307,"x_min":-22,"x_max":310,"o":"m 144 -227 l 144 -227 q 67 -227 23 -180 q -22 -133 -22 -53 l -22 -53 q -22 0 -1 39 q 20 77 58 99 q 95 120 144 120 l 144 120 q 193 120 231 100 q 268 79 289 41 q 310 2 310 -53 l 310 -53 q 310 -107 289 -146 q 268 -185 231 -206 q 193 -227 144 -227 z m 143 59 l 143 59 q 101 59 72 31 q 42 3 42 -54 l 42 -54 q 42 -110 71 -137 q 100 -165 144 -165 l 144 -165 q 187 -165 217 -137 q 246 -109 246 -54 l 246 -54 q 246 3 217 31 q 187 59 143 59 z m 143 -97 l 143 -97 q 90 -97 66 -65 q 41 -33 41 15 l 41 15 q 41 35 51 55 q 60 74 78 97 l 78 97 l 119 68 q 101 60 93 47 q 85 33 85 18 l 85 18 q 85 4 92 -7 q 98 -19 111 -25 q 124 -31 144 -31 l 144 -31 q 162 -31 175 -25 q 188 -19 195 -8 q 202 3 202 18 l 202 18 q 202 32 195 44 q 187 56 170 64 l 170 64 l 212 97 q 231 73 240 55 q 248 37 248 16 l 248 16 q 248 -12 239 -38 q 229 -64 207 -80 q 184 -97 143 -97 z m 100 566 l 100 566 q 155 566 187 544 q 219 521 233 484 q 246 447 246 404 l 246 404 q 246 342 230 257 q 213 172 187 84 l 187 84 l 110 99 q 133 185 147 259 q 160 333 160 398 l 160 398 q 160 440 145 468 q 130 495 87 495 l 87 495 q 73 495 58 493 q 42 491 31 487 l 31 487 l 15 555 q 30 560 52 563 q 74 566 100 566 z"},"ൃ":{"ha":229,"x_min":-136,"x_max":224,"o":"m 30 -316 l 30 -316 q -17 -316 -54 -299 q -91 -282 -113 -249 q -136 -216 -136 -169 l -136 -169 q -136 -105 -93 -67 q -50 -29 22 -29 l 22 -29 q 62 -29 104 -44 q 145 -59 186 -100 l 186 -100 l 166 -160 q 131 -126 97 -112 q 63 -98 27 -98 l 27 -98 q -9 -98 -32 -116 q -55 -134 -55 -172 l -55 -172 q -55 -209 -32 -228 q -9 -247 31 -247 l 31 -247 q 65 -247 90 -234 q 115 -222 129 -194 q 143 -167 143 -124 l 143 -124 q 143 -88 136 -55 q 128 -22 116 14 q 104 49 90 88 l 90 88 q 72 136 58 188 q 43 239 43 301 l 43 301 q 43 365 63 431 q 82 497 111 554 l 111 554 l 198 554 q 173 506 158 465 q 142 424 135 386 q 128 347 128 305 l 128 305 q 128 248 141 202 q 153 156 171 106 l 171 106 q 187 63 199 26 q 211 -12 218 -47 q 224 -83 224 -122 l 224 -122 q 224 -191 197 -234 q 170 -277 126 -296 q 82 -316 30 -316 z"},"ൄ":{"ha":229,"x_min":-245,"x_max":224,"o":"m -19 -316 l -19 -316 q -89 -316 -140 -298 q -191 -280 -218 -243 q -245 -207 -245 -152 l -245 -152 q -245 -100 -214 -68 q -184 -37 -135 -37 l -135 -37 q -105 -37 -84 -50 q -64 -63 -54 -86 l -54 -86 l -60 -85 q -47 -62 -27 -49 q -7 -37 22 -37 l 22 -37 q 52 -37 71 -48 q 90 -59 100 -76 q 109 -93 113 -112 q 116 -132 116 -148 l 116 -148 l 116 -176 l 52 -176 l 52 -164 q 52 -132 44 -116 q 36 -101 15 -101 l 15 -101 q -10 -101 -17 -118 q -25 -135 -25 -162 l -25 -162 l -25 -176 l -89 -176 l -89 -163 q -89 -133 -97 -117 q -105 -101 -128 -101 l -128 -101 q -148 -101 -159 -114 q -171 -128 -171 -153 l -171 -153 q -171 -201 -132 -224 q -93 -247 -18 -247 l -18 -247 q 53 -247 97 -217 q 140 -187 140 -124 l 140 -124 q 140 -89 134 -56 q 127 -23 115 13 q 103 48 89 87 l 89 87 q 71 135 57 188 q 43 240 43 301 l 43 301 q 43 365 63 431 q 82 497 111 554 l 111 554 l 198 554 q 173 506 158 465 q 142 424 135 386 q 128 347 128 305 l 128 305 q 128 248 141 202 q 153 156 171 107 l 171 107 q 187 63 199 25 q 211 -13 218 -48 q 224 -84 224 -123 l 224 -123 q 224 -190 191 -233 q 158 -276 103 -296 q 48 -316 -19 -316 z"},"െ":{"ha":654,"x_min":38,"x_max":616,"o":"m 218 -12 l 218 -12 q 170 -12 129 14 q 88 39 63 93 q 38 147 38 233 l 38 233 q 38 312 61 374 q 84 435 125 478 q 166 521 222 544 q 277 566 342 566 l 342 566 q 412 566 464 545 q 516 523 550 485 q 584 446 600 395 q 616 343 616 284 l 616 284 q 616 213 598 159 q 579 104 547 63 q 515 22 472 -9 l 472 -9 l 421 51 q 450 72 475 103 q 500 134 515 177 q 530 219 530 274 l 530 274 q 530 343 508 393 q 485 442 443 469 q 400 495 338 495 l 338 495 q 275 495 225 462 q 174 428 146 368 q 117 308 117 229 l 117 229 q 117 169 130 131 q 143 92 166 75 q 189 57 220 57 l 220 57 q 242 57 259 68 q 275 79 285 102 q 294 124 294 158 l 294 158 q 294 209 271 234 q 248 259 210 259 l 210 259 q 176 259 147 242 q 117 224 90 193 l 90 193 l 72 251 q 99 284 140 306 q 181 327 226 327 l 226 327 q 272 327 305 309 q 338 290 357 254 q 375 217 375 163 l 375 163 q 375 107 356 68 q 337 28 302 8 q 267 -12 218 -12 z"},"േ":{"ha":547,"x_min":38,"x_max":512,"o":"m 330 -12 l 330 -12 q 272 -12 219 5 q 166 22 126 58 q 85 94 62 150 q 38 205 38 281 l 38 281 q 38 355 63 409 q 87 463 129 498 q 171 533 224 550 q 277 566 335 566 l 335 566 q 397 566 436 548 q 475 530 494 499 q 512 468 512 430 l 512 430 q 512 387 495 359 q 477 330 448 315 q 419 300 384 300 l 384 300 q 335 300 306 318 q 276 335 263 365 q 250 395 250 429 l 250 429 q 250 450 257 470 q 263 489 271 501 l 271 501 l 356 516 q 339 502 330 479 q 320 456 320 431 l 320 431 q 320 408 333 387 q 346 365 380 365 l 380 365 q 410 365 424 383 q 437 401 437 428 l 437 428 q 437 467 413 486 q 388 504 355 504 l 355 504 q 343 504 330 504 q 316 504 304 502 l 304 502 q 249 497 209 469 q 168 441 146 393 q 124 345 124 280 l 124 280 q 124 217 146 167 q 167 117 206 88 q 245 58 297 53 l 297 53 q 309 52 323 51 q 337 50 346 50 l 346 50 q 371 50 390 59 q 409 67 421 85 q 432 102 432 128 l 432 128 q 432 154 419 172 q 405 190 375 190 l 375 190 q 341 190 328 169 q 314 147 314 124 l 314 124 q 314 98 324 76 q 333 53 350 39 l 350 39 l 267 53 q 257 66 251 86 q 245 106 245 129 l 245 129 q 245 163 258 191 q 271 219 300 237 q 328 255 375 255 l 375 255 q 412 255 442 241 q 471 227 489 198 q 507 169 507 126 l 507 126 q 507 87 489 56 q 470 24 431 6 q 391 -12 330 -12 z"},"ൈ":{"ha":1308,"x_min":38,"x_max":1270,"o":"m 218 -12 l 218 -12 q 170 -12 129 14 q 88 39 63 93 q 38 147 38 233 l 38 233 q 38 312 61 374 q 84 435 125 478 q 166 521 222 544 q 277 566 342 566 l 342 566 q 412 566 464 545 q 516 523 550 485 q 584 446 600 395 q 616 343 616 284 l 616 284 q 616 213 598 159 q 579 104 547 63 q 515 22 472 -9 l 472 -9 l 421 51 q 450 72 475 103 q 500 134 515 177 q 530 219 530 274 l 530 274 q 530 343 508 393 q 485 442 443 469 q 400 495 338 495 l 338 495 q 275 495 225 462 q 174 428 146 368 q 117 308 117 229 l 117 229 q 117 169 130 131 q 143 92 166 75 q 189 57 220 57 l 220 57 q 242 57 259 68 q 275 79 285 102 q 294 124 294 158 l 294 158 q 294 209 271 234 q 248 259 210 259 l 210 259 q 176 259 147 242 q 117 224 90 193 l 90 193 l 72 251 q 99 284 140 306 q 181 327 226 327 l 226 327 q 272 327 305 309 q 338 290 357 254 q 375 217 375 163 l 375 163 q 375 107 356 68 q 337 28 302 8 q 267 -12 218 -12 z m 871 -12 l 871 -12 q 823 -12 782 14 q 741 39 716 93 q 691 147 691 233 l 691 233 q 691 312 714 374 q 737 435 778 478 q 819 521 875 544 q 930 566 995 566 l 995 566 q 1065 566 1117 545 q 1169 523 1203 485 q 1237 446 1253 395 q 1269 343 1269 284 l 1269 284 q 1269 213 1251 159 q 1232 104 1200 63 q 1168 22 1125 -9 l 1125 -9 l 1074 51 q 1103 72 1128 103 q 1153 134 1168 177 q 1183 219 1183 274 l 1183 274 q 1183 343 1161 393 q 1138 442 1096 469 q 1053 495 991 495 l 991 495 q 928 495 878 462 q 827 428 799 368 q 770 308 770 229 l 770 229 q 770 169 783 131 q 796 92 819 75 q 842 57 873 57 l 873 57 q 895 57 912 68 q 928 79 938 102 q 947 124 947 158 l 947 158 q 947 209 924 234 q 901 259 863 259 l 863 259 q 829 259 800 242 q 770 224 743 193 l 743 193 l 725 251 q 752 284 793 306 q 834 327 879 327 l 879 327 q 925 327 958 309 q 991 290 1010 254 q 1028 217 1028 163 l 1028 163 q 1028 107 1009 68 q 990 28 955 8 q 920 -12 871 -12 z"},"ൊ":{"ha":1303,"x_min":38,"x_max":1263,"o":"m 218 -12 l 218 -12 q 170 -12 129 14 q 88 39 63 93 q 38 147 38 233 l 38 233 q 38 312 61 374 q 84 435 125 478 q 166 521 222 544 q 277 566 342 566 l 342 566 q 412 566 464 545 q 516 523 550 485 q 584 446 600 395 q 616 343 616 284 l 616 284 q 616 213 598 159 q 579 104 547 63 q 515 22 472 -9 l 472 -9 l 421 51 q 450 72 475 103 q 500 134 515 177 q 530 219 530 274 l 530 274 q 530 343 508 393 q 485 442 443 469 q 400 495 338 495 l 338 495 q 275 495 225 462 q 174 428 146 368 q 117 308 117 229 l 117 229 q 117 169 130 131 q 143 92 166 75 q 189 57 220 57 l 220 57 q 242 57 259 68 q 275 79 285 102 q 294 124 294 158 l 294 158 q 294 209 271 234 q 248 259 210 259 l 210 259 q 176 259 147 242 q 117 224 90 193 l 90 193 l 72 251 q 99 284 140 306 q 181 327 226 327 l 226 327 q 272 327 305 309 q 338 290 357 254 q 375 217 375 163 l 375 163 q 375 107 356 68 q 337 28 302 8 q 267 -12 218 -12 z m 750 233 l 750 233 q 724 233 708 249 q 691 265 691 300 l 691 300 q 691 335 708 351 q 724 366 750 366 l 750 366 q 776 366 793 351 q 809 336 809 300 l 809 300 q 809 265 792 249 q 775 233 750 233 z m 1263 279 l 1263 279 q 1263 218 1253 166 q 1242 113 1218 73 q 1194 33 1154 11 q 1114 -12 1054 -12 l 1054 -12 q 1006 -12 971 4 q 936 20 913 47 q 889 74 875 106 q 861 138 855 169 l 855 169 l 939 186 q 946 159 958 129 q 970 98 993 78 q 1015 57 1051 57 l 1051 57 q 1097 57 1125 84 q 1152 111 1165 161 q 1178 210 1178 278 l 1178 278 q 1178 346 1165 395 q 1152 444 1125 471 q 1098 497 1056 497 l 1056 497 q 1021 497 998 478 q 975 458 962 429 q 949 399 942 370 l 942 370 l 859 387 q 867 419 882 451 q 897 483 921 509 q 945 535 980 551 q 1014 566 1062 566 l 1062 566 q 1119 566 1157 544 q 1195 521 1219 482 q 1242 442 1253 390 q 1263 338 1263 279 z"},"ോ":{"ha":1182,"x_min":38,"x_max":1142,"o":"m 330 -12 l 330 -12 q 272 -12 219 5 q 166 22 126 58 q 85 94 62 150 q 38 205 38 281 l 38 281 q 38 355 63 409 q 87 463 129 498 q 171 533 224 550 q 277 566 335 566 l 335 566 q 397 566 436 548 q 475 530 494 499 q 512 468 512 430 l 512 430 q 512 387 495 359 q 477 330 448 315 q 419 300 384 300 l 384 300 q 335 300 306 318 q 276 335 263 365 q 250 395 250 429 l 250 429 q 250 450 257 470 q 263 489 271 501 l 271 501 l 356 516 q 339 502 330 479 q 320 456 320 431 l 320 431 q 320 408 333 387 q 346 365 380 365 l 380 365 q 410 365 424 383 q 437 401 437 428 l 437 428 q 437 467 413 486 q 388 504 355 504 l 355 504 q 343 504 330 504 q 316 504 304 502 l 304 502 q 249 497 209 469 q 168 441 146 393 q 124 345 124 280 l 124 280 q 124 217 146 167 q 167 117 206 88 q 245 58 297 53 l 297 53 q 309 52 323 51 q 337 50 346 50 l 346 50 q 371 50 390 59 q 409 67 421 85 q 432 102 432 128 l 432 128 q 432 154 419 172 q 405 190 375 190 l 375 190 q 341 190 328 169 q 314 147 314 124 l 314 124 q 314 98 324 76 q 333 53 350 39 l 350 39 l 267 53 q 257 66 251 86 q 245 106 245 129 l 245 129 q 245 163 258 191 q 271 219 300 237 q 328 255 375 255 l 375 255 q 412 255 442 241 q 471 227 489 198 q 507 169 507 126 l 507 126 q 507 87 489 56 q 470 24 431 6 q 391 -12 330 -12 z m 630 233 l 630 233 q 604 233 588 249 q 571 265 571 300 l 571 300 q 571 335 588 351 q 604 366 630 366 l 630 366 q 656 366 673 351 q 689 336 689 300 l 689 300 q 689 265 672 249 q 655 233 630 233 z m 1142 279 l 1142 279 q 1142 218 1132 166 q 1121 113 1097 73 q 1073 33 1033 11 q 993 -12 933 -12 l 933 -12 q 885 -12 850 4 q 815 20 792 47 q 768 74 754 106 q 740 138 734 169 l 734 169 l 818 186 q 825 159 837 129 q 849 98 872 78 q 894 57 930 57 l 930 57 q 976 57 1004 84 q 1031 111 1044 161 q 1057 210 1057 278 l 1057 278 q 1057 346 1044 395 q 1031 444 1004 471 q 977 497 935 497 l 935 497 q 900 497 877 478 q 854 458 841 429 q 828 399 821 370 l 821 370 l 738 387 q 746 419 761 451 q 776 483 800 509 q 824 535 859 551 q 893 566 941 566 l 941 566 q 998 566 1036 544 q 1074 521 1098 482 q 1121 442 1132 390 q 1142 338 1142 279 z"},"ൌ":{"ha":1538,"x_min":38,"x_max":1499,"o":"m 218 -12 l 218 -12 q 170 -12 129 14 q 88 39 63 93 q 38 147 38 233 l 38 233 q 38 312 61 374 q 84 435 125 478 q 166 521 222 544 q 277 566 342 566 l 342 566 q 412 566 464 545 q 516 523 550 485 q 584 446 600 395 q 616 343 616 284 l 616 284 q 616 213 598 159 q 579 104 547 63 q 515 22 472 -9 l 472 -9 l 421 51 q 450 72 475 103 q 500 134 515 177 q 530 219 530 274 l 530 274 q 530 343 508 393 q 485 442 443 469 q 400 495 338 495 l 338 495 q 275 495 225 462 q 174 428 146 368 q 117 308 117 229 l 117 229 q 117 169 130 131 q 143 92 166 75 q 189 57 220 57 l 220 57 q 242 57 259 68 q 275 79 285 102 q 294 124 294 158 l 294 158 q 294 209 271 234 q 248 259 210 259 l 210 259 q 176 259 147 242 q 117 224 90 193 l 90 193 l 72 251 q 99 284 140 306 q 181 327 226 327 l 226 327 q 272 327 305 309 q 338 290 357 254 q 375 217 375 163 l 375 163 q 375 107 356 68 q 337 28 302 8 q 267 -12 218 -12 z m 750 233 l 750 233 q 724 233 708 249 q 691 265 691 300 l 691 300 q 691 335 708 351 q 724 366 750 366 l 750 366 q 776 366 793 351 q 809 336 809 300 l 809 300 q 809 265 792 249 q 775 233 750 233 z m 1313 566 l 1313 566 q 1372 566 1414 535 q 1455 504 1478 446 q 1500 387 1500 305 l 1500 305 q 1500 200 1470 129 q 1440 58 1383 23 q 1325 -12 1242 -12 l 1242 -12 q 1183 -12 1135 0 q 1087 11 1040 36 l 1040 36 l 1081 102 q 1115 83 1152 72 q 1188 60 1237 60 l 1237 60 q 1304 60 1343 90 q 1382 120 1398 175 q 1414 230 1414 305 l 1414 305 q 1414 403 1386 449 q 1357 495 1309 495 l 1309 495 q 1284 495 1268 487 q 1251 478 1241 462 l 1241 462 q 1230 445 1227 420 q 1223 395 1223 345 l 1223 345 l 1223 259 l 1140 259 l 1140 341 q 1140 385 1136 414 q 1132 443 1121 459 l 1121 459 q 1110 478 1093 487 q 1076 495 1054 495 l 1054 495 q 1008 495 985 463 q 962 430 962 380 l 962 380 q 962 346 966 320 q 970 294 976 272 l 976 272 l 898 255 q 889 284 884 319 q 878 353 878 385 l 878 385 q 878 434 897 475 q 915 516 954 541 q 992 566 1050 566 l 1050 566 q 1099 566 1132 545 q 1164 524 1185 484 l 1185 484 l 1173 485 q 1199 529 1233 548 q 1267 566 1313 566 z"},"്":{"ha":0,"x_min":-268,"x_max":62,"o":"m -103 591 l -103 591 q -157 591 -194 612 q -231 632 -249 668 q -268 703 -268 751 l -268 751 q -268 770 -265 788 q -262 806 -258 818 l -258 818 l -186 805 q -190 794 -191 780 q -193 766 -193 752 l -193 752 q -193 717 -180 696 q -168 675 -148 667 q -128 658 -103 658 l -103 658 q -77 658 -57 667 q -37 675 -25 696 q -13 717 -13 753 l -13 753 q -13 766 -15 780 q -17 794 -20 805 l -20 805 l 52 818 q 56 806 59 788 q 62 770 62 751 l 62 751 q 62 704 43 668 q 24 632 -12 612 q -49 591 -103 591 z"},"ൎ":{"ha":0,"x_min":-334,"x_max":-235,"o":"m -334 809 l -235 809 l -243 627 l -325 627 l -334 809 z"},"൏":{"ha":1141,"x_min":46,"x_max":1098,"o":"m 537 566 l 537 566 q 613 566 658 540 q 703 514 736 470 l 736 470 l 723 477 q 751 524 790 545 q 828 566 882 566 l 882 566 q 952 566 1001 528 q 1049 489 1074 416 q 1098 342 1098 234 l 1098 234 q 1098 81 1044 -22 q 990 -126 875 -178 q 759 -230 575 -230 l 575 -230 q 450 -230 360 -206 q 270 -182 209 -138 q 148 -95 113 -36 q 77 22 62 91 q 46 159 46 234 l 46 234 q 46 307 63 382 q 79 456 112 535 l 112 535 l 188 505 q 157 438 143 368 q 129 298 129 237 l 129 237 q 129 179 139 123 q 149 66 176 16 q 203 -35 253 -73 q 302 -111 381 -132 q 460 -154 575 -154 l 575 -154 q 697 -154 781 -129 q 865 -104 916 -54 q 967 -4 990 69 q 1013 142 1013 237 l 1013 237 q 1013 320 998 378 q 982 436 953 466 q 923 495 880 495 l 880 495 q 849 495 828 484 q 807 473 792 450 l 792 450 q 779 430 773 398 q 767 365 767 303 l 767 303 l 767 0 l 683 0 l 683 313 q 683 370 674 404 q 665 438 644 459 l 644 459 q 626 477 601 486 q 576 495 537 495 l 537 495 q 473 495 426 463 q 379 430 354 373 q 328 316 328 243 l 328 243 l 328 226 q 328 168 341 131 q 354 93 377 75 q 400 57 430 57 l 430 57 q 453 57 470 68 q 486 79 496 101 q 505 123 505 157 l 505 157 q 505 209 482 234 q 459 259 421 259 l 421 259 q 387 259 357 241 q 327 223 300 193 l 300 193 l 283 251 q 310 284 351 306 q 392 327 437 327 l 437 327 q 482 327 516 309 q 549 290 568 254 q 586 217 586 163 l 586 163 q 586 107 567 68 q 548 28 513 8 q 478 -12 430 -12 l 430 -12 q 382 -12 341 14 q 299 39 274 95 q 249 151 249 241 l 249 241 q 249 349 288 421 q 326 493 391 530 q 456 566 537 566 z"},"ൔ":{"ha":590,"x_min":57,"x_max":581,"o":"m 160 792 l 160 792 q 193 792 218 784 q 243 775 259 761 l 259 761 q 283 741 291 714 q 299 686 299 642 l 299 642 l 299 519 q 299 471 305 432 q 311 392 329 355 q 347 318 382 275 l 382 275 l 404 252 q 435 215 479 170 q 522 125 581 67 l 581 67 l 548 0 l 57 0 l 57 273 q 57 326 65 367 q 73 408 89 440 q 104 471 128 495 l 128 495 q 162 529 206 548 q 249 566 304 566 l 304 566 q 358 566 396 542 q 433 517 453 477 q 472 437 472 389 l 472 389 q 472 347 457 305 q 441 263 413 224 l 413 224 l 397 205 q 376 179 351 153 q 326 127 297 100 q 268 73 235 46 l 235 46 l 233 64 q 259 66 285 68 q 310 69 333 69 l 333 69 l 425 69 q 439 69 456 69 q 472 68 489 68 q 505 67 518 65 l 518 65 l 486 62 q 446 101 413 135 q 380 168 354 199 l 354 199 l 334 220 q 287 275 262 321 q 237 367 228 414 q 218 460 218 518 l 218 518 l 218 631 q 218 661 213 679 q 208 696 195 705 l 195 705 q 187 713 175 717 q 163 720 147 720 l 147 720 q 128 720 110 717 q 91 714 78 710 l 78 710 l 60 778 q 76 783 104 788 q 131 792 160 792 z m 141 253 l 141 65 l 143 66 q 186 98 224 131 q 261 163 292 197 q 322 230 344 263 l 344 263 l 360 284 q 375 310 381 337 q 387 363 387 387 l 387 387 q 387 419 375 444 q 363 469 340 483 q 317 497 284 497 l 284 497 q 242 497 215 477 q 188 456 171 421 l 171 421 q 161 402 154 378 q 147 354 144 323 q 141 292 141 253 l 141 253 z"},"ൕ":{"ha":945,"x_min":38,"x_max":906,"o":"m 621 -12 l 621 -12 q 588 -12 560 -8 q 531 -4 506 5 q 480 14 455 28 l 455 28 q 449 31 441 36 q 433 41 427 45 l 427 45 q 379 82 348 129 q 317 175 303 229 q 288 283 288 343 l 288 343 q 288 381 298 416 q 307 451 323 479 l 323 479 l 333 492 q 350 516 373 532 q 396 548 424 557 q 451 566 482 566 l 482 566 q 573 566 624 505 q 674 444 674 337 l 674 337 q 674 275 658 221 q 642 167 612 124 q 582 80 540 49 l 540 49 q 533 44 526 39 q 518 34 510 29 l 510 29 q 473 8 432 -2 q 390 -12 344 -12 l 344 -12 q 271 -12 214 14 q 157 39 118 86 q 79 132 59 195 q 38 257 38 332 l 38 332 q 38 404 63 456 q 87 508 133 537 q 178 566 239 566 l 239 566 q 291 566 328 547 q 364 528 394 493 l 394 493 l 335 440 q 320 465 298 481 q 275 497 242 497 l 242 497 q 207 497 180 479 q 153 461 138 424 q 123 387 123 331 l 123 331 q 123 254 149 192 q 175 129 226 92 q 276 55 350 55 l 350 55 q 372 55 394 58 q 415 60 434 67 l 434 67 q 444 70 453 74 q 462 78 470 82 l 470 82 q 504 103 531 141 q 558 178 574 229 q 589 279 589 336 l 589 336 q 589 396 574 432 q 559 467 535 482 q 510 497 482 497 l 482 497 q 449 497 424 479 q 399 461 386 425 q 373 389 373 337 l 373 337 q 373 287 387 237 q 401 187 429 146 q 456 105 493 81 l 493 81 q 502 77 509 76 q 516 74 524 70 l 524 70 q 540 64 562 60 q 584 55 618 55 l 618 55 q 691 55 736 81 q 780 107 801 150 q 822 193 822 243 l 822 243 q 822 290 811 326 q 800 362 782 395 q 764 427 741 461 l 741 461 q 714 503 695 535 q 676 567 666 597 q 656 627 656 663 l 656 663 q 656 690 669 720 q 681 750 712 771 q 743 792 799 792 l 799 792 q 827 792 854 788 q 880 783 895 778 l 895 778 l 877 710 q 864 715 848 718 q 831 720 811 720 l 811 720 q 773 720 757 700 q 740 679 740 654 l 740 654 q 740 631 749 610 q 757 588 774 562 q 791 536 815 499 l 815 499 q 842 459 863 419 q 883 379 895 338 q 906 296 906 252 l 906 252 q 906 205 895 165 q 883 124 860 92 q 837 59 803 36 q 768 12 723 0 q 677 -12 621 -12 z"},"ൖ":{"ha":671,"x_min":36,"x_max":635,"o":"m 198 158 l 198 158 q 198 130 208 107 q 218 84 241 71 q 264 58 303 58 l 303 58 q 359 58 375 78 q 391 98 391 126 l 391 126 q 391 164 380 196 q 368 228 352 260 q 336 292 324 328 q 312 364 312 409 l 312 409 q 312 450 329 486 q 346 522 382 544 q 417 566 472 566 l 472 566 q 531 566 567 541 q 602 515 619 476 q 635 437 635 395 l 635 395 q 635 326 604 271 q 572 215 511 183 q 449 151 358 151 l 358 151 l 337 151 q 286 151 248 159 q 209 167 174 183 l 174 183 l 146 194 q 109 215 85 246 q 60 277 48 316 q 36 354 36 398 l 36 398 q 36 439 48 481 q 60 522 88 566 l 88 566 l 154 529 q 134 493 127 463 q 119 432 119 398 l 119 398 q 119 355 130 325 q 140 295 162 272 l 162 272 l 187 256 q 213 236 253 227 q 293 218 337 218 l 337 218 l 360 218 q 426 218 469 242 q 511 265 532 306 q 552 347 552 398 l 552 398 q 552 437 535 468 q 517 498 472 498 l 472 498 q 444 498 426 486 q 408 474 400 454 q 391 433 391 407 l 391 407 q 391 366 403 331 q 415 295 431 263 q 447 230 460 196 q 472 162 472 123 l 472 123 q 472 100 465 77 q 457 53 439 33 q 421 13 388 1 q 354 -12 301 -12 l 301 -12 q 247 -12 206 7 q 165 26 142 66 q 119 106 119 168 l 119 168 q 119 212 132 255 q 145 298 167 345 q 188 391 214 442 l 214 442 q 240 492 256 529 q 272 565 280 594 q 287 622 287 647 l 287 647 q 287 679 270 700 q 253 720 215 720 l 215 720 q 196 720 179 718 q 161 715 149 710 l 149 710 l 131 779 q 147 784 173 788 q 199 792 228 792 l 228 792 q 285 792 316 771 q 347 750 359 721 q 371 691 371 664 l 371 664 q 371 636 367 612 q 362 587 352 560 q 341 532 324 497 q 307 461 281 411 l 281 411 q 263 371 247 339 q 231 307 220 278 q 209 249 204 220 q 198 191 198 158 z"},"ൗ":{"ha":696,"x_min":35,"x_max":657,"o":"m 470 566 l 470 566 q 529 566 571 535 q 612 504 635 446 q 657 387 657 305 l 657 305 q 657 200 627 129 q 597 58 540 23 q 482 -12 399 -12 l 399 -12 q 340 -12 292 0 q 244 11 197 36 l 197 36 l 238 102 q 272 83 309 72 q 345 60 394 60 l 394 60 q 461 60 500 90 q 539 120 555 175 q 571 230 571 305 l 571 305 q 571 403 543 449 q 514 495 466 495 l 466 495 q 441 495 425 487 q 408 478 398 462 l 398 462 q 387 445 384 420 q 380 395 380 345 l 380 345 l 380 259 l 297 259 l 297 341 q 297 385 293 414 q 289 443 278 459 l 278 459 q 267 478 250 487 q 233 495 211 495 l 211 495 q 165 495 142 463 q 119 430 119 380 l 119 380 q 119 346 123 320 q 127 294 133 272 l 133 272 l 55 255 q 46 284 41 319 q 35 353 35 385 l 35 385 q 35 434 54 475 q 72 516 111 541 q 149 566 207 566 l 207 566 q 256 566 289 545 q 321 524 342 484 l 342 484 l 330 485 q 356 529 390 548 q 424 566 470 566 z"},"൘":{"ha":1113,"x_min":38,"x_max":1069,"o":"m 551 -12 l 551 -12 q 502 -12 463 11 q 424 33 397 78 l 397 78 l 406 78 q 382 36 347 12 q 312 -12 254 -12 l 254 -12 q 188 -12 140 22 q 91 55 65 116 q 38 177 38 259 l 38 259 q 38 332 56 387 q 73 442 104 485 q 134 527 171 563 l 171 563 l 231 503 q 202 479 178 446 q 153 413 138 368 q 123 322 123 260 l 123 260 q 123 198 141 153 q 158 107 188 83 q 218 59 255 59 l 255 59 q 284 59 304 70 q 323 80 336 102 l 336 102 q 351 126 356 161 q 360 196 360 248 l 360 248 l 360 554 l 443 554 l 443 237 q 443 181 450 149 q 457 116 474 94 l 474 94 q 487 77 508 68 q 528 59 552 59 l 552 59 q 580 59 600 68 q 619 76 632 92 l 632 92 q 648 113 654 145 q 660 177 660 230 l 660 230 l 660 554 l 743 554 l 743 258 l 706 78 q 684 36 647 12 q 610 -12 551 -12 z m 854 -12 l 854 -12 q 802 -12 764 9 q 726 30 697 79 l 697 79 l 669 229 l 669 544 l 743 544 l 743 248 q 743 192 748 159 q 753 126 767 103 l 767 103 q 780 81 801 70 q 822 59 851 59 l 851 59 q 892 59 922 86 q 951 113 968 170 q 985 227 985 318 l 985 318 q 985 405 969 476 q 952 547 920 602 q 887 657 838 695 q 788 733 721 752 q 654 771 569 771 l 569 771 q 507 771 453 765 q 398 758 350 745 l 350 745 l 337 816 q 373 826 410 832 q 447 838 487 841 q 526 843 570 843 l 570 843 q 672 843 753 820 q 833 797 893 753 q 952 708 992 644 q 1031 580 1050 499 q 1069 417 1069 319 l 1069 319 q 1069 204 1044 131 q 1018 57 970 23 q 922 -12 854 -12 z"},"൙":{"ha":1031,"x_min":38,"x_max":1011,"o":"m 332 566 l 332 566 q 409 566 466 542 q 523 518 561 474 q 598 430 618 371 q 637 311 637 239 l 637 239 q 637 148 612 93 q 586 37 543 13 q 499 -12 444 -12 l 444 -12 q 386 -12 348 11 q 310 34 292 71 q 273 107 273 148 l 273 148 q 273 198 292 232 q 311 266 343 287 l 343 287 q 366 302 392 311 q 417 319 455 323 q 493 327 549 327 l 549 327 l 615 327 l 615 259 l 553 259 q 489 259 454 253 q 419 247 394 230 l 394 230 q 376 217 367 198 q 357 178 357 148 l 357 148 q 357 106 379 82 q 401 57 442 57 l 442 57 q 479 57 504 76 q 529 94 542 135 q 555 176 555 243 l 555 243 q 555 261 554 277 q 552 293 549 307 l 549 307 l 549 321 q 540 371 513 411 q 486 450 442 473 q 397 495 334 495 l 334 495 q 270 495 223 469 q 175 443 150 394 q 124 345 124 276 l 124 276 q 124 222 138 181 q 151 139 176 107 q 201 75 234 51 l 234 51 l 182 -9 q 143 18 111 59 q 78 99 58 155 q 38 210 38 281 l 38 281 q 38 337 56 389 q 73 440 109 480 q 145 520 201 543 q 256 566 332 566 z m 858 554 l 858 554 q 912 554 946 534 q 979 514 995 482 q 1011 450 1011 412 l 1011 412 q 1011 372 997 343 q 983 313 957 294 l 957 294 q 938 281 917 274 q 895 266 867 263 q 839 259 802 259 l 802 259 l 585 259 l 587 327 l 806 327 q 843 327 864 332 q 884 337 898 347 l 898 347 q 913 356 921 372 q 928 388 928 411 l 928 411 q 928 445 911 466 q 893 486 858 486 l 858 486 q 820 486 800 463 q 780 439 780 398 l 780 398 q 780 362 791 335 q 802 308 819 284 l 819 284 l 740 279 q 725 305 713 337 q 700 369 700 409 l 700 409 q 700 455 721 488 q 741 520 778 537 q 814 554 858 554 z"},"൚":{"ha":977,"x_min":38,"x_max":920,"o":"m 638 566 l 638 566 q 710 566 762 548 q 814 530 847 496 l 847 496 q 873 471 889 440 q 905 408 913 367 q 920 325 920 270 l 920 270 l 920 0 l 457 0 l 457 67 q 516 117 562 174 q 608 230 635 289 q 661 348 661 404 l 661 404 q 661 432 654 453 q 647 473 633 485 q 618 496 593 496 l 593 496 q 557 496 529 475 q 500 453 484 420 l 484 420 q 468 387 463 351 q 458 314 458 257 l 458 257 l 458 230 l 374 230 l 374 304 q 374 364 369 397 q 363 429 349 450 l 349 450 q 334 472 313 484 q 292 495 262 495 l 262 495 q 222 495 191 470 q 160 444 142 399 q 124 354 124 294 l 124 294 q 124 233 139 188 q 154 142 178 109 q 202 75 231 51 l 231 51 l 172 -8 q 134 27 104 69 q 73 111 56 167 q 38 222 38 295 l 38 295 q 38 376 66 437 q 93 497 144 532 q 194 566 264 566 l 264 566 q 312 566 345 550 q 377 534 399 507 q 421 479 439 444 l 439 444 l 405 441 q 428 486 463 513 q 497 540 541 553 q 584 566 638 566 z m 745 394 l 745 394 q 745 334 721 276 q 697 218 653 161 q 608 104 547 45 l 547 45 l 541 64 q 567 66 596 68 q 624 69 648 69 l 648 69 l 837 69 l 837 260 q 837 331 824 379 q 810 426 781 455 q 752 483 703 496 l 703 496 l 705 502 q 723 481 734 456 q 745 430 745 394 z"},"൛":{"ha":876,"x_min":67,"x_max":838,"o":"m 563 -12 l 563 -12 q 496 -12 446 10 q 395 31 362 70 q 329 108 313 160 q 296 211 296 270 l 296 270 q 296 323 308 365 q 320 407 340 441 q 359 474 383 501 l 383 501 l 400 485 l 151 485 l 151 0 l 67 0 l 67 554 l 448 554 l 483 496 q 458 476 435 447 q 411 417 397 376 q 383 334 383 279 l 383 279 q 383 213 405 163 q 426 113 468 86 q 509 59 566 59 l 566 59 q 624 59 666 87 q 707 115 729 165 q 751 214 751 278 l 751 278 q 751 331 738 373 q 724 415 700 447 q 675 479 642 503 l 642 503 l 694 563 q 733 537 766 496 q 798 455 818 400 q 838 344 838 273 l 838 273 q 838 213 821 161 q 803 109 768 71 q 733 32 682 10 q 631 -12 563 -12 z"},"൜":{"ha":1381,"x_min":38,"x_max":1342,"o":"m 831 566 l 831 566 q 874 566 908 555 q 941 543 965 516 l 965 516 q 980 500 991 477 q 1001 454 1008 417 q 1014 379 1014 316 l 1014 316 l 1014 257 q 1014 199 1019 160 q 1024 121 1040 97 l 1040 97 q 1052 79 1072 69 q 1091 59 1126 59 l 1126 59 q 1166 59 1195 84 q 1224 108 1240 154 q 1256 200 1256 261 l 1256 261 q 1256 321 1242 367 q 1227 413 1203 448 q 1179 483 1148 508 l 1148 508 l 1205 566 q 1248 528 1279 484 q 1309 439 1326 384 q 1342 329 1342 258 l 1342 258 q 1342 173 1316 113 q 1289 52 1240 20 q 1191 -12 1124 -12 l 1124 -12 q 1073 -12 1038 3 q 1003 17 979 44 l 979 44 q 960 64 949 90 q 938 116 934 149 q 930 182 930 225 l 930 225 l 930 316 q 930 376 924 411 q 918 446 901 466 l 901 466 q 888 481 870 488 q 852 495 831 495 l 831 495 q 810 495 792 489 q 773 482 761 467 l 761 467 q 744 446 738 410 q 732 374 732 310 l 732 310 l 732 239 q 732 179 726 140 q 720 101 710 78 q 699 55 684 39 l 684 39 q 660 12 628 0 q 595 -12 549 -12 l 549 -12 q 505 -12 472 0 q 439 12 415 38 l 415 38 q 401 55 390 78 q 379 101 373 140 q 366 178 366 238 l 366 238 l 366 297 q 366 356 362 395 q 357 434 340 457 l 340 457 q 329 475 310 485 q 290 495 254 495 l 254 495 q 215 495 186 471 q 156 446 140 401 q 124 356 124 294 l 124 294 q 124 234 138 188 q 152 142 177 108 q 201 73 232 47 l 232 47 l 175 -11 q 133 27 102 72 q 71 116 55 171 q 38 226 38 297 l 38 297 q 38 381 64 442 q 90 502 140 534 q 190 566 258 566 l 258 566 q 307 566 342 552 q 376 537 400 511 l 400 511 q 420 490 431 464 q 441 437 446 403 q 450 369 450 322 l 450 322 l 450 238 q 450 178 456 144 q 462 109 479 88 l 479 88 q 491 73 510 66 q 528 59 548 59 l 548 59 q 570 59 589 66 q 607 72 619 87 l 619 87 q 636 108 642 143 q 648 178 648 237 l 648 237 l 648 314 q 648 376 654 414 q 660 452 671 476 q 682 499 696 515 l 696 515 q 720 542 753 554 q 785 566 831 566 z"},"൝":{"ha":1832,"x_min":10,"x_max":1794,"o":"m 719 566 l 719 566 q 762 566 796 555 q 829 543 853 516 l 853 516 q 868 500 879 477 q 890 454 896 417 q 902 379 902 316 l 902 316 l 902 238 q 902 178 908 144 q 914 109 931 88 l 931 88 q 943 73 962 66 q 980 59 1000 59 l 1000 59 q 1022 59 1041 66 q 1059 72 1071 87 l 1071 87 q 1088 108 1094 143 q 1100 178 1100 237 l 1100 237 l 1100 314 q 1100 376 1106 414 q 1112 452 1123 476 q 1134 499 1148 515 l 1148 515 q 1172 542 1205 554 q 1237 566 1282 566 l 1282 566 q 1326 566 1360 555 q 1393 543 1417 516 l 1417 516 q 1432 500 1443 477 q 1453 454 1460 417 q 1466 379 1466 316 l 1466 316 l 1466 257 q 1466 199 1471 160 q 1476 121 1491 97 l 1491 97 q 1504 79 1524 69 q 1543 59 1578 59 l 1578 59 q 1618 59 1647 84 q 1676 108 1692 154 q 1708 200 1708 261 l 1708 261 q 1708 321 1694 367 q 1679 413 1655 448 q 1630 483 1600 508 l 1600 508 l 1657 566 q 1699 528 1730 484 q 1761 439 1778 384 q 1794 329 1794 258 l 1794 258 q 1794 173 1768 113 q 1741 52 1692 20 q 1643 -12 1576 -12 l 1576 -12 q 1525 -12 1490 3 q 1455 17 1431 44 l 1431 44 q 1412 64 1401 90 q 1390 116 1386 149 q 1382 182 1382 225 l 1382 225 l 1382 316 q 1382 376 1376 411 q 1370 446 1353 466 l 1353 466 q 1340 481 1322 488 q 1304 495 1283 495 l 1283 495 q 1262 495 1244 489 q 1225 482 1213 467 l 1213 467 q 1196 446 1190 410 q 1184 374 1184 310 l 1184 310 l 1184 239 q 1184 179 1178 140 q 1172 101 1162 78 q 1151 55 1136 39 l 1136 39 q 1112 12 1080 0 q 1047 -12 1001 -12 l 1001 -12 q 957 -12 924 0 q 891 12 867 38 l 867 38 q 853 55 842 78 q 831 101 825 140 q 818 178 818 238 l 818 238 l 818 316 q 818 376 812 411 q 806 446 789 466 l 789 466 q 777 481 759 488 q 741 495 720 495 l 720 495 q 699 495 681 489 q 662 482 649 467 l 649 467 q 632 446 627 410 q 621 374 621 310 l 621 310 l 621 224 q 621 151 610 112 q 598 72 572 43 l 572 43 q 548 16 513 2 q 478 -12 429 -12 l 429 -12 q 368 -12 329 16 q 290 44 267 93 l 267 93 l 285 81 q 268 53 247 32 q 225 11 195 0 q 165 -12 121 -12 l 121 -12 q 90 -12 63 -5 q 36 2 10 15 l 10 15 l 39 81 q 56 71 77 65 q 98 59 123 59 l 123 59 q 155 59 177 71 q 199 82 213 104 l 213 104 q 227 125 232 157 q 237 188 237 247 l 237 247 l 237 554 l 321 554 l 321 232 q 321 177 327 145 q 333 112 350 91 l 350 91 q 362 76 382 68 q 401 59 426 59 l 426 59 q 457 59 478 70 q 498 81 509 97 l 509 97 q 525 120 531 156 q 537 192 537 256 l 537 256 l 537 314 q 537 376 543 414 q 548 452 560 476 q 571 499 585 515 l 585 515 q 608 542 641 554 q 674 566 719 566 z"},"൞":{"ha":1257,"x_min":38,"x_max":1230,"o":"m 332 566 l 332 566 q 409 566 466 542 q 523 518 561 474 q 598 430 618 371 q 637 311 637 239 l 637 239 q 637 148 612 93 q 586 37 543 13 q 499 -12 444 -12 l 444 -12 q 386 -12 348 11 q 310 34 292 71 q 273 107 273 148 l 273 148 q 273 198 292 232 q 311 266 343 287 l 343 287 q 366 302 392 311 q 417 319 455 323 q 493 327 549 327 l 549 327 l 590 327 l 590 259 l 553 259 q 489 259 454 253 q 419 247 394 230 l 394 230 q 376 217 367 198 q 357 178 357 148 l 357 148 q 357 106 379 82 q 401 57 442 57 l 442 57 q 479 57 504 76 q 529 94 542 135 q 555 176 555 243 l 555 243 q 555 261 554 277 q 552 293 549 307 l 549 307 l 549 321 q 540 371 513 411 q 486 450 442 473 q 397 495 334 495 l 334 495 q 270 495 223 469 q 175 443 150 394 q 124 345 124 276 l 124 276 q 124 222 138 181 q 151 139 176 107 q 201 75 234 51 l 234 51 l 182 -9 q 143 18 111 59 q 78 99 58 155 q 38 210 38 281 l 38 281 q 38 337 56 389 q 73 440 109 480 q 145 520 201 543 q 256 566 332 566 z m 1049 208 l 1049 208 q 988 208 948 233 q 907 258 888 298 q 868 337 868 379 l 868 379 q 868 421 881 453 q 894 484 910 497 l 910 497 l 931 486 l 732 486 l 767 496 q 780 480 790 456 q 799 431 799 402 l 799 402 q 799 345 773 314 q 747 283 704 271 q 661 259 609 259 l 609 259 l 581 259 l 581 327 l 607 327 q 638 327 663 333 q 688 338 703 355 q 718 372 718 404 l 718 404 q 718 432 710 450 q 702 468 690 486 l 690 486 l 713 554 l 961 554 l 991 502 q 973 482 961 456 q 949 430 949 392 l 949 392 q 949 339 975 308 q 1000 277 1049 277 l 1049 277 q 1080 277 1103 292 q 1125 306 1137 331 q 1148 356 1148 386 l 1148 386 q 1148 424 1135 454 q 1122 483 1093 508 l 1093 508 l 1143 561 q 1180 529 1205 486 q 1230 442 1230 385 l 1230 385 q 1230 333 1208 293 q 1185 253 1145 231 q 1104 208 1049 208 z"},"ൟ":{"ha":1237,"x_min":27,"x_max":1210,"o":"m 27 268 l 27 268 q 27 326 62 362 q 97 398 153 398 l 153 398 q 209 398 244 363 q 279 327 279 268 l 279 268 q 279 210 245 174 q 210 138 153 138 l 153 138 q 96 138 62 174 q 27 210 27 268 z m 96 269 l 96 269 q 96 240 111 221 q 125 202 153 202 l 153 202 q 181 202 196 221 q 211 240 211 269 l 211 269 q 211 298 196 316 q 181 334 153 334 l 153 334 q 125 334 111 316 q 96 298 96 269 z m 958 268 l 958 268 q 958 326 993 362 q 1027 398 1083 398 l 1083 398 q 1140 398 1175 363 q 1210 327 1210 268 l 1210 268 q 1210 210 1176 174 q 1141 138 1083 138 l 1083 138 q 1026 138 992 174 q 958 210 958 268 z m 1027 269 l 1027 269 q 1027 240 1042 221 q 1056 202 1083 202 l 1083 202 q 1112 202 1127 221 q 1141 240 1141 269 l 1141 269 q 1141 298 1127 316 q 1112 334 1083 334 l 1083 334 q 1056 334 1042 316 q 1027 298 1027 269 z m 613 566 l 613 566 q 689 566 746 543 q 803 519 841 475 q 879 431 898 372 q 917 313 917 242 l 917 242 q 917 151 892 95 q 867 38 824 13 q 780 -12 724 -12 l 724 -12 q 664 -12 625 17 q 586 45 567 93 q 547 140 547 197 l 547 197 q 547 294 593 349 q 639 403 717 403 l 717 403 q 766 403 801 380 q 836 356 858 317 q 880 277 889 228 l 889 228 l 863 224 q 856 250 839 276 q 822 301 796 318 q 769 335 735 335 l 735 335 q 680 335 655 298 q 629 260 629 198 l 629 198 q 629 155 639 123 q 649 91 670 74 q 691 56 725 56 l 725 56 q 760 56 785 76 q 810 95 824 137 q 837 179 837 248 l 837 248 q 837 250 836 270 q 834 290 831 310 l 831 310 q 830 315 830 323 q 830 331 828 335 l 828 335 q 820 378 794 415 q 767 451 723 473 q 678 495 615 495 l 615 495 q 550 495 503 469 q 456 443 431 394 q 405 345 405 276 l 405 276 q 405 222 419 181 q 432 139 457 107 q 482 75 515 51 l 515 51 l 462 -9 q 424 18 392 59 q 359 99 339 155 q 319 210 319 281 l 319 281 q 319 337 337 389 q 354 440 390 480 q 426 520 482 543 q 537 566 613 566 z"},"ൠ":{"ha":801,"x_min":36,"x_max":765,"o":"m 601 566 l 601 566 q 676 566 721 512 q 765 457 765 363 l 765 363 q 765 296 745 247 q 724 197 683 160 l 683 160 q 660 138 629 124 q 598 109 555 101 l 555 101 l 428 102 l 373 102 l 266 97 q 221 104 189 116 q 156 128 132 149 l 132 149 q 85 185 61 239 q 36 292 36 359 l 36 359 q 36 422 57 469 q 78 515 118 541 q 157 566 212 566 l 212 566 q 264 566 298 544 q 332 521 348 485 q 364 449 364 406 l 364 406 q 364 361 348 327 q 332 292 300 272 q 268 252 218 252 l 218 252 q 180 252 152 264 q 123 275 102 294 q 80 312 62 332 l 62 332 l 85 389 q 100 371 116 355 q 131 339 152 329 q 173 319 204 319 l 204 319 q 248 319 267 344 q 285 369 285 408 l 285 408 q 285 446 267 472 q 248 497 208 497 l 208 497 q 176 497 155 481 q 133 465 123 435 q 112 404 112 363 l 112 363 q 112 350 113 337 q 114 324 117 311 l 117 311 l 114 295 q 127 255 150 228 q 172 201 205 185 q 238 169 282 162 q 326 155 384 155 l 384 155 l 412 155 q 474 155 520 163 q 566 170 599 186 q 631 202 653 229 q 674 256 687 296 l 687 296 l 683 312 q 685 322 687 336 q 689 349 689 357 l 689 357 q 689 405 679 436 q 668 467 648 482 q 628 497 598 497 l 598 497 q 556 497 536 471 q 516 445 516 405 l 516 405 q 516 368 535 344 q 553 319 596 319 l 596 319 q 626 319 647 329 q 668 338 684 353 q 700 368 715 384 l 715 384 l 738 330 q 721 311 700 293 q 678 275 650 264 q 621 252 582 252 l 582 252 q 532 252 500 273 q 467 293 452 328 q 437 363 437 406 l 437 406 q 437 449 454 486 q 471 522 508 544 q 544 566 601 566 z m 403 -213 l 403 -213 q 292 -213 217 -194 q 142 -175 105 -134 q 67 -93 67 -28 l 67 -28 q 67 16 90 47 q 113 77 152 97 q 190 116 240 125 q 289 134 342 134 l 342 134 l 455 134 q 510 134 560 125 q 610 116 649 97 q 688 77 711 46 q 734 14 734 -30 l 734 -30 q 734 -89 700 -130 q 665 -171 592 -192 q 519 -213 403 -213 z m 402 -146 l 402 -146 q 491 -146 545 -132 q 599 -119 624 -92 q 649 -66 649 -28 l 649 -28 q 649 7 630 30 q 611 52 578 65 q 545 78 501 83 q 457 88 405 88 l 405 88 l 392 88 q 324 88 270 78 q 216 68 184 43 q 152 17 152 -28 l 152 -28 q 152 -68 177 -94 q 201 -120 257 -133 q 312 -146 402 -146 z m 477 46 l 477 46 q 508 46 527 35 q 545 24 555 7 q 564 -11 567 -30 q 570 -50 570 -66 l 570 -66 l 570 -93 l 507 -93 l 507 -80 q 507 -48 499 -33 q 491 -18 469 -18 l 469 -18 q 448 -18 440 -33 q 432 -49 432 -77 l 432 -77 l 432 -93 l 368 -93 l 368 -78 q 368 -50 361 -34 q 353 -18 331 -18 l 331 -18 q 309 -18 302 -34 q 294 -51 294 -80 l 294 -80 l 294 -93 l 231 -93 l 231 -66 q 231 -50 234 -30 q 237 -11 247 6 q 256 23 275 35 q 293 46 324 46 l 324 46 q 353 46 371 35 q 389 24 400 5 l 400 5 q 413 25 432 36 q 450 46 477 46 z"},"ൡ":{"ha":1202,"x_min":41,"x_max":1176,"o":"m 328 566 l 328 566 q 404 566 450 540 q 496 514 532 465 l 532 465 l 545 399 l 558 242 l 558 0 l 475 0 l 475 313 q 475 370 466 404 q 457 438 435 459 l 435 459 q 417 477 393 486 q 368 495 328 495 l 328 495 q 264 495 217 463 q 170 430 145 373 q 119 316 119 243 l 119 243 l 119 226 q 119 168 132 131 q 145 93 168 75 q 191 57 222 57 l 222 57 q 244 57 261 68 q 277 79 287 101 q 296 123 296 157 l 296 157 q 296 209 274 234 q 251 259 212 259 l 212 259 q 178 259 149 241 q 119 223 92 193 l 92 193 l 75 251 q 101 284 142 306 q 183 327 229 327 l 229 327 q 274 327 307 309 q 340 290 359 254 q 377 217 377 163 l 377 163 q 377 107 358 68 q 339 28 305 8 q 270 -12 221 -12 l 221 -12 q 173 -12 132 14 q 90 39 66 95 q 41 151 41 241 l 41 241 q 41 349 79 421 q 117 493 183 530 q 248 566 328 566 z m 719 566 l 719 566 q 801 566 859 536 q 917 506 952 453 q 987 400 1000 329 l 1000 329 q 1005 305 1008 279 q 1010 253 1010 225 l 1010 225 q 1010 141 987 89 q 963 36 920 12 q 877 -12 818 -12 l 818 -12 q 758 -12 720 14 q 682 40 664 82 q 646 123 646 170 l 646 170 q 646 270 711 326 q 776 381 891 381 l 891 381 q 899 381 910 381 q 921 380 931 378 l 931 378 l 956 377 q 1025 365 1074 326 q 1123 286 1150 226 q 1176 165 1176 90 l 1176 90 q 1176 23 1158 -31 q 1140 -85 1104 -123 q 1067 -161 1013 -181 q 958 -201 886 -201 l 886 -201 q 842 -201 806 -193 q 770 -186 741 -176 l 741 -176 l 767 -109 q 793 -119 823 -124 q 853 -129 888 -129 l 888 -129 q 946 -129 985 -112 q 1024 -95 1048 -65 q 1072 -35 1083 6 q 1093 46 1093 93 l 1093 93 q 1093 145 1082 184 q 1070 223 1046 251 q 1022 279 987 297 l 987 297 l 955 303 q 938 309 921 312 q 904 314 891 314 l 891 314 q 840 314 804 299 q 768 283 749 252 q 729 221 729 171 l 729 171 q 729 141 738 115 q 747 89 767 73 q 787 57 820 57 l 820 57 q 874 57 902 98 q 929 138 929 229 l 929 229 q 929 255 927 283 q 924 310 918 336 l 918 336 l 913 359 q 901 397 877 428 q 853 459 815 477 q 777 495 721 495 l 721 495 q 689 495 659 486 q 629 477 606 457 l 606 457 q 590 442 580 421 q 569 400 564 370 q 558 340 558 296 l 558 296 l 558 205 l 504 453 q 527 487 558 513 q 588 538 628 552 q 668 566 719 566 z"},"ൢ":{"ha":0,"x_min":-741,"x_max":-33,"o":"m -532 18 l -532 18 q -480 18 -445 1 q -411 -16 -382 -48 l -382 -48 l -355 -162 l -355 -332 l -427 -332 l -427 -168 q -427 -126 -435 -101 q -443 -77 -460 -63 l -460 -63 q -472 -52 -490 -46 q -508 -40 -532 -40 l -532 -40 q -563 -40 -592 -51 q -621 -62 -642 -84 q -663 -106 -671 -140 l -671 -140 q -672 -149 -673 -159 q -675 -169 -675 -179 l -675 -179 q -675 -237 -655 -258 q -635 -279 -610 -279 l -610 -279 q -582 -279 -567 -262 q -552 -246 -552 -214 l -552 -214 q -552 -182 -567 -166 q -583 -150 -608 -150 l -608 -150 q -636 -150 -657 -163 q -679 -176 -700 -198 l -700 -198 l -711 -152 q -687 -126 -658 -109 q -629 -93 -596 -93 l -596 -93 q -542 -93 -513 -126 q -484 -160 -484 -214 l -484 -214 q -484 -270 -516 -303 q -549 -337 -610 -337 l -610 -337 q -671 -337 -705 -294 q -740 -251 -740 -174 l -740 -174 q -740 -115 -712 -72 q -685 -29 -638 -5 q -591 18 -532 18 z m -240 17 l -240 17 q -174 17 -128 -8 q -82 -33 -57 -76 q -33 -120 -33 -179 l -33 -179 q -33 -262 -71 -299 q -110 -337 -169 -337 l -169 -337 q -210 -337 -238 -319 q -267 -302 -281 -273 q -295 -244 -295 -210 l -295 -210 q -295 -170 -280 -141 q -266 -113 -239 -98 q -213 -83 -178 -83 l -178 -83 q -143 -83 -119 -98 q -96 -114 -82 -140 q -68 -166 -61 -198 l -61 -198 l -80 -201 q -91 -175 -110 -158 q -130 -141 -160 -141 l -160 -141 q -195 -141 -211 -160 q -228 -180 -228 -210 l -228 -210 q -228 -242 -213 -260 q -199 -278 -168 -278 l -168 -278 q -135 -278 -117 -253 q -100 -229 -100 -179 l -100 -179 q -100 -172 -101 -160 q -102 -148 -104 -139 l -104 -139 l -106 -124 q -110 -105 -126 -86 q -142 -67 -170 -53 q -199 -40 -239 -40 l -239 -40 q -268 -40 -289 -47 q -310 -55 -323 -67 l -323 -67 q -342 -87 -348 -112 q -355 -138 -355 -180 l -355 -180 l -417 -140 q -414 -94 -394 -59 q -374 -24 -335 -3 q -297 17 -240 17 z"},"ൣ":{"ha":0,"x_min":-741,"x_max":72,"o":"m -532 18 l -532 18 q -480 18 -445 1 q -411 -16 -382 -48 l -382 -48 l -355 -162 l -355 -332 l -427 -332 l -427 -168 q -427 -126 -435 -101 q -443 -77 -460 -63 l -460 -63 q -472 -52 -490 -46 q -508 -40 -532 -40 l -532 -40 q -563 -40 -592 -51 q -621 -62 -642 -84 q -663 -106 -671 -140 l -671 -140 q -672 -149 -673 -159 q -675 -169 -675 -179 l -675 -179 q -675 -237 -655 -258 q -635 -279 -610 -279 l -610 -279 q -582 -279 -567 -262 q -552 -246 -552 -214 l -552 -214 q -552 -182 -567 -166 q -583 -150 -608 -150 l -608 -150 q -636 -150 -657 -163 q -679 -176 -700 -198 l -700 -198 l -711 -152 q -687 -126 -658 -109 q -629 -93 -596 -93 l -596 -93 q -542 -93 -513 -126 q -484 -160 -484 -214 l -484 -214 q -484 -270 -516 -303 q -549 -337 -610 -337 l -610 -337 q -671 -337 -705 -294 q -740 -251 -740 -174 l -740 -174 q -740 -115 -712 -72 q -685 -29 -638 -5 q -591 18 -532 18 z m -240 17 l -240 17 q -183 17 -136 -4 q -90 -26 -63 -69 q -36 -113 -36 -180 l -36 -180 q -36 -235 -52 -269 q -69 -304 -99 -320 q -129 -337 -169 -337 l -169 -337 q -210 -337 -238 -321 q -267 -306 -281 -279 q -295 -252 -295 -218 l -295 -218 q -295 -158 -255 -120 q -215 -82 -129 -82 l -129 -82 q -119 -82 -107 -82 q -95 -83 -82 -84 l -82 -84 q -42 -93 -7 -114 q 28 -135 50 -172 q 72 -209 72 -265 l 72 -265 q 72 -293 66 -320 q 60 -348 48 -366 l 48 -366 l -14 -340 q -5 -325 -1 -304 q 3 -284 3 -265 l 3 -265 q 3 -217 -15 -189 q -34 -161 -64 -147 l -64 -147 l -82 -144 q -93 -142 -104 -140 q -115 -139 -126 -139 l -126 -139 q -181 -139 -204 -162 q -228 -186 -228 -219 l -228 -219 q -228 -247 -214 -262 q -200 -278 -170 -278 l -170 -278 q -137 -278 -120 -254 q -103 -230 -103 -178 l -103 -178 q -103 -162 -105 -145 q -108 -129 -113 -115 l -113 -115 l -120 -97 q -130 -81 -147 -68 q -164 -55 -187 -47 q -210 -40 -239 -40 l -239 -40 q -268 -40 -289 -47 q -310 -55 -323 -67 l -323 -67 q -342 -87 -348 -112 q -355 -138 -355 -180 l -355 -180 l -417 -140 q -414 -106 -403 -77 q -392 -49 -370 -28 q -348 -7 -315 5 q -283 17 -240 17 z"},"൦":{"ha":528,"x_min":39,"x_max":489,"o":"m 264 43 l 264 43 q 195 43 144 72 q 93 101 66 155 q 39 209 39 283 l 39 283 q 39 357 68 410 q 96 463 147 492 q 197 521 263 521 l 263 521 q 331 521 382 493 q 433 464 461 411 q 489 358 489 283 l 489 283 q 489 208 461 155 q 432 101 382 72 q 331 43 264 43 z m 264 114 l 264 114 q 303 114 335 132 q 366 149 385 187 q 404 224 404 283 l 404 283 q 404 370 364 410 q 323 450 263 450 l 263 450 q 203 450 164 410 q 124 370 124 281 l 124 281 q 124 196 164 155 q 204 114 264 114 z"},"൧":{"ha":820,"x_min":11,"x_max":760,"o":"m 356 -130 l 356 -201 l 219 -201 q 165 -201 129 -193 q 92 -186 67 -170 l 67 -170 q 40 -154 26 -128 q 11 -102 11 -68 l 11 -68 q 11 -33 24 -6 q 36 21 64 39 l 64 39 q 78 49 96 56 q 114 62 140 66 q 165 69 200 69 l 200 69 l 404 69 l 413 0 l 219 0 q 178 0 159 -3 q 139 -6 126 -12 l 126 -12 q 110 -20 103 -33 q 95 -46 95 -63 l 95 -63 q 95 -95 119 -111 l 119 -111 q 132 -121 155 -125 q 178 -130 219 -130 l 219 -130 l 356 -130 z m 534 566 l 534 566 q 590 566 631 551 q 671 535 699 508 l 699 508 q 733 475 747 427 q 760 378 760 305 l 760 305 l 760 0 l 311 0 l 311 306 q 311 356 317 393 q 323 430 337 458 q 350 486 372 508 l 372 508 q 400 535 440 551 q 480 566 534 566 z m 534 495 l 534 495 q 500 495 475 485 q 450 475 433 456 l 433 456 q 414 434 404 398 q 394 361 394 293 l 394 293 l 394 69 l 677 69 l 677 288 q 677 355 667 395 q 657 434 636 456 l 636 456 q 619 475 595 485 q 570 495 534 495 z"},"൨":{"ha":783,"x_min":38,"x_max":766,"o":"m 312 566 l 312 566 q 380 566 431 545 q 481 523 514 485 q 547 446 563 395 q 579 343 579 284 l 579 284 q 579 231 568 189 q 556 147 537 114 q 517 81 493 53 l 493 53 l 476 69 l 766 69 l 766 0 l 428 0 l 392 58 q 418 78 441 108 q 464 137 479 179 q 493 221 493 275 l 493 275 q 493 342 472 392 q 450 441 409 468 q 368 495 309 495 l 309 495 q 252 495 211 467 q 169 439 147 390 q 124 340 124 276 l 124 276 q 124 224 138 182 q 151 139 176 107 q 201 75 234 51 l 234 51 l 182 -9 q 143 17 111 58 q 78 99 58 155 q 38 210 38 281 l 38 281 q 38 342 56 394 q 73 446 108 485 q 143 523 194 545 q 245 566 312 566 z"},"൩":{"ha":984,"x_min":38,"x_max":968,"o":"m 264 566 l 264 566 q 306 566 336 553 q 365 540 387 519 q 408 497 422 469 l 422 469 l 409 471 q 439 521 478 544 q 516 566 572 566 l 572 566 q 643 566 692 531 q 741 495 767 435 q 793 374 793 297 l 793 297 q 793 240 782 197 q 771 153 753 119 q 735 85 712 56 l 712 56 l 672 0 l 645 0 l 609 50 q 634 79 657 112 q 679 144 693 189 q 707 233 707 295 l 707 295 q 707 353 691 398 q 674 443 643 469 q 612 495 571 495 l 571 495 q 539 495 518 484 q 496 473 482 450 l 482 450 q 468 430 463 398 q 457 365 457 306 l 457 306 l 457 0 l 374 0 l 374 304 q 374 363 369 396 q 363 429 349 450 l 349 450 q 334 472 313 484 q 292 495 262 495 l 262 495 q 222 495 191 470 q 160 444 142 399 q 124 354 124 294 l 124 294 q 124 233 139 188 q 154 142 178 109 q 202 75 231 51 l 231 51 l 172 -8 q 134 27 104 69 q 73 111 56 167 q 38 222 38 295 l 38 295 q 38 376 66 437 q 93 497 144 532 q 194 566 264 566 z m 655 0 l 707 69 l 968 69 l 968 0 l 655 0 z"},"൪":{"ha":727,"x_min":38,"x_max":722,"o":"m 330 566 l 330 566 q 399 566 450 545 q 500 523 539 485 l 539 485 q 589 438 619 371 q 648 304 648 222 l 648 222 q 648 144 625 92 q 601 40 557 14 q 513 -12 450 -12 l 450 -12 q 389 -12 348 13 q 307 38 286 82 q 265 125 265 179 l 265 179 q 265 243 290 293 q 314 343 364 387 q 413 431 484 476 l 484 476 q 538 509 572 531 q 606 553 621 574 q 636 594 636 620 l 636 620 q 636 641 629 659 q 621 677 610 693 l 610 693 l 689 730 q 706 708 714 682 q 722 656 722 626 l 722 626 q 722 580 699 547 q 676 514 634 486 q 592 457 532 421 l 532 421 q 470 382 430 346 q 390 310 370 270 q 350 230 350 180 l 350 180 q 350 115 379 86 q 407 57 451 57 l 451 57 q 488 57 513 74 q 537 91 549 128 q 561 164 561 220 l 561 220 q 561 280 542 338 q 523 396 481 437 l 481 437 q 455 463 418 479 q 380 495 333 495 l 333 495 q 269 495 222 469 q 175 443 150 394 q 124 345 124 276 l 124 276 q 124 222 138 181 q 151 139 176 107 q 201 75 234 51 l 234 51 l 182 -9 q 143 18 111 59 q 78 99 58 155 q 38 210 38 281 l 38 281 q 38 337 56 389 q 73 440 109 480 q 144 520 199 543 q 254 566 330 566 z"},"൫":{"ha":894,"x_min":43,"x_max":851,"o":"m 456 723 l 456 723 q 557 723 631 690 q 705 657 754 597 q 803 537 827 456 q 851 375 851 277 l 851 277 q 851 205 837 133 q 823 60 785 -11 l 785 -11 l 708 25 q 728 61 741 104 q 753 147 759 193 q 765 238 765 281 l 765 281 q 765 358 747 425 q 728 492 691 543 q 653 593 595 622 q 536 650 455 650 l 455 650 q 355 650 282 602 q 209 554 169 466 q 129 377 129 254 l 129 254 q 129 184 143 119 q 156 54 186 4 q 216 -47 267 -76 q 318 -105 391 -105 l 391 -105 q 485 -105 531 -61 q 576 -18 576 61 l 576 61 q 576 103 561 139 q 545 174 513 196 q 481 217 432 217 l 432 217 l 421 217 l 421 285 l 440 285 q 474 285 500 292 q 525 299 541 314 l 541 314 q 553 326 559 343 q 565 359 565 380 l 565 380 q 565 424 538 448 q 510 472 461 472 l 461 472 q 409 472 377 445 q 344 418 329 374 q 313 329 313 274 l 313 274 q 313 209 333 147 q 352 84 391 35 l 391 35 l 317 -8 q 274 57 252 127 q 229 196 229 274 l 229 274 q 229 354 258 415 q 286 475 339 509 q 391 543 462 543 l 462 543 q 525 543 567 522 q 608 500 629 465 q 649 430 649 388 l 649 388 q 649 354 639 327 q 629 300 605 280 q 581 259 539 244 l 539 244 l 533 253 q 596 228 628 179 q 659 130 659 62 l 659 62 q 659 -17 627 -70 q 594 -123 535 -150 q 475 -178 391 -178 l 391 -178 q 286 -178 208 -128 q 129 -78 86 19 q 43 115 43 253 l 43 253 q 43 372 76 461 q 109 549 166 607 q 223 665 298 694 q 373 723 456 723 z"},"൬":{"ha":1113,"x_min":38,"x_max":1069,"o":"m 551 566 l 551 566 q 610 566 647 543 q 684 519 706 476 l 706 476 l 743 296 l 743 0 l 660 0 l 660 324 q 660 377 654 410 q 648 442 632 462 l 632 462 q 619 478 600 487 q 580 495 552 495 l 552 495 q 528 495 508 486 q 487 477 474 460 l 474 460 q 457 439 450 406 q 443 373 443 317 l 443 317 l 443 0 l 360 0 l 360 306 q 360 359 356 394 q 351 428 336 452 l 336 452 q 323 474 304 485 q 284 495 255 495 l 255 495 q 218 495 188 471 q 158 447 141 402 q 123 356 123 294 l 123 294 q 123 233 138 188 q 153 142 178 109 q 202 75 231 51 l 231 51 l 171 -9 q 134 27 104 70 q 73 112 56 167 q 38 222 38 295 l 38 295 q 38 378 65 439 q 91 499 140 533 q 188 566 254 566 l 254 566 q 312 566 347 542 q 382 518 406 476 l 406 476 l 397 476 q 424 521 463 544 q 502 566 551 566 z m 854 566 l 854 566 q 956 566 1013 485 q 1069 403 1069 229 l 1069 229 q 1069 86 1035 -9 q 1001 -105 928 -153 q 855 -201 738 -201 l 738 -201 q 714 -201 686 -199 q 658 -197 634 -192 l 634 -192 l 642 -122 q 663 -126 686 -127 q 709 -129 735 -129 l 735 -129 q 809 -129 857 -103 q 905 -78 933 -31 q 960 16 972 82 q 983 147 983 227 l 983 227 q 983 321 967 380 q 950 439 921 467 q 892 495 851 495 l 851 495 q 822 495 801 484 q 780 473 767 451 l 767 451 q 753 429 748 396 q 743 362 743 306 l 743 306 l 743 10 l 669 10 l 669 325 l 697 475 q 726 525 764 546 q 802 566 854 566 z"},"൭":{"ha":681,"x_min":38,"x_max":638,"o":"m 343 566 l 343 566 q 418 566 474 542 q 530 517 566 470 q 602 423 620 357 q 638 290 638 206 l 638 206 q 638 109 618 34 q 597 -42 555 -94 q 513 -147 449 -174 q 384 -201 296 -201 l 296 -201 q 269 -201 241 -199 q 213 -197 186 -192 l 186 -192 l 194 -122 q 215 -125 240 -127 q 265 -129 294 -129 l 294 -129 q 368 -129 418 -104 q 467 -80 497 -34 q 526 11 539 73 q 552 134 552 207 l 552 207 q 552 348 497 422 q 442 495 340 495 l 340 495 q 275 495 225 461 q 174 427 146 370 q 117 312 117 239 l 117 239 l 117 222 q 117 167 130 130 q 143 93 166 75 q 189 57 220 57 l 220 57 q 242 57 259 69 q 276 80 286 102 q 295 124 295 158 l 295 158 q 295 209 272 234 q 249 259 211 259 l 211 259 q 180 259 153 244 q 125 229 100 202 l 100 202 l 72 251 q 100 284 141 306 q 181 327 226 327 l 226 327 q 272 327 306 309 q 339 290 358 254 q 376 217 376 163 l 376 163 q 376 107 357 68 q 338 28 303 8 q 268 -12 219 -12 l 219 -12 q 171 -12 130 14 q 88 39 63 94 q 38 148 38 234 l 38 234 q 38 340 79 414 q 119 488 188 527 q 257 566 343 566 z"},"൮":{"ha":876,"x_min":38,"x_max":809,"o":"m 312 566 l 312 566 q 380 566 431 545 q 481 523 514 485 q 547 446 563 395 q 579 343 579 284 l 579 284 q 579 231 568 189 q 556 147 537 114 q 517 81 493 53 l 493 53 l 476 69 l 725 69 l 725 554 l 809 554 l 809 138 l 744 0 l 428 0 l 392 58 q 418 78 441 108 q 464 137 479 179 q 493 221 493 275 l 493 275 q 493 342 472 392 q 450 441 409 468 q 368 495 309 495 l 309 495 q 252 495 211 467 q 169 439 147 390 q 124 340 124 276 l 124 276 q 124 224 138 182 q 151 139 176 107 q 201 75 234 51 l 234 51 l 182 -9 q 143 17 111 58 q 78 99 58 155 q 38 210 38 281 l 38 281 q 38 342 56 394 q 73 446 108 485 q 143 523 194 545 q 245 566 312 566 z m 507 -201 l 507 -201 q 481 -201 454 -199 q 427 -197 403 -191 l 403 -191 l 412 -120 q 430 -124 455 -126 q 479 -129 505 -129 l 505 -129 q 571 -129 613 -114 q 655 -100 679 -74 q 703 -48 713 -14 q 723 20 725 58 l 725 58 l 809 172 l 809 110 q 809 49 801 4 q 793 -42 777 -75 q 761 -108 733 -133 l 733 -133 q 698 -166 641 -183 q 584 -201 507 -201 z"},"൯":{"ha":1020,"x_min":38,"x_max":1016,"o":"m 264 566 l 264 566 q 305 566 336 554 q 367 542 391 520 q 414 497 431 464 l 431 464 l 458 233 l 458 0 l 374 0 l 374 298 q 374 363 369 396 q 363 429 349 450 l 349 450 q 334 472 313 484 q 292 495 262 495 l 262 495 q 222 495 191 470 q 160 444 142 399 q 124 353 124 294 l 124 294 q 124 233 139 188 q 154 142 178 109 q 202 75 231 51 l 231 51 l 172 -8 q 134 27 104 69 q 73 111 56 167 q 38 222 38 295 l 38 295 q 38 376 66 437 q 93 497 144 532 q 194 566 264 566 z m 620 566 l 620 566 q 689 566 742 545 q 794 523 833 485 l 833 485 q 883 438 913 370 q 942 302 942 222 l 942 222 q 942 144 919 92 q 896 40 852 14 q 808 -12 745 -12 l 745 -12 q 684 -12 643 13 q 601 38 581 82 q 560 125 560 179 l 560 179 q 560 243 585 293 q 610 343 659 387 q 708 431 779 476 l 779 476 q 833 509 867 531 q 900 553 916 574 q 931 594 931 620 l 931 620 q 931 641 924 659 q 916 677 905 693 l 905 693 l 984 730 q 1001 708 1009 682 q 1016 656 1016 626 l 1016 626 q 1016 580 994 547 q 971 514 929 486 q 886 457 826 421 l 826 421 q 765 382 725 346 q 685 310 665 270 q 645 230 645 180 l 645 180 q 645 115 674 86 q 702 57 746 57 l 746 57 q 783 57 808 74 q 832 91 844 128 q 856 164 856 220 l 856 220 q 856 280 837 338 q 817 395 775 436 l 775 436 q 748 463 710 479 q 671 495 623 495 l 623 495 q 577 495 550 485 q 522 475 504 456 l 504 456 q 488 439 478 417 q 467 395 463 364 q 458 332 458 285 l 458 285 l 458 88 l 384 88 l 384 294 l 405 450 q 426 487 456 513 q 486 539 527 553 q 568 566 620 566 z"},"൰":{"ha":982,"x_min":-30,"x_max":944,"o":"m 214 554 l 297 554 l 297 138 l 294 102 q 294 22 282 -32 q 269 -86 241 -124 l 241 -124 q 212 -160 166 -180 q 119 -201 52 -201 l 52 -201 q 32 -201 12 -199 q -9 -197 -30 -192 l -30 -192 l -22 -122 q -8 -125 9 -127 q 25 -129 44 -129 l 44 -129 q 92 -129 124 -115 q 155 -102 173 -79 l 173 -79 q 197 -51 206 -9 q 214 32 214 99 l 214 99 l 214 554 z m 719 -12 l 719 -12 q 662 -12 626 12 q 589 35 562 79 l 562 79 l 569 80 q 543 34 503 11 q 463 -12 410 -12 l 410 -12 q 370 -12 341 1 q 311 14 290 37 q 269 60 254 92 l 254 92 l 239 258 l 239 530 l 297 530 l 297 233 q 297 176 303 145 q 309 113 327 92 l 327 92 q 339 77 360 68 q 380 59 411 59 l 411 59 q 440 59 460 69 q 479 78 493 94 l 493 94 q 511 117 518 149 q 525 181 525 239 l 525 239 l 525 554 l 608 554 l 608 247 q 608 190 614 158 q 619 125 634 104 l 634 104 q 648 81 670 70 q 692 59 720 59 l 720 59 q 761 59 792 85 q 823 111 841 157 q 858 202 858 259 l 858 259 q 858 321 844 367 q 829 413 804 447 q 779 480 750 504 l 750 504 l 810 563 q 847 527 878 485 q 908 443 926 388 q 944 332 944 258 l 944 258 q 944 182 918 121 q 891 59 841 24 q 791 -12 719 -12 z"},"൱":{"ha":830,"x_min":38,"x_max":786,"o":"m 264 566 l 264 566 q 306 566 336 553 q 365 540 387 519 q 408 497 422 469 l 422 469 l 457 233 l 457 0 l 374 0 l 374 298 q 374 363 369 396 q 363 429 349 450 l 349 450 q 334 472 313 484 q 292 495 262 495 l 262 495 q 222 495 191 470 q 160 444 142 399 q 124 354 124 294 l 124 294 q 124 233 139 188 q 154 142 178 109 q 202 75 231 51 l 231 51 l 172 -8 q 134 27 104 69 q 73 111 56 167 q 38 222 38 295 l 38 295 q 38 376 66 437 q 93 497 144 532 q 194 566 264 566 z m 569 566 l 569 566 q 637 566 686 531 q 735 496 761 421 q 786 346 786 228 l 786 228 q 786 86 752 -9 q 717 -105 644 -153 q 571 -201 455 -201 l 455 -201 q 429 -201 401 -199 q 373 -197 346 -192 l 346 -192 l 355 -122 q 376 -125 400 -127 q 424 -129 453 -129 l 453 -129 q 526 -129 574 -103 q 622 -78 650 -31 q 677 16 689 82 q 700 148 700 227 l 700 227 q 700 322 684 381 q 667 440 637 468 q 607 495 567 495 l 567 495 q 538 495 517 485 q 496 474 482 451 l 482 451 q 468 431 463 399 q 457 366 457 307 l 457 307 l 457 10 l 383 10 l 383 316 l 411 475 q 442 524 480 545 q 517 566 569 566 z"},"൲":{"ha":1287,"x_min":38,"x_max":1267,"o":"m 1114 554 l 1114 554 q 1168 554 1202 534 q 1236 514 1252 482 q 1267 450 1267 412 l 1267 412 q 1267 372 1253 343 q 1239 313 1213 294 l 1213 294 q 1195 281 1174 274 q 1152 266 1124 263 q 1096 259 1058 259 l 1058 259 l 898 259 l 900 327 l 1062 327 q 1100 327 1120 332 q 1140 337 1154 347 l 1154 347 q 1169 356 1177 372 q 1184 388 1184 411 l 1184 411 q 1184 445 1167 466 q 1150 486 1115 486 l 1115 486 q 1076 486 1056 463 q 1036 439 1036 398 l 1036 398 q 1036 362 1047 335 q 1058 308 1075 284 l 1075 284 l 996 279 q 981 305 969 337 q 956 369 956 409 l 956 409 q 956 455 977 488 q 998 520 1034 537 q 1070 554 1114 554 z m 264 566 l 264 566 q 305 566 335 554 q 364 542 387 520 q 410 497 431 463 l 431 463 l 457 233 l 457 0 l 374 0 l 374 298 q 374 363 369 396 q 363 429 349 450 l 349 450 q 334 472 313 484 q 292 495 262 495 l 262 495 q 222 495 191 470 q 160 444 142 399 q 124 354 124 294 l 124 294 q 124 233 139 188 q 154 142 178 109 q 202 75 231 51 l 231 51 l 172 -8 q 134 27 104 69 q 73 111 56 167 q 38 222 38 295 l 38 295 q 38 376 66 437 q 93 497 144 532 q 194 566 264 566 z m 614 566 l 614 566 q 679 566 731 544 q 782 521 819 479 q 855 436 874 376 q 893 315 893 239 l 893 239 q 893 148 868 93 q 842 37 799 13 q 755 -12 700 -12 l 700 -12 q 641 -12 604 12 q 566 35 548 71 q 530 107 530 148 l 530 148 q 530 198 549 232 q 568 266 599 287 l 599 287 q 622 302 648 311 q 673 319 711 323 q 749 327 805 327 l 805 327 l 1027 327 l 1027 259 l 809 259 q 744 259 710 253 q 675 247 650 230 l 650 230 q 633 218 623 198 q 613 178 613 148 l 613 148 q 613 106 635 82 q 657 57 699 57 l 699 57 q 735 57 760 76 q 785 94 799 135 q 812 176 812 243 l 812 243 q 812 258 811 274 q 809 290 806 304 l 806 304 l 806 317 q 797 367 772 408 q 746 448 707 472 q 667 495 613 495 l 613 495 q 582 495 557 488 q 532 481 513 466 l 513 466 q 494 453 482 432 q 469 410 463 379 q 457 348 457 304 l 457 304 l 457 205 l 404 208 l 402 456 q 426 490 455 515 q 484 540 523 553 q 562 566 614 566 z"},"൳":{"ha":710,"x_min":38,"x_max":688,"o":"m 217 -12 l 217 -12 q 168 -12 127 13 q 86 38 62 89 q 38 140 38 218 l 38 218 q 38 305 66 364 q 94 422 148 458 l 148 458 q 182 481 222 494 q 262 507 314 513 q 365 519 433 519 l 433 519 l 688 519 l 688 446 l 460 446 q 383 446 333 442 q 283 437 250 427 q 217 416 192 397 l 192 397 q 160 375 143 342 q 125 308 118 265 l 118 265 l 118 252 q 117 242 117 233 q 117 224 117 212 l 117 212 q 117 160 129 126 q 141 91 164 74 q 187 57 218 57 l 218 57 q 241 57 258 68 q 275 79 285 102 q 294 124 294 158 l 294 158 q 294 209 271 234 q 248 259 210 259 l 210 259 q 179 259 152 244 q 125 229 100 202 l 100 202 l 95 273 q 121 296 155 312 q 189 327 226 327 l 226 327 q 272 327 305 309 q 338 290 357 254 q 375 217 375 163 l 375 163 q 375 107 356 68 q 337 28 302 8 q 266 -12 217 -12 z"},"൴":{"ha":841,"x_min":38,"x_max":803,"o":"m 443 792 l 526 792 l 526 222 q 526 186 529 162 q 531 137 536 122 q 540 106 546 94 l 546 94 q 558 74 577 66 q 595 57 620 57 l 620 57 q 655 57 676 75 q 697 93 707 128 q 717 162 717 210 l 717 210 q 717 265 704 312 q 690 358 663 395 q 636 432 596 457 q 555 482 501 492 l 501 492 l 465 493 q 454 495 441 496 q 428 496 415 496 l 415 496 q 347 496 292 477 q 236 458 197 423 q 158 387 138 340 q 117 293 117 237 l 117 237 l 117 221 q 117 166 130 130 q 142 93 165 75 q 188 57 219 57 l 219 57 q 242 57 259 68 q 275 79 285 102 q 294 124 294 158 l 294 158 q 294 209 271 234 q 248 259 210 259 l 210 259 q 179 259 152 244 q 125 229 100 202 l 100 202 l 95 273 q 121 296 155 312 q 189 327 226 327 l 226 327 q 272 327 305 309 q 338 290 357 254 q 375 217 375 163 l 375 163 q 375 107 356 68 q 337 28 302 8 q 267 -12 218 -12 l 218 -12 q 170 -12 129 14 q 88 39 63 92 q 38 144 38 228 l 38 228 q 38 304 64 367 q 89 429 138 474 q 186 518 257 542 q 327 566 417 566 l 417 566 q 431 566 444 566 q 456 565 469 564 l 469 564 l 508 562 q 573 551 627 524 q 681 496 721 452 q 760 408 782 347 q 803 286 803 210 l 803 210 q 803 143 783 93 q 762 43 722 16 q 681 -12 621 -12 l 621 -12 q 580 -12 548 0 q 516 11 495 33 l 495 33 q 477 51 466 75 q 454 99 449 136 q 443 172 443 228 l 443 228 l 443 792 z"},"൵":{"ha":1122,"x_min":41,"x_max":1117,"o":"m 328 566 l 328 566 q 404 566 451 540 q 497 513 532 463 l 532 463 l 542 402 l 558 242 l 558 0 l 475 0 l 475 313 q 475 370 466 404 q 457 438 435 459 l 435 459 q 417 477 393 486 q 368 495 328 495 l 328 495 q 264 495 217 463 q 170 430 145 373 q 119 316 119 243 l 119 243 l 119 226 q 119 168 132 131 q 145 93 168 75 q 191 57 222 57 l 222 57 q 244 57 261 68 q 277 79 287 101 q 296 123 296 157 l 296 157 q 296 209 274 234 q 251 259 212 259 l 212 259 q 178 259 149 241 q 119 223 92 193 l 92 193 l 75 251 q 101 284 142 306 q 183 327 229 327 l 229 327 q 274 327 307 309 q 340 290 359 254 q 377 217 377 163 l 377 163 q 377 107 358 68 q 339 28 305 8 q 270 -12 221 -12 l 221 -12 q 173 -12 132 14 q 90 39 66 95 q 41 151 41 241 l 41 241 q 41 349 79 421 q 117 493 183 530 q 248 566 328 566 z m 720 566 l 720 566 q 789 566 842 545 q 894 523 934 485 l 934 485 q 984 438 1014 370 q 1043 302 1043 222 l 1043 222 q 1043 144 1020 92 q 996 40 952 14 q 908 -12 845 -12 l 845 -12 q 784 -12 743 13 q 702 38 681 82 q 660 125 660 179 l 660 179 q 660 243 685 293 q 710 343 759 387 q 808 431 879 476 l 879 476 q 934 509 968 531 q 1001 553 1016 574 q 1031 594 1031 620 l 1031 620 q 1031 641 1024 659 q 1017 677 1006 693 l 1006 693 l 1084 730 q 1101 708 1109 682 q 1117 656 1117 626 l 1117 626 q 1117 580 1094 547 q 1071 514 1029 486 q 987 457 927 421 l 927 421 q 866 382 826 346 q 785 310 765 270 q 745 230 745 180 l 745 180 q 745 115 774 86 q 803 57 847 57 l 847 57 q 884 57 908 74 q 932 91 944 128 q 956 164 956 220 l 956 220 q 956 280 937 338 q 918 395 876 436 l 876 436 q 849 463 810 479 q 771 495 724 495 l 724 495 q 678 495 650 485 q 622 475 604 456 l 604 456 q 589 439 579 417 q 568 395 563 364 q 558 332 558 285 l 558 285 l 558 88 l 485 88 l 485 294 l 506 450 q 527 487 557 513 q 587 539 628 553 q 669 566 720 566 z"},"൶":{"ha":1259,"x_min":32,"x_max":1202,"o":"m 212 346 l 212 346 q 275 346 315 321 q 354 296 374 257 q 393 218 393 175 l 393 175 q 393 133 380 102 q 367 71 351 57 l 351 57 l 331 69 l 671 69 l 672 0 l 301 0 l 270 52 q 288 73 300 99 q 312 124 312 162 l 312 162 q 312 215 287 246 q 261 277 213 277 l 213 277 q 182 277 160 263 q 137 248 125 224 q 113 199 113 168 l 113 168 q 113 130 127 101 q 141 72 168 46 l 168 46 l 119 -7 q 82 25 57 69 q 32 112 32 169 l 32 169 q 32 222 55 262 q 77 301 118 324 q 158 346 212 346 z m 920 566 l 920 566 q 993 566 1045 548 q 1096 530 1130 496 l 1130 496 q 1155 471 1171 440 q 1187 408 1195 367 q 1202 325 1202 270 l 1202 270 l 1202 0 l 652 0 l 652 273 q 652 325 660 366 q 668 407 684 439 q 699 471 723 495 l 723 495 q 757 529 805 548 q 852 566 920 566 z m 875 496 l 875 496 q 840 496 812 476 q 783 456 766 421 l 766 421 q 752 393 744 353 q 736 313 736 253 l 736 253 l 736 65 l 738 66 q 799 117 845 174 q 891 230 918 289 q 944 348 944 404 l 944 404 q 944 432 937 453 q 929 473 915 485 q 900 496 875 496 z m 1027 394 l 1027 394 q 1027 334 1003 276 q 979 218 935 161 q 890 104 829 45 l 829 45 l 823 64 q 849 66 878 68 q 906 69 930 69 l 930 69 l 1119 69 l 1119 260 q 1119 331 1106 379 q 1092 426 1063 455 q 1034 483 986 496 l 986 496 l 987 502 q 1006 481 1017 456 q 1027 430 1027 394 z"},"൷":{"ha":1570,"x_min":32,"x_max":1550,"o":"m 212 346 l 212 346 q 274 346 314 321 q 354 296 374 257 q 393 218 393 175 l 393 175 q 393 133 380 102 q 367 71 351 57 l 351 57 l 330 69 l 621 69 l 649 0 l 301 0 l 271 52 q 289 73 301 99 q 312 124 312 162 l 312 162 q 312 215 287 246 q 261 277 213 277 l 213 277 q 182 277 160 263 q 137 248 125 224 q 113 199 113 168 l 113 168 q 113 130 127 101 q 141 72 168 46 l 168 46 l 119 -7 q 82 25 57 69 q 32 112 32 169 l 32 169 q 32 222 55 262 q 77 301 118 324 q 158 346 212 346 z m 732 566 l 732 566 q 773 566 802 554 q 831 542 855 520 q 878 497 898 463 l 898 463 l 925 284 l 925 230 l 841 230 l 841 298 q 841 362 836 396 q 831 429 816 450 l 816 450 q 802 472 781 484 q 760 495 730 495 l 730 495 q 690 495 659 470 q 627 445 609 400 q 591 355 591 297 l 591 297 q 591 214 619 155 q 647 96 692 49 l 692 49 l 656 0 l 615 0 l 588 54 q 563 87 545 123 q 526 158 516 202 q 506 245 506 299 l 506 299 q 506 378 533 438 q 560 498 611 532 q 662 566 732 566 z m 1081 566 l 1081 566 q 1147 566 1199 544 q 1250 521 1287 478 q 1323 435 1342 375 q 1360 315 1360 239 l 1360 239 q 1360 148 1336 93 q 1311 37 1268 13 q 1224 -12 1168 -12 l 1168 -12 q 1108 -12 1071 11 q 1033 34 1015 71 q 997 107 997 148 l 997 148 q 997 198 1016 232 q 1035 266 1067 287 l 1067 287 q 1090 302 1116 311 q 1141 319 1179 323 q 1216 327 1271 327 l 1271 327 l 1308 327 l 1308 259 l 1276 259 q 1212 259 1178 253 q 1143 247 1118 230 l 1118 230 q 1100 218 1090 198 q 1080 178 1080 148 l 1080 148 q 1080 106 1103 82 q 1125 57 1166 57 l 1166 57 q 1203 57 1228 76 q 1253 94 1266 135 q 1279 176 1279 243 l 1279 243 q 1279 258 1278 274 q 1276 290 1274 304 l 1274 304 l 1273 317 q 1265 367 1240 408 q 1214 448 1174 472 q 1134 495 1080 495 l 1080 495 q 1050 495 1025 488 q 1000 481 981 466 l 981 466 q 962 453 950 432 q 937 410 931 379 q 925 348 925 304 l 925 304 l 925 258 l 872 260 l 870 456 q 893 490 923 515 q 952 540 991 553 q 1030 566 1081 566 z m 1460 447 l 1540 462 q 1545 450 1548 436 q 1550 421 1550 403 l 1550 403 q 1550 367 1537 340 q 1523 312 1497 294 l 1497 294 q 1469 275 1433 267 q 1397 259 1342 259 l 1342 259 l 1317 259 l 1317 327 l 1338 327 q 1373 327 1395 331 q 1417 334 1433 342 l 1433 342 q 1450 350 1459 366 q 1467 382 1467 406 l 1467 406 q 1467 415 1465 427 q 1463 439 1460 447 l 1460 447 z"},"൸":{"ha":1985,"x_min":10,"x_max":1928,"o":"m 1278 566 l 1278 566 q 1313 566 1340 557 q 1366 548 1386 531 q 1405 514 1420 492 q 1434 470 1444 444 l 1444 444 l 1413 441 q 1437 486 1471 513 q 1505 540 1549 553 q 1592 566 1646 566 l 1646 566 q 1718 566 1770 548 q 1822 530 1855 496 l 1855 496 q 1881 471 1897 440 q 1913 408 1921 367 q 1928 325 1928 270 l 1928 270 l 1928 0 l 1465 0 l 1465 67 q 1524 117 1570 174 q 1616 230 1643 289 q 1669 348 1669 404 l 1669 404 q 1669 432 1662 453 q 1655 473 1640 485 q 1624 496 1599 496 l 1599 496 q 1563 496 1536 476 q 1509 456 1494 426 l 1494 426 q 1477 392 1472 354 q 1466 316 1466 257 l 1466 257 l 1466 230 l 1382 230 l 1382 316 q 1382 376 1376 411 q 1370 446 1353 466 l 1353 466 q 1340 481 1322 488 q 1304 495 1283 495 l 1283 495 q 1262 495 1244 489 q 1225 482 1213 467 l 1213 467 q 1196 446 1190 410 q 1184 374 1184 310 l 1184 310 l 1184 239 q 1184 179 1178 140 q 1172 101 1162 78 q 1151 55 1136 39 l 1136 39 q 1112 12 1080 0 q 1047 -12 1001 -12 l 1001 -12 q 957 -12 924 0 q 891 12 867 38 l 867 38 q 853 55 842 78 q 831 101 825 140 q 818 178 818 238 l 818 238 l 818 316 q 818 376 812 411 q 806 446 789 466 l 789 466 q 777 481 759 488 q 741 495 720 495 l 720 495 q 699 495 681 489 q 662 482 649 467 l 649 467 q 632 446 627 410 q 621 374 621 310 l 621 310 l 621 224 q 621 151 610 112 q 598 72 572 43 l 572 43 q 548 16 513 2 q 478 -12 429 -12 l 429 -12 q 368 -12 329 16 q 290 44 267 93 l 267 93 l 285 81 q 268 53 247 32 q 225 11 195 0 q 165 -12 121 -12 l 121 -12 q 90 -12 63 -5 q 36 2 10 15 l 10 15 l 39 81 q 56 71 77 65 q 98 59 123 59 l 123 59 q 155 59 177 71 q 199 82 213 104 l 213 104 q 227 125 232 157 q 237 188 237 247 l 237 247 l 237 554 l 321 554 l 321 232 q 321 177 327 145 q 333 112 350 91 l 350 91 q 362 76 382 68 q 401 59 426 59 l 426 59 q 457 59 478 70 q 498 81 509 97 l 509 97 q 526 120 532 157 q 537 193 537 258 l 537 258 l 537 314 q 537 376 543 414 q 548 452 560 476 q 571 499 585 515 l 585 515 q 608 542 641 554 q 674 566 719 566 l 719 566 q 762 566 796 555 q 829 543 853 516 l 853 516 q 868 500 879 477 q 890 454 896 417 q 902 379 902 316 l 902 316 l 902 238 q 902 178 908 144 q 914 109 931 88 l 931 88 q 943 73 962 66 q 980 59 1000 59 l 1000 59 q 1022 59 1041 66 q 1059 72 1071 87 l 1071 87 q 1088 108 1094 143 q 1100 178 1100 237 l 1100 237 l 1100 314 q 1100 376 1106 414 q 1112 452 1123 476 q 1134 499 1148 515 l 1148 515 q 1172 542 1205 554 q 1237 566 1278 566 z m 1753 394 l 1753 394 q 1753 334 1729 276 q 1705 218 1661 161 q 1616 104 1555 45 l 1555 45 l 1549 64 q 1575 66 1604 68 q 1632 69 1656 69 l 1656 69 l 1845 69 l 1845 260 q 1845 331 1832 379 q 1818 426 1789 455 q 1760 483 1711 496 l 1711 496 l 1713 502 q 1731 481 1742 456 q 1753 430 1753 394 z"},"൹":{"ha":1049,"x_min":38,"x_max":1027,"o":"m 264 566 l 264 566 q 305 566 335 554 q 364 542 387 520 q 410 497 431 463 l 431 463 l 457 233 l 457 0 l 374 0 l 374 298 q 374 363 369 396 q 363 429 349 450 l 349 450 q 334 472 313 484 q 292 495 262 495 l 262 495 q 222 495 191 470 q 160 444 142 399 q 124 354 124 294 l 124 294 q 124 233 139 188 q 154 142 178 109 q 202 75 231 51 l 231 51 l 172 -8 q 134 27 104 69 q 73 111 56 167 q 38 222 38 295 l 38 295 q 38 376 66 437 q 93 497 144 532 q 194 566 264 566 z m 614 566 l 614 566 q 679 566 731 544 q 782 521 819 479 q 855 436 874 376 q 893 315 893 239 l 893 239 q 893 148 868 93 q 842 37 799 13 q 755 -12 700 -12 l 700 -12 q 641 -12 604 12 q 566 35 548 71 q 530 107 530 148 l 530 148 q 530 198 549 232 q 568 266 599 287 l 599 287 q 622 302 648 311 q 673 319 711 323 q 749 327 805 327 l 805 327 l 1027 327 l 1027 259 l 809 259 q 744 259 710 253 q 675 247 650 230 l 650 230 q 633 218 623 198 q 613 178 613 148 l 613 148 q 613 106 635 82 q 657 57 699 57 l 699 57 q 735 57 760 76 q 785 94 799 135 q 812 176 812 243 l 812 243 q 812 258 811 274 q 809 290 806 304 l 806 304 l 806 317 q 797 367 772 408 q 746 448 707 472 q 667 495 613 495 l 613 495 q 582 495 557 488 q 532 481 513 466 l 513 466 q 494 453 482 432 q 469 410 463 379 q 457 348 457 304 l 457 304 l 457 205 l 404 208 l 402 456 q 426 490 455 515 q 484 540 523 553 q 562 566 614 566 z"},"ൺ":{"ha":1383,"x_min":41,"x_max":1345,"o":"m 328 566 l 328 566 q 404 566 450 540 q 495 514 528 470 l 528 470 l 510 472 q 540 520 581 543 q 622 566 675 566 l 675 566 q 736 566 775 541 q 814 515 842 466 l 842 466 l 831 444 l 870 304 l 870 0 l 787 0 l 787 321 q 787 378 781 410 q 774 441 757 462 l 757 462 q 744 478 724 487 q 704 495 673 495 l 673 495 q 644 495 624 486 q 604 476 591 460 l 591 460 q 573 438 566 406 q 559 373 559 315 l 559 315 l 559 0 l 475 0 l 475 309 q 475 370 466 404 q 457 438 435 459 l 435 459 q 417 477 391 486 q 365 495 328 495 l 328 495 q 264 495 217 463 q 170 430 145 373 q 119 316 119 243 l 119 243 l 119 226 q 119 168 132 131 q 145 93 168 75 q 191 57 222 57 l 222 57 q 244 57 261 68 q 277 79 287 101 q 296 123 296 157 l 296 157 q 296 209 274 234 q 251 259 212 259 l 212 259 q 178 259 149 241 q 119 223 92 193 l 92 193 l 75 251 q 101 284 142 306 q 183 327 229 327 l 229 327 q 274 327 307 309 q 340 290 359 254 q 377 217 377 163 l 377 163 q 377 107 358 68 q 339 28 305 8 q 270 -12 221 -12 l 221 -12 q 173 -12 132 14 q 90 39 66 95 q 41 151 41 241 l 41 241 q 41 349 79 421 q 117 493 183 530 q 248 566 328 566 z m 1162 -12 l 1162 -12 q 1103 -12 1063 14 q 1022 40 1001 91 q 980 141 980 213 l 980 213 q 980 275 998 327 q 1015 378 1045 422 q 1075 466 1111 505 l 1111 505 l 1136 535 q 1163 564 1181 594 q 1199 623 1199 654 l 1199 654 q 1199 681 1182 701 q 1165 720 1128 720 l 1128 720 q 1109 720 1090 717 q 1070 714 1059 710 l 1059 710 l 1041 778 q 1057 783 1085 788 q 1112 792 1141 792 l 1141 792 q 1198 792 1229 771 q 1259 750 1272 722 q 1284 694 1284 670 l 1284 670 q 1284 621 1260 580 q 1236 539 1194 494 l 1194 494 l 1175 468 q 1139 432 1115 391 q 1090 350 1078 306 q 1065 261 1065 211 l 1065 211 q 1065 152 1078 118 q 1091 84 1113 70 q 1135 56 1161 56 l 1161 56 q 1209 56 1234 93 q 1259 130 1259 212 l 1259 212 q 1259 262 1245 314 q 1231 365 1203 408 q 1174 451 1129 474 l 1129 474 q 1110 485 1087 491 q 1064 497 1036 497 l 1036 497 q 990 497 962 487 q 933 476 916 457 l 916 457 q 900 440 890 418 q 880 396 875 365 q 870 333 870 285 l 870 285 l 870 75 l 795 75 l 795 273 l 818 451 q 839 488 869 514 q 899 539 940 553 q 981 566 1033 566 l 1033 566 q 1072 566 1105 558 q 1138 550 1168 535 l 1168 535 q 1173 534 1177 531 q 1181 528 1185 526 l 1185 526 q 1239 494 1275 445 q 1311 396 1328 338 q 1345 279 1345 218 l 1345 218 q 1345 106 1298 47 q 1251 -12 1162 -12 z"},"ൻ":{"ha":970,"x_min":38,"x_max":932,"o":"m 264 566 l 264 566 q 305 566 335 554 q 365 542 388 520 q 411 497 429 464 l 429 464 l 457 233 l 457 0 l 374 0 l 374 298 q 374 363 369 396 q 363 429 349 450 l 349 450 q 334 472 313 484 q 292 495 262 495 l 262 495 q 222 495 191 470 q 160 444 142 399 q 124 354 124 294 l 124 294 q 124 233 139 188 q 154 142 178 109 q 202 75 231 51 l 231 51 l 172 -8 q 134 27 104 69 q 73 111 56 167 q 38 222 38 295 l 38 295 q 38 376 66 437 q 93 497 144 532 q 194 566 264 566 z m 749 -12 l 749 -12 q 690 -12 650 14 q 609 40 588 91 q 567 141 567 213 l 567 213 q 567 275 585 327 q 602 378 632 422 q 662 466 698 505 l 698 505 l 723 535 q 750 564 768 594 q 786 623 786 654 l 786 654 q 786 681 769 701 q 752 720 715 720 l 715 720 q 696 720 678 717 q 659 714 646 710 l 646 710 l 628 778 q 644 783 672 788 q 699 792 728 792 l 728 792 q 785 792 816 771 q 846 750 859 722 q 871 694 871 670 l 871 670 q 871 621 847 580 q 823 539 781 494 l 781 494 l 762 468 q 726 432 702 391 q 677 350 665 306 q 652 261 652 211 l 652 211 q 652 152 665 118 q 678 84 700 70 q 722 56 748 56 l 748 56 q 796 56 821 93 q 846 130 846 212 l 846 212 q 846 262 832 314 q 818 365 790 408 q 761 451 716 474 l 716 474 q 697 485 674 491 q 651 497 623 497 l 623 497 q 577 497 549 487 q 520 476 503 457 l 503 457 q 487 440 477 418 q 467 396 462 365 q 457 333 457 285 l 457 285 l 457 75 l 382 75 l 382 273 l 405 451 q 426 488 456 514 q 486 539 527 553 q 568 566 620 566 l 620 566 q 659 566 692 558 q 725 550 755 535 l 755 535 q 760 534 764 531 q 768 528 772 526 l 772 526 q 826 494 862 445 q 898 396 915 338 q 932 279 932 218 l 932 218 q 932 106 885 47 q 838 -12 749 -12 z"},"ർ":{"ha":674,"x_min":38,"x_max":637,"o":"m 453 -12 l 453 -12 q 395 -12 354 14 q 313 40 292 91 q 271 141 271 213 l 271 213 q 271 275 289 327 q 306 378 336 422 q 366 466 402 505 l 402 505 l 426 535 q 454 564 473 594 q 491 623 491 654 l 491 654 q 491 681 474 701 q 457 720 419 720 l 419 720 q 400 720 381 717 q 362 714 350 710 l 350 710 l 333 778 q 349 783 376 788 q 403 792 433 792 l 433 792 q 489 792 520 771 q 551 750 563 722 q 575 694 575 670 l 575 670 q 575 621 552 580 q 528 539 485 494 l 485 494 l 466 468 q 431 432 406 391 q 381 350 369 306 q 356 261 356 211 l 356 211 q 356 152 369 118 q 382 84 405 70 q 427 56 452 56 l 452 56 q 501 56 526 93 q 550 130 550 212 l 550 212 q 550 249 543 288 q 535 327 519 363 q 503 399 479 429 q 454 458 421 475 l 421 475 q 400 486 376 492 q 352 497 325 497 l 325 497 q 259 497 215 468 q 170 438 147 388 q 124 338 124 276 l 124 276 q 124 222 138 181 q 151 139 176 107 q 201 75 234 51 l 234 51 l 182 -9 q 143 18 111 59 q 78 99 58 155 q 38 210 38 281 l 38 281 q 38 342 57 394 q 76 446 112 485 q 148 523 202 545 q 255 566 323 566 l 323 566 q 362 566 396 559 q 430 551 459 536 l 459 536 q 464 534 469 532 q 473 529 476 527 l 476 527 q 531 495 567 446 q 602 396 620 338 q 637 279 637 218 l 637 218 q 637 106 590 47 q 542 -12 453 -12 z"},"ൽ":{"ha":1099,"x_min":38,"x_max":1061,"o":"m 670 566 l 670 566 q 712 566 750 561 q 787 556 822 546 q 856 536 885 518 l 885 518 l 903 509 q 984 463 1023 386 q 1061 308 1061 218 l 1061 218 q 1061 106 1014 47 q 967 -12 878 -12 l 878 -12 q 820 -12 779 14 q 738 40 717 91 q 696 141 696 213 l 696 213 q 696 275 714 327 q 731 378 761 422 q 791 466 827 505 l 827 505 l 848 530 q 877 561 897 592 q 916 623 916 654 l 916 654 q 916 681 899 701 q 882 720 844 720 l 844 720 q 825 720 806 717 q 787 714 775 710 l 775 710 l 758 778 q 774 783 801 788 q 828 792 858 792 l 858 792 q 915 792 946 771 q 976 750 988 722 q 1000 694 1000 670 l 1000 670 q 1000 621 977 580 q 953 539 911 494 l 911 494 l 891 468 q 856 432 831 391 q 806 350 794 306 q 781 261 781 211 l 781 211 q 781 152 794 118 q 807 84 830 70 q 852 56 877 56 l 877 56 q 926 56 951 93 q 975 130 975 212 l 975 212 q 975 266 961 314 q 947 361 919 399 q 890 437 843 461 l 843 461 l 824 469 q 792 483 753 489 q 714 495 669 495 l 669 495 q 626 495 586 489 q 546 483 510 467 l 510 467 l 491 459 q 433 427 398 367 q 362 307 362 217 l 362 217 q 362 153 377 118 q 391 83 414 70 q 437 57 463 57 l 463 57 q 491 57 514 70 q 537 83 551 118 q 564 153 564 217 l 564 217 q 564 276 548 327 q 531 377 502 415 q 472 453 433 473 l 433 473 l 414 483 q 394 492 374 495 q 354 498 330 498 l 330 498 q 264 498 218 470 q 172 441 148 391 q 124 341 124 276 l 124 276 q 124 222 138 180 q 151 138 176 107 q 201 75 234 51 l 234 51 l 182 -9 q 143 18 111 58 q 78 98 58 154 q 38 210 38 281 l 38 281 q 38 341 57 393 q 75 445 111 484 q 146 522 199 544 q 252 566 322 566 l 322 566 q 367 566 405 557 q 442 547 479 524 l 479 524 l 502 504 q 567 463 609 390 q 650 317 650 216 l 650 216 q 650 145 629 94 q 607 42 566 15 q 524 -12 463 -12 l 463 -12 q 404 -12 362 16 q 320 43 299 95 q 277 146 277 216 l 277 216 q 277 280 295 332 q 312 384 345 426 q 377 467 422 498 l 422 498 l 444 513 q 490 540 545 553 q 600 566 670 566 z"},"ൾ":{"ha":954,"x_min":38,"x_max":916,"o":"m 712 792 l 712 792 q 769 792 800 771 q 830 750 842 722 q 854 694 854 670 l 854 670 q 854 621 831 580 q 807 539 765 494 l 765 494 l 746 468 q 710 432 686 391 q 661 350 648 306 q 635 261 635 211 l 635 211 q 635 152 649 118 q 662 84 684 70 q 706 56 732 56 l 732 56 q 781 56 805 94 q 829 131 829 212 l 829 212 q 829 249 822 288 q 815 326 800 362 q 784 398 761 428 q 737 457 704 475 l 704 475 q 688 485 666 491 q 643 497 619 497 l 619 497 q 587 497 560 489 q 533 481 515 467 l 515 467 q 478 441 465 392 q 451 343 451 275 l 451 275 l 451 227 q 451 182 446 149 q 441 115 431 90 q 420 65 401 44 l 401 44 q 377 17 342 3 q 307 -12 256 -12 l 256 -12 q 189 -12 140 20 q 90 52 64 113 q 38 173 38 258 l 38 258 q 38 329 55 384 q 71 439 102 484 q 133 528 175 566 l 175 566 l 232 508 q 202 483 178 448 q 153 413 139 367 q 124 320 124 261 l 124 261 q 124 199 140 154 q 156 108 186 84 q 215 59 254 59 l 254 59 q 288 59 308 69 q 328 79 340 97 l 340 97 q 357 121 362 163 q 366 204 366 255 l 366 255 l 366 291 q 366 373 385 426 q 404 479 447 514 l 447 514 q 479 541 521 554 q 562 566 614 566 l 614 566 q 649 566 681 558 q 712 550 739 537 l 739 537 l 756 528 q 808 497 844 449 q 879 400 898 341 q 916 281 916 217 l 916 217 q 916 106 869 47 q 822 -12 733 -12 l 733 -12 q 674 -12 633 14 q 592 40 571 91 q 550 141 550 213 l 550 213 q 550 275 568 327 q 585 378 615 422 q 645 466 681 505 l 681 505 l 706 535 q 733 564 752 594 q 770 623 770 654 l 770 654 q 770 681 754 701 q 737 720 699 720 l 699 720 q 680 720 661 717 q 641 714 630 710 l 630 710 l 612 778 q 628 783 656 788 q 683 792 712 792 z"},"ൿ":{"ha":1101,"x_min":31,"x_max":1070,"o":"m 477 566 l 477 566 q 551 566 598 530 q 644 494 667 430 q 690 365 690 279 l 690 279 q 690 182 665 118 q 639 53 592 21 q 544 -12 477 -12 l 477 -12 q 425 -12 386 7 q 347 26 320 62 l 320 62 q 291 100 277 156 q 263 211 263 279 l 263 279 q 263 418 320 492 q 377 566 477 566 z m 477 497 l 477 497 q 410 497 378 444 q 346 390 346 278 l 346 278 q 346 202 361 153 q 375 103 404 80 q 433 57 476 57 l 476 57 q 519 57 548 80 q 577 102 592 152 q 607 201 607 278 l 607 278 q 607 354 593 403 q 578 452 549 475 q 520 497 477 497 z m 202 -12 l 202 -12 q 119 -12 75 32 q 31 76 31 152 l 31 152 q 31 201 52 235 q 73 268 106 288 l 106 288 q 129 302 158 311 q 186 319 226 323 q 266 327 323 327 l 323 327 l 825 327 q 888 327 932 319 q 975 310 1008 285 l 1008 285 q 1035 265 1053 234 q 1070 202 1070 154 l 1070 154 q 1070 76 1030 32 q 989 -12 910 -12 l 910 -12 q 830 -12 788 36 q 746 83 746 154 l 746 154 q 746 190 754 222 q 762 253 776 286 l 776 286 q 777 289 778 294 q 779 298 780 301 l 780 301 q 793 329 809 362 q 825 395 846 436 l 846 436 q 874 491 891 528 q 908 565 916 593 q 923 621 923 647 l 923 647 q 923 679 906 700 q 889 720 851 720 l 851 720 q 832 720 813 717 q 793 714 782 710 l 782 710 l 764 778 q 780 783 808 788 q 835 792 864 792 l 864 792 q 921 792 952 771 q 983 750 995 721 q 1007 691 1007 664 l 1007 664 q 1007 636 1003 612 q 998 587 987 559 q 976 530 958 493 q 940 456 913 403 l 913 403 q 899 374 887 350 q 875 325 865 303 l 865 303 q 862 297 860 291 q 858 284 856 278 l 856 278 q 843 245 836 216 q 828 187 828 157 l 828 157 q 828 119 840 98 q 852 76 871 67 q 890 58 910 58 l 910 58 q 948 58 968 82 q 987 105 987 150 l 987 150 q 987 179 977 199 q 967 219 950 231 l 950 231 q 928 248 897 254 q 865 259 829 259 l 829 259 l 314 259 q 249 259 214 253 q 178 247 152 230 l 152 230 q 135 218 125 199 q 114 180 114 153 l 114 153 q 114 122 126 101 q 137 79 158 68 q 179 57 207 57 l 207 57 q 238 57 266 68 q 294 78 326 102 l 326 102 l 372 48 q 343 26 316 13 q 289 0 262 -6 q 234 -12 202 -12 z"},"!":{"ha":261,"x_min":71,"x_max":189,"o":"m 159 201 l 102 201 l 78 714 l 182 714 l 159 201 z m 130 -12 l 130 -12 q 103 -12 87 5 q 71 22 71 55 l 71 55 q 71 87 86 104 q 101 121 130 121 l 130 121 q 158 121 174 104 q 189 87 189 55 l 189 55 q 189 22 173 5 q 157 -12 130 -12 z"},"\"":{"ha":412,"x_min":67,"x_max":345,"o":"m 150 542 l 89 542 l 67 800 l 172 800 l 150 542 z m 323 542 l 262 542 l 240 800 l 345 800 l 323 542 z"},"#":{"ha":591,"x_min":25,"x_max":567,"o":"m 162 0 l 94 0 l 134 211 l 25 211 l 25 276 l 147 276 l 178 439 l 57 439 l 57 504 l 190 504 l 230 714 l 298 714 l 258 504 l 389 504 l 429 714 l 497 714 l 457 504 l 567 504 l 567 439 l 445 439 l 414 276 l 536 276 l 536 211 l 402 211 l 361 0 l 293 0 l 333 211 l 203 211 l 162 0 z m 246 439 l 215 276 l 346 276 l 376 439 l 246 439 z"},"%":{"ha":774,"x_min":48,"x_max":726,"o":"m 252 0 l 179 0 l 521 714 l 594 714 l 252 0 z m 182 276 l 182 276 q 117 276 83 334 q 48 392 48 500 l 48 500 q 48 612 82 669 q 115 725 183 725 l 183 725 q 250 725 285 667 q 320 609 320 501 l 320 501 q 320 390 286 333 q 251 276 182 276 z m 183 338 l 183 338 q 217 338 234 379 q 250 419 250 501 l 250 501 q 250 582 234 623 q 217 663 183 663 l 183 663 q 149 663 134 623 q 118 582 118 501 l 118 501 q 118 419 134 379 q 149 338 183 338 z m 588 -11 l 588 -11 q 523 -11 488 47 q 453 104 453 213 l 453 213 q 453 324 487 381 q 521 437 589 437 l 589 437 q 656 437 691 379 q 726 321 726 214 l 726 214 q 726 102 692 46 q 657 -11 588 -11 z m 588 51 l 588 51 q 623 51 639 91 q 655 131 655 213 l 655 213 q 655 295 639 335 q 623 375 589 375 l 589 375 q 555 375 540 335 q 524 294 524 213 l 524 213 q 524 131 540 91 q 555 51 588 51 z"},"'":{"ha":238,"x_min":67,"x_max":172,"o":"m 150 542 l 89 542 l 67 800 l 172 800 l 150 542 z"},"(":{"ha":303,"x_min":43,"x_max":273,"o":"m 43 280 l 43 280 q 43 376 60 470 q 76 563 110 647 q 143 731 191 800 l 191 800 l 273 800 q 225 727 194 642 q 162 557 146 466 q 129 374 129 279 l 129 279 q 129 185 145 94 q 160 2 192 -83 q 224 -168 272 -244 l 272 -244 l 191 -244 q 141 -173 108 -87 q 75 -2 59 92 q 43 186 43 280 z"},")":{"ha":303,"x_min":30,"x_max":260,"o":"m 260 277 l 260 277 q 260 180 244 87 q 227 -7 194 -90 q 161 -174 112 -244 l 112 -244 l 30 -244 q 78 -170 110 -85 q 141 -1 158 91 q 174 182 174 277 l 174 277 q 174 372 158 463 q 142 554 111 639 q 79 724 31 800 l 31 800 l 112 800 q 162 729 195 644 q 228 558 244 465 q 260 372 260 277 z"},"*":{"ha":537,"x_min":40,"x_max":497,"o":"m 220 800 l 315 800 l 296 613 l 482 666 l 497 575 l 314 561 l 433 406 l 350 360 l 267 536 l 188 360 l 104 406 l 221 561 l 40 575 l 54 666 l 239 614 l 220 800 z"},"+":{"ha":520,"x_min":43,"x_max":476,"o":"m 295 114 l 224 114 l 224 318 l 43 318 l 43 388 l 224 388 l 224 592 l 295 592 l 295 388 l 476 388 l 476 318 l 295 318 l 295 114 z"},",":{"ha":251,"x_min":36,"x_max":184,"o":"m 84 115 l 177 115 l 184 104 q 174 67 161 27 q 148 -14 133 -53 q 118 -93 101 -130 l 101 -130 l 36 -130 q 46 -90 55 -46 q 64 -3 72 39 q 79 81 84 115 l 84 115 z"},"-":{"ha":317,"x_min":39,"x_max":278,"o":"m 278 230 l 39 230 l 39 308 l 278 308 l 278 230 z"},".":{"ha":262,"x_min":72,"x_max":190,"o":"m 131 -12 l 131 -12 q 105 -12 89 4 q 72 20 72 55 l 72 55 q 72 90 89 106 q 105 121 131 121 l 131 121 q 157 121 174 106 q 190 91 190 55 l 190 55 q 190 20 173 4 q 156 -12 131 -12 z"},"/":{"ha":389,"x_min":21,"x_max":368,"o":"m 103 -244 l 21 -244 l 286 800 l 368 800 l 103 -244 z"},":":{"ha":262,"x_min":72,"x_max":190,"o":"m 131 -12 l 131 -12 q 105 -12 89 4 q 72 20 72 55 l 72 55 q 72 90 89 106 q 105 121 131 121 l 131 121 q 157 121 174 106 q 190 91 190 55 l 190 55 q 190 20 173 4 q 156 -12 131 -12 z m 131 411 l 131 411 q 105 411 89 427 q 72 443 72 478 l 72 478 q 72 513 89 529 q 105 544 131 544 l 131 544 q 157 544 174 529 q 190 513 190 478 l 190 478 q 190 443 173 427 q 156 411 131 411 z"},";":{"ha":262,"x_min":36,"x_max":190,"o":"m 84 115 l 177 115 l 184 104 q 175 67 162 27 q 148 -14 133 -53 q 118 -93 101 -130 l 101 -130 l 36 -130 q 46 -90 55 -46 q 64 -3 72 39 q 79 81 84 115 l 84 115 z m 131 411 l 131 411 q 105 411 89 427 q 72 443 72 478 l 72 478 q 72 513 89 529 q 105 544 131 544 l 131 544 q 157 544 174 529 q 190 513 190 478 l 190 478 q 190 443 173 427 q 156 411 131 411 z"},"<":{"ha":520,"x_min":42,"x_max":477,"o":"m 477 200 l 477 122 l 42 326 l 42 376 l 477 597 l 477 519 l 136 353 l 477 200 z"},"=":{"ha":520,"x_min":47,"x_max":472,"o":"m 472 215 l 47 215 l 47 285 l 472 285 l 472 215 z m 472 419 l 47 419 l 47 489 l 472 489 l 472 419 z"},">":{"ha":520,"x_min":42,"x_max":477,"o":"m 477 326 l 42 122 l 42 200 l 383 352 l 42 519 l 42 597 l 477 376 l 477 326 z"},"?":{"ha":410,"x_min":36,"x_max":378,"o":"m 197 725 l 197 725 q 282 725 330 678 q 378 631 378 550 l 378 550 q 378 506 367 474 q 356 442 334 414 q 312 386 278 351 l 278 351 q 251 325 236 305 q 221 284 216 264 q 210 243 210 215 l 210 215 l 210 202 l 143 202 l 143 224 q 143 260 149 288 q 155 315 171 340 q 186 364 215 391 l 215 391 q 243 420 261 443 q 279 465 287 490 q 295 514 295 546 l 295 546 q 295 593 270 621 q 244 649 194 649 l 194 649 q 159 649 128 638 q 96 627 66 612 l 66 612 l 36 680 q 71 699 113 712 q 154 725 197 725 z m 179 -12 l 179 -12 q 154 -12 137 4 q 120 20 120 55 l 120 55 q 120 90 137 106 q 154 121 179 121 l 179 121 q 205 121 222 106 q 238 91 238 55 l 238 55 q 238 20 222 4 q 205 -12 179 -12 z"},"[":{"ha":321,"x_min":79,"x_max":281,"o":"m 281 -244 l 79 -244 l 79 800 l 281 800 l 281 732 l 163 732 l 163 -176 l 281 -176 l 281 -244 z"},"\\":{"ha":389,"x_min":21,"x_max":368,"o":"m 368 -244 l 286 -244 l 21 800 l 103 800 l 368 -244 z"},"]":{"ha":324,"x_min":40,"x_max":242,"o":"m 242 -244 l 40 -244 l 40 -176 l 158 -176 l 158 732 l 40 732 l 40 800 l 242 800 l 242 -244 z"},"^":{"ha":520,"x_min":30,"x_max":488,"o":"m 108 298 l 30 298 l 237 717 l 286 717 l 488 298 l 409 298 l 261 623 l 108 298 z"},"_":{"ha":412,"x_min":-2,"x_max":414,"o":"m 414 -154 l -2 -154 l -2 -90 l 414 -90 l 414 -154 z"},"{":{"ha":366,"x_min":30,"x_max":327,"o":"m 327 -174 l 327 -244 q 277 -243 238 -225 q 198 -208 177 -171 q 155 -134 155 -75 l 155 -75 l 155 136 q 155 194 123 218 q 91 242 30 242 l 30 242 l 30 313 q 92 314 124 338 q 155 362 155 419 l 155 419 l 155 632 q 155 691 177 728 q 198 764 238 782 q 277 799 327 800 l 327 800 l 327 730 q 284 729 262 710 q 240 690 240 635 l 240 635 l 240 421 q 240 362 213 327 q 185 292 130 281 l 130 281 l 130 275 q 185 264 213 229 q 240 194 240 135 l 240 135 l 240 -80 q 240 -116 250 -136 q 260 -157 280 -165 q 299 -173 327 -174 l 327 -174 z"},"|":{"ha":551,"x_min":239,"x_max":312,"o":"m 312 -244 l 239 -244 l 239 800 l 312 800 l 312 -244 z"},"}":{"ha":366,"x_min":40,"x_max":336,"o":"m 40 730 l 40 800 q 91 799 130 782 q 169 764 191 728 q 213 691 213 631 l 213 631 l 213 420 q 213 362 244 338 q 275 314 336 314 l 336 314 l 336 242 q 275 242 244 218 q 213 194 213 137 l 213 137 l 213 -76 q 213 -134 191 -171 q 168 -209 129 -226 q 89 -243 40 -244 l 40 -244 l 40 -174 q 83 -172 105 -152 q 127 -133 127 -79 l 127 -79 l 127 135 q 127 194 155 229 q 183 264 237 275 l 237 275 l 237 281 q 183 292 155 327 q 127 362 127 421 l 127 421 l 127 635 q 127 672 118 692 q 108 712 89 721 q 69 730 40 730 l 40 730 z"},"~":{"ha":520,"x_min":42,"x_max":477,"o":"m 246 319 l 246 319 q 215 334 194 341 q 172 347 151 347 l 151 347 q 123 347 95 330 q 67 313 42 287 l 42 287 l 42 365 q 65 391 93 404 q 121 417 154 417 l 154 417 q 183 417 209 411 q 235 404 271 387 l 271 387 q 306 372 327 366 q 348 359 373 359 l 373 359 q 400 359 427 376 q 454 392 477 418 l 477 418 l 477 339 q 455 315 428 302 q 400 288 366 288 l 366 288 q 337 288 311 295 q 285 302 246 319 z"}," ":{"ha":277,"x_min":0,"x_max":0,"o":""},"­":{"ha":317,"x_min":39,"x_max":278,"o":"m 278 230 l 39 230 l 39 308 l 278 308 l 278 230 z"},"–":{"ha":500,"x_min":39,"x_max":461,"o":"m 461 230 l 39 230 l 39 307 l 461 307 l 461 230 z"},"—":{"ha":1000,"x_min":39,"x_max":961,"o":"m 961 230 l 39 230 l 39 307 l 961 307 l 961 230 z"},"‘":{"ha":227,"x_min":37,"x_max":184,"o":"m 137 555 l 43 555 l 37 566 q 46 604 59 644 q 72 684 88 724 q 104 764 120 800 l 120 800 l 184 800 q 174 760 165 717 q 155 673 148 632 q 141 590 137 555 l 137 555 z"},"’":{"ha":227,"x_min":37,"x_max":184,"o":"m 84 800 l 178 800 l 184 789 q 175 752 162 712 q 149 671 134 632 q 119 592 103 555 l 103 555 l 37 555 q 45 584 52 616 q 59 648 65 681 q 71 713 76 744 q 81 774 84 800 l 84 800 z"},"“":{"ha":407,"x_min":37,"x_max":364,"o":"m 317 555 l 223 555 l 217 566 q 227 604 240 644 q 253 684 269 724 q 284 764 300 800 l 300 800 l 364 800 q 355 759 346 716 q 336 673 329 632 q 322 591 317 555 l 317 555 z m 137 555 l 43 555 l 37 566 q 47 604 60 644 q 73 684 89 724 q 104 764 120 800 l 120 800 l 184 800 q 175 760 166 717 q 156 673 149 632 q 142 590 137 555 l 137 555 z"},"”":{"ha":407,"x_min":37,"x_max":364,"o":"m 265 800 l 358 800 l 364 789 q 355 752 342 712 q 329 671 314 632 q 299 592 283 555 l 283 555 l 217 555 q 228 595 237 638 q 245 681 253 723 q 260 765 265 800 l 265 800 z m 84 800 l 178 800 l 184 789 q 175 752 162 712 q 149 671 134 632 q 119 592 103 555 l 103 555 l 37 555 q 45 584 52 616 q 59 648 65 681 q 71 713 76 744 q 81 774 84 800 l 84 800 z"},"…":{"ha":768,"x_min":72,"x_max":696,"o":"m 131 -12 l 131 -12 q 105 -12 89 4 q 72 20 72 55 l 72 55 q 72 90 89 106 q 105 121 131 121 l 131 121 q 157 121 174 106 q 190 91 190 55 l 190 55 q 190 20 173 4 q 156 -12 131 -12 z m 384 -12 l 384 -12 q 358 -12 342 4 q 325 20 325 55 l 325 55 q 325 90 342 106 q 358 121 384 121 l 384 121 q 409 121 426 106 q 443 91 443 55 l 443 55 q 443 20 426 4 q 409 -12 384 -12 z m 637 -12 l 637 -12 q 611 -12 595 4 q 578 20 578 55 l 578 55 q 578 90 595 106 q 611 121 637 121 l 637 121 q 662 121 679 106 q 696 91 696 55 l 696 55 q 696 20 679 4 q 662 -12 637 -12 z"},"×":{"ha":520,"x_min":53,"x_max":467,"o":"m 259 401 l 418 560 l 467 511 l 309 352 l 465 195 l 417 146 l 259 304 l 103 146 l 53 195 l 211 352 l 53 510 l 102 560 l 259 401 z"},"÷":{"ha":520,"x_min":43,"x_max":476,"o":"m 476 318 l 43 318 l 43 388 l 476 388 l 476 318 z m 260 118 l 260 118 q 234 118 220 134 q 206 149 206 179 l 206 179 q 206 209 220 225 q 233 240 260 240 l 260 240 q 286 240 300 225 q 313 209 313 179 l 313 179 q 313 149 299 134 q 284 118 260 118 z m 260 465 l 260 465 q 235 465 221 481 q 206 496 206 526 l 206 526 q 206 556 220 572 q 233 587 260 587 l 260 587 q 286 587 300 572 q 313 556 313 526 l 313 526 q 313 496 299 481 q 284 465 260 465 z"},"−":{"ha":520,"x_min":43,"x_max":476,"o":"m 476 318 l 43 318 l 43 388 l 476 388 l 476 318 z"},"₹":{"ha":520,"x_min":66,"x_max":464,"o":"m 357 0 l 253 0 l 66 280 l 76 351 l 103 351 q 152 351 177 361 q 201 371 215 391 l 215 391 q 228 409 234 435 q 240 461 240 498 l 240 498 q 240 547 232 574 q 224 601 207 619 l 207 619 q 193 635 173 642 q 152 648 114 648 l 114 648 l 66 648 l 66 714 l 464 714 l 464 648 l 273 648 q 298 627 313 592 q 327 556 327 498 l 327 498 q 327 435 308 390 q 288 345 249 319 q 210 292 151 282 l 151 282 l 155 292 l 357 0 z m 464 472 l 66 472 l 66 538 l 464 538 l 464 472 z"},"꠰":{"ha":230,"x_min":73,"x_max":157,"o":"m 73 0 l 73 554 l 157 554 l 157 0 l 73 0 z"},"꠱":{"ha":416,"x_min":73,"x_max":343,"o":"m 73 0 l 73 554 l 157 554 l 157 0 l 73 0 z m 260 0 l 260 554 l 343 554 l 343 0 l 260 0 z"},"꠲":{"ha":603,"x_min":73,"x_max":529,"o":"m 73 0 l 73 554 l 157 554 l 157 0 l 73 0 z m 260 0 l 260 554 l 343 554 l 343 0 l 260 0 z m 446 0 l 446 554 l 529 554 l 529 0 l 446 0 z"},"॑":{"ha":0,"x_min":-313,"x_max":-243,"o":"m -313 653 l -313 864 l -243 864 l -243 653 l -313 653 z"},"॒":{"ha":0,"x_min":-486,"x_max":-71,"o":"m -71 -112 l -71 -181 l -486 -181 l -486 -112 l -71 -112 z"},"।":{"ha":325,"x_min":161,"x_max":244,"o":"m 244 -49 l 161 -49 l 161 603 l 244 603 l 244 -49 z"},"॥":{"ha":534,"x_min":161,"x_max":453,"o":"m 453 -49 l 370 -49 l 370 603 l 453 603 l 453 -49 z m 244 -49 l 161 -49 l 161 603 l 244 603 l 244 -49 z"},"᳚":{"ha":0,"x_min":-376,"x_max":-181,"o":"m -376 653 l -376 864 l -309 864 l -309 653 l -376 653 z m -248 653 l -248 864 l -181 864 l -181 653 l -248 653 z"},"̇":{"ha":0,"x_min":-329,"x_max":-228,"o":"m -329 701 l -329 701 q -329 730 -314 744 q -300 757 -278 757 l -278 757 q -257 757 -242 744 q -228 730 -228 701 l -228 701 q -228 673 -242 659 q -257 645 -278 645 l -278 645 q -300 645 -314 659 q -329 673 -329 701 z"},"̣":{"ha":0,"x_min":-329,"x_max":-228,"o":"m -329 -136 l -329 -136 q -329 -107 -314 -93 q -300 -79 -278 -79 l -278 -79 q -257 -79 -242 -93 q -228 -107 -228 -136 l -228 -136 q -228 -164 -242 -177 q -257 -191 -278 -191 l -278 -191 q -300 -191 -314 -177 q -329 -164 -329 -136 z"},"‐":{"ha":317,"x_min":39,"x_max":278,"o":"m 278 230 l 39 230 l 39 308 l 278 308 l 278 230 z"},"​":{"ha":0,"x_min":0,"x_max":0,"o":""},"‌":{"ha":0,"x_min":0,"x_max":0,"o":""},"‍":{"ha":0,"x_min":-161,"x_max":161,"o":"m 29 -244 l -29 -244 l -29 565 l -121 474 l -161 514 l -40 631 l -161 748 l -121 788 l 0 669 l 121 788 l 161 748 l 40 631 l 161 514 l 121 474 l 29 565 l 29 -244 z"},"◌":{"ha":562,"x_min":57,"x_max":504,"o":"m 89 231 l 89 231 q 57 231 57 264 l 57 264 q 57 295 89 295 l 89 295 q 121 295 121 264 l 121 264 q 121 231 89 231 z m 138 95 l 138 95 q 106 95 106 127 l 106 127 q 106 158 138 158 l 138 158 q 169 158 169 127 l 169 127 q 169 95 138 95 z m 281 40 l 281 40 q 249 40 249 72 l 249 72 q 249 104 281 104 l 281 104 q 312 104 312 72 l 312 72 q 312 40 281 40 z m 138 369 l 138 369 q 106 369 106 401 l 106 401 q 106 432 138 432 l 138 432 q 169 432 169 401 l 169 401 q 169 369 138 369 z m 423 95 l 423 95 q 391 95 391 127 l 391 127 q 391 158 423 158 l 423 158 q 455 158 455 127 l 455 127 q 455 95 423 95 z m 281 424 l 281 424 q 249 424 249 456 l 249 456 q 249 487 281 487 l 281 487 q 312 487 312 456 l 312 456 q 312 424 281 424 z m 472 231 l 472 231 q 441 231 441 264 l 441 264 q 441 295 472 295 l 472 295 q 504 295 504 264 l 504 264 q 504 231 472 231 z m 423 369 l 423 369 q 391 369 391 401 l 391 401 q 391 432 423 432 l 423 432 q 455 432 455 401 l 455 401 q 455 369 423 369 z"},"«":{"ha":491,"x_min":38,"x_max":454,"o":"m 38 257 l 38 270 l 197 469 l 258 435 l 131 264 l 258 93 l 197 59 l 38 257 z m 233 257 l 233 270 l 394 469 l 454 435 l 326 264 l 454 93 l 394 59 l 233 257 z"},"»":{"ha":491,"x_min":38,"x_max":453,"o":"m 453 270 l 453 257 l 292 59 l 233 93 l 360 264 l 233 435 l 292 469 l 453 270 z m 258 270 l 258 257 l 97 59 l 38 93 l 165 264 l 38 435 l 97 469 l 258 270 z"},"̈":{"ha":0,"x_min":-135,"x_max":135,"o":"m -134 676 l -134 676 q -134 702 -120 714 q -107 726 -89 726 l -89 726 q -70 726 -57 714 q -44 702 -44 676 l -44 676 q -44 651 -57 639 q -70 626 -89 626 l -89 626 q -107 626 -120 639 q -134 651 -134 676 z m 44 676 l 44 676 q 44 702 58 714 q 71 726 89 726 l 89 726 q 108 726 122 714 q 135 702 135 676 l 135 676 q 135 651 122 639 q 108 626 89 626 l 89 626 q 70 626 57 639 q 44 651 44 676 z"},"̀":{"ha":0,"x_min":-456,"x_max":-260,"o":"m -456 766 l -354 766 q -343 744 -327 717 q -311 689 -293 663 q -275 637 -260 618 l -260 618 l -260 606 l -317 606 q -333 620 -353 639 q -374 658 -394 680 q -414 701 -430 722 q -447 742 -456 756 l -456 756 l -456 766 z"},"́":{"ha":0,"x_min":-313,"x_max":-117,"o":"m -117 766 l -117 756 q -126 742 -143 722 q -160 702 -180 681 q -200 659 -220 640 q -240 620 -257 606 l -257 606 l -313 606 l -313 618 q -297 640 -279 666 q -262 691 -246 718 q -231 744 -220 766 l -220 766 l -117 766 z"},"̋":{"ha":0,"x_min":-115,"x_max":225,"o":"m 225 766 l 225 756 q 217 742 202 722 q 187 702 168 680 q 149 658 131 639 q 112 620 96 606 l 96 606 l 49 606 l 49 618 q 64 638 80 665 q 96 692 111 720 q 125 747 133 766 l 133 766 l 225 766 z m 61 766 l 61 756 q 52 742 38 722 q 23 702 5 681 q -13 659 -32 640 q -52 620 -69 606 l -69 606 l -115 606 l -115 618 q -101 638 -85 665 q -69 692 -54 719 q -40 746 -31 766 l -31 766 l 61 766 z"},"̄":{"ha":0,"x_min":-138,"x_max":139,"o":"m -138 677 l 139 677 l 139 609 l -138 609 l -138 677 z"},"˙":{"ha":180,"x_min":40,"x_max":140,"o":"m 91 738 l 91 738 q 112 738 126 724 q 140 710 140 681 l 140 681 q 140 653 126 639 q 112 625 91 625 l 91 625 q 69 625 55 639 q 40 653 40 681 l 40 681 q 40 710 54 724 q 68 738 91 738 z"},"°":{"ha":405,"x_min":51,"x_max":354,"o":"m 202 431 l 202 431 q 157 431 124 450 q 90 468 71 501 q 51 533 51 577 l 51 577 q 51 621 70 654 q 89 687 123 706 q 157 724 202 724 l 202 724 q 247 724 281 706 q 315 687 335 654 q 354 621 354 577 l 354 577 q 354 533 335 500 q 315 467 281 449 q 246 431 202 431 z m 203 487 l 203 487 q 247 487 269 512 q 291 537 291 577 l 291 577 q 291 618 269 643 q 246 668 203 668 l 203 668 q 158 668 136 643 q 114 618 114 577 l 114 577 q 114 536 137 512 q 159 487 203 487 z"},"A":{"ha":570,"x_min":0,"x_max":569,"o":"m 569 0 l 478 0 l 404 222 l 164 222 l 91 0 l 0 0 l 240 716 l 328 716 l 569 0 z m 381 301 l 311 524 q 308 536 303 556 q 297 575 292 596 q 286 616 283 629 l 283 629 q 280 611 276 592 q 271 573 266 556 q 261 538 257 524 l 257 524 l 187 301 l 381 301 z"},"Á":{"ha":570,"x_min":0,"x_max":569,"o":"m 569 0 l 478 0 l 404 222 l 164 222 l 91 0 l 0 0 l 240 716 l 328 716 l 569 0 z m 381 301 l 311 524 q 308 536 303 556 q 297 575 292 596 q 286 616 283 629 l 283 629 q 280 611 276 592 q 271 573 266 556 q 261 538 257 524 l 257 524 l 187 301 l 381 301 z m 425 944 l 425 934 q 416 920 399 900 q 382 880 362 859 q 342 837 322 818 q 302 798 285 784 l 285 784 l 229 784 l 229 796 q 245 818 263 844 q 280 869 296 896 q 311 922 322 944 l 322 944 l 425 944 z"},"Ă":{"ha":570,"x_min":0,"x_max":569,"o":"m 569 0 l 478 0 l 404 222 l 164 222 l 91 0 l 0 0 l 240 716 l 328 716 l 569 0 z m 381 301 l 311 524 q 308 536 303 556 q 297 575 292 596 q 286 616 283 629 l 283 629 q 280 611 276 592 q 271 573 266 556 q 261 538 257 524 l 257 524 l 187 301 l 381 301 z m 373 918 l 426 918 q 425 878 407 848 q 388 818 357 801 q 325 784 281 784 l 281 784 q 214 784 179 820 q 143 855 140 918 l 140 918 l 194 918 q 196 892 207 878 q 218 864 238 858 q 257 852 283 852 l 283 852 q 307 852 326 858 q 345 864 358 879 q 370 893 373 918 l 373 918 z"},"Â":{"ha":570,"x_min":0,"x_max":569,"o":"m 569 0 l 478 0 l 404 222 l 164 222 l 91 0 l 0 0 l 240 716 l 328 716 l 569 0 z m 381 301 l 311 524 q 308 536 303 556 q 297 575 292 596 q 286 616 283 629 l 283 629 q 280 611 276 592 q 271 573 266 556 q 261 538 257 524 l 257 524 l 187 301 l 381 301 z m 240 944 l 325 944 q 337 922 357 895 q 376 868 398 842 q 420 815 438 795 l 438 795 l 438 784 l 382 784 q 358 801 333 825 q 307 849 282 875 l 282 875 q 256 849 231 825 q 206 801 183 784 l 183 784 l 128 784 l 128 795 q 147 816 168 843 q 189 869 209 896 q 228 922 240 944 l 240 944 z"},"Ä":{"ha":570,"x_min":0,"x_max":569,"o":"m 569 0 l 478 0 l 404 222 l 164 222 l 91 0 l 0 0 l 240 716 l 328 716 l 569 0 z m 381 301 l 311 524 q 308 536 303 556 q 297 575 292 596 q 286 616 283 629 l 283 629 q 280 611 276 592 q 271 573 266 556 q 261 538 257 524 l 257 524 l 187 301 l 381 301 z m 149 854 l 149 854 q 149 880 163 892 q 176 904 194 904 l 194 904 q 213 904 226 892 q 239 880 239 854 l 239 854 q 239 829 226 817 q 213 804 194 804 l 194 804 q 176 804 163 817 q 149 829 149 854 z m 327 854 l 327 854 q 327 880 341 892 q 354 904 372 904 l 372 904 q 391 904 405 892 q 418 880 418 854 l 418 854 q 418 829 405 817 q 391 804 372 804 l 372 804 q 353 804 340 817 q 327 829 327 854 z"},"À":{"ha":570,"x_min":0,"x_max":569,"o":"m 569 0 l 478 0 l 404 222 l 164 222 l 91 0 l 0 0 l 240 716 l 328 716 l 569 0 z m 381 301 l 311 524 q 308 536 303 556 q 297 575 292 596 q 286 616 283 629 l 283 629 q 280 611 276 592 q 271 573 266 556 q 261 538 257 524 l 257 524 l 187 301 l 381 301 z m 160 944 l 262 944 q 273 922 289 895 q 305 867 323 841 q 341 815 356 796 l 356 796 l 356 784 l 299 784 q 283 798 263 817 q 242 836 222 858 q 202 879 186 900 q 169 920 160 934 l 160 934 l 160 944 z"},"Ā":{"ha":570,"x_min":0,"x_max":569,"o":"m 569 0 l 478 0 l 404 222 l 164 222 l 91 0 l 0 0 l 240 716 l 328 716 l 569 0 z m 381 301 l 311 524 q 308 536 303 556 q 297 575 292 596 q 286 616 283 629 l 283 629 q 280 611 276 592 q 271 573 266 556 q 261 538 257 524 l 257 524 l 187 301 l 381 301 z m 144 855 l 421 855 l 421 787 l 144 787 l 144 855 z"},"Ą":{"ha":570,"x_min":0,"x_max":569,"o":"m 569 0 l 478 0 l 404 222 l 164 222 l 91 0 l 0 0 l 240 716 l 328 716 l 569 0 z m 381 301 l 311 524 q 308 536 303 556 q 297 575 292 596 q 286 616 283 629 l 283 629 q 280 611 276 592 q 271 573 266 556 q 261 538 257 524 l 257 524 l 187 301 l 381 301 z m 477 -116 l 477 -116 q 477 -139 489 -151 q 501 -163 522 -163 l 522 -163 q 537 -163 547 -160 q 557 -158 564 -157 l 564 -157 l 564 -213 q 552 -217 539 -219 q 526 -221 507 -221 l 507 -221 q 456 -221 432 -197 q 407 -173 407 -128 l 407 -128 q 407 -100 420 -74 q 432 -48 453 -25 q 473 -2 495 14 l 495 14 l 542 0 q 508 -33 493 -59 q 477 -86 477 -116 z"},"Å":{"ha":570,"x_min":0,"x_max":569,"o":"m 569 0 l 478 0 l 404 222 l 164 222 l 91 0 l 0 0 l 240 716 l 328 716 l 569 0 z m 381 301 l 311 524 q 308 536 303 556 q 297 575 292 596 q 286 616 283 629 l 283 629 q 280 611 276 592 q 271 573 266 556 q 261 538 257 524 l 257 524 l 187 301 l 381 301 z m 284 668 l 284 668 q 235 668 206 696 q 176 724 176 772 l 176 772 q 176 820 206 848 q 235 875 284 875 l 284 875 q 330 875 361 848 q 392 821 392 773 l 392 773 q 392 724 362 696 q 332 668 284 668 z m 284 718 l 284 718 q 308 718 324 733 q 339 747 339 772 l 339 772 q 339 797 324 812 q 309 827 284 827 l 284 827 q 260 827 245 812 q 229 797 229 772 l 229 772 q 229 747 243 733 q 257 718 284 718 z"},"Ã":{"ha":570,"x_min":0,"x_max":569,"o":"m 569 0 l 478 0 l 404 222 l 164 222 l 91 0 l 0 0 l 240 716 l 328 716 l 569 0 z m 381 301 l 311 524 q 308 536 303 556 q 297 575 292 596 q 286 616 283 629 l 283 629 q 280 611 276 592 q 271 573 266 556 q 261 538 257 524 l 257 524 l 187 301 l 381 301 z m 165 784 l 114 784 q 117 811 124 834 q 131 857 144 874 q 156 891 174 900 q 191 909 214 909 l 214 909 q 235 909 254 901 q 273 892 291 881 q 309 869 326 861 q 342 852 357 852 l 357 852 q 377 852 388 868 q 399 883 405 910 l 405 910 l 455 910 q 450 852 424 819 q 398 785 356 785 l 356 785 q 336 785 317 794 q 298 802 280 814 q 261 825 245 834 q 229 842 213 842 l 213 842 q 193 842 182 827 q 171 812 165 784 l 165 784 z"},"Æ":{"ha":784,"x_min":-1,"x_max":729,"o":"m 729 78 l 729 0 l 389 0 l 389 222 l 182 222 l 91 0 l -1 0 l 292 714 l 729 714 l 729 636 l 477 636 l 477 411 l 712 411 l 712 334 l 477 334 l 477 78 l 729 78 z m 347 635 l 212 301 l 390 301 l 390 635 l 347 635 z"},"B":{"ha":587,"x_min":88,"x_max":538,"o":"m 88 714 l 275 714 q 395 714 457 673 q 518 632 518 539 l 518 539 q 518 495 504 462 q 489 429 462 408 q 434 387 394 379 l 394 379 l 394 374 q 437 366 470 346 q 502 326 520 292 q 538 257 538 204 l 538 204 q 538 140 512 94 q 485 48 435 24 q 385 0 314 0 l 314 0 l 88 0 l 88 714 z m 176 409 l 287 409 q 366 409 397 440 q 427 470 427 530 l 427 530 q 427 586 391 613 q 355 639 278 639 l 278 639 l 176 639 l 176 409 z m 292 336 l 176 336 l 176 75 l 300 75 q 379 75 412 111 q 445 147 445 210 l 445 210 q 445 249 430 277 q 415 305 381 321 q 347 336 292 336 l 292 336 z"},"C":{"ha":564,"x_min":57,"x_max":535,"o":"m 362 646 l 362 646 q 311 646 271 626 q 231 605 204 566 q 177 527 163 474 q 149 421 149 357 l 149 357 q 149 268 174 203 q 198 138 246 103 q 294 68 364 68 l 364 68 q 404 68 441 76 q 477 84 511 96 l 511 96 l 511 18 q 477 4 440 -3 q 402 -10 352 -10 l 352 -10 q 256 -10 190 35 q 124 79 91 162 q 57 245 57 358 l 57 358 q 57 437 77 504 q 96 571 135 621 q 173 670 230 697 q 287 724 362 724 l 362 724 q 410 724 455 714 q 499 704 535 685 l 535 685 l 502 610 q 473 625 438 636 q 403 646 362 646 z"},"Ć":{"ha":564,"x_min":57,"x_max":535,"o":"m 362 646 l 362 646 q 311 646 271 626 q 231 605 204 566 q 177 527 163 474 q 149 421 149 357 l 149 357 q 149 268 174 203 q 198 138 246 103 q 294 68 364 68 l 364 68 q 404 68 441 76 q 477 84 511 96 l 511 96 l 511 18 q 477 4 440 -3 q 402 -10 352 -10 l 352 -10 q 256 -10 190 35 q 124 79 91 162 q 57 245 57 358 l 57 358 q 57 437 77 504 q 96 571 135 621 q 173 670 230 697 q 287 724 362 724 l 362 724 q 410 724 455 714 q 499 704 535 685 l 535 685 l 502 610 q 473 625 438 636 q 403 646 362 646 z m 484 944 l 484 934 q 475 920 458 900 q 441 880 421 859 q 401 837 381 818 q 361 798 344 784 l 344 784 l 288 784 l 288 796 q 304 818 322 844 q 339 869 355 896 q 370 922 381 944 l 381 944 l 484 944 z"},"Č":{"ha":564,"x_min":57,"x_max":535,"o":"m 362 646 l 362 646 q 311 646 271 626 q 231 605 204 566 q 177 527 163 474 q 149 421 149 357 l 149 357 q 149 268 174 203 q 198 138 246 103 q 294 68 364 68 l 364 68 q 404 68 441 76 q 477 84 511 96 l 511 96 l 511 18 q 477 4 440 -3 q 402 -10 352 -10 l 352 -10 q 256 -10 190 35 q 124 79 91 162 q 57 245 57 358 l 57 358 q 57 437 77 504 q 96 571 135 621 q 173 670 230 697 q 287 724 362 724 l 362 724 q 410 724 455 714 q 499 704 535 685 l 535 685 l 502 610 q 473 625 438 636 q 403 646 362 646 z m 384 784 l 299 784 q 287 807 268 833 q 248 859 227 886 q 205 912 187 932 l 187 932 l 187 944 l 242 944 q 265 927 291 903 q 317 878 341 851 l 341 851 q 367 879 392 902 q 416 924 441 944 l 441 944 l 497 944 l 497 932 q 480 913 458 887 q 436 860 416 834 q 396 807 384 784 l 384 784 z"},"Ç":{"ha":564,"x_min":57,"x_max":535,"o":"m 362 646 l 362 646 q 311 646 271 626 q 231 605 204 566 q 177 527 163 474 q 149 421 149 357 l 149 357 q 149 268 174 203 q 198 138 246 103 q 294 68 364 68 l 364 68 q 404 68 441 76 q 477 84 511 96 l 511 96 l 511 18 q 477 4 440 -3 q 402 -10 352 -10 l 352 -10 q 256 -10 190 35 q 124 79 91 162 q 57 245 57 358 l 57 358 q 57 437 77 504 q 96 571 135 621 q 173 670 230 697 q 287 724 362 724 l 362 724 q 410 724 455 714 q 499 704 535 685 l 535 685 l 502 610 q 473 625 438 636 q 403 646 362 646 z m 430 -138 l 430 -138 q 430 -187 395 -213 q 360 -240 293 -240 l 293 -240 q 277 -240 263 -238 q 249 -237 241 -235 l 241 -235 l 241 -180 q 250 -182 264 -183 q 277 -185 290 -185 l 290 -185 q 324 -185 342 -174 q 360 -163 360 -140 l 360 -140 q 360 -114 336 -101 q 312 -88 274 -83 l 274 -83 l 314 0 l 369 0 l 344 -52 q 369 -57 389 -68 q 408 -79 419 -96 q 430 -113 430 -138 z"},"Ċ":{"ha":564,"x_min":57,"x_max":535,"o":"m 362 646 l 362 646 q 311 646 271 626 q 231 605 204 566 q 177 527 163 474 q 149 421 149 357 l 149 357 q 149 268 174 203 q 198 138 246 103 q 294 68 364 68 l 364 68 q 404 68 441 76 q 477 84 511 96 l 511 96 l 511 18 q 477 4 440 -3 q 402 -10 352 -10 l 352 -10 q 256 -10 190 35 q 124 79 91 162 q 57 245 57 358 l 57 358 q 57 437 77 504 q 96 571 135 621 q 173 670 230 697 q 287 724 362 724 l 362 724 q 410 724 455 714 q 499 704 535 685 l 535 685 l 502 610 q 473 625 438 636 q 403 646 362 646 z m 344 916 l 344 916 q 365 916 379 902 q 393 888 393 859 l 393 859 q 393 831 379 817 q 365 803 344 803 l 344 803 q 322 803 308 817 q 293 831 293 859 l 293 859 q 293 888 307 902 q 321 916 344 916 z"},"D":{"ha":652,"x_min":88,"x_max":595,"o":"m 595 365 l 595 365 q 595 245 557 164 q 518 82 445 41 q 372 0 267 0 l 267 0 l 88 0 l 88 714 l 283 714 q 380 714 450 674 q 520 634 558 557 q 595 479 595 365 z m 503 361 l 503 361 q 503 455 476 517 q 449 578 398 608 q 347 638 273 638 l 273 638 l 176 638 l 176 76 l 258 76 q 382 76 443 148 q 503 220 503 361 z"},"Ð":{"ha":652,"x_min":27,"x_max":595,"o":"m 92 714 l 282 714 q 379 714 449 674 q 519 634 557 557 q 595 480 595 365 l 595 365 q 595 245 556 164 q 517 82 444 41 q 371 0 266 0 l 266 0 l 92 0 l 92 321 l 27 321 l 27 395 l 92 395 l 92 714 z m 273 638 l 273 638 l 180 638 l 180 395 l 329 395 l 329 321 l 180 321 l 180 76 l 258 76 q 382 76 443 148 q 503 220 503 361 l 503 361 q 503 455 476 517 q 449 578 398 608 q 347 638 273 638 z"},"Ď":{"ha":652,"x_min":88,"x_max":595,"o":"m 595 365 l 595 365 q 595 245 557 164 q 518 82 445 41 q 372 0 267 0 l 267 0 l 88 0 l 88 714 l 283 714 q 380 714 450 674 q 520 634 558 557 q 595 479 595 365 z m 503 361 l 503 361 q 503 455 476 517 q 449 578 398 608 q 347 638 273 638 l 273 638 l 176 638 l 176 76 l 258 76 q 382 76 443 148 q 503 220 503 361 z m 363 784 l 278 784 q 266 807 247 833 q 227 859 206 886 q 184 912 166 932 l 166 932 l 166 944 l 221 944 q 244 927 270 903 q 296 878 320 851 l 320 851 q 346 879 371 902 q 395 924 420 944 l 420 944 l 476 944 l 476 932 q 459 913 437 887 q 415 860 395 834 q 375 807 363 784 l 363 784 z"},"Đ":{"ha":652,"x_min":27,"x_max":595,"o":"m 92 714 l 282 714 q 379 714 449 674 q 519 634 557 557 q 595 480 595 365 l 595 365 q 595 245 556 164 q 517 82 444 41 q 371 0 266 0 l 266 0 l 92 0 l 92 321 l 27 321 l 27 395 l 92 395 l 92 714 z m 273 638 l 273 638 l 180 638 l 180 395 l 329 395 l 329 321 l 180 321 l 180 76 l 258 76 q 382 76 443 148 q 503 220 503 361 l 503 361 q 503 455 476 517 q 449 578 398 608 q 347 638 273 638 z"},"E":{"ha":500,"x_min":88,"x_max":445,"o":"m 445 78 l 445 0 l 88 0 l 88 714 l 445 714 l 445 636 l 176 636 l 176 411 l 429 411 l 429 334 l 176 334 l 176 78 l 445 78 z"},"É":{"ha":500,"x_min":88,"x_max":445,"o":"m 445 78 l 445 0 l 88 0 l 88 714 l 445 714 l 445 636 l 176 636 l 176 411 l 429 411 l 429 334 l 176 334 l 176 78 l 445 78 z m 414 944 l 414 934 q 405 920 388 900 q 371 880 351 859 q 331 837 311 818 q 291 798 274 784 l 274 784 l 218 784 l 218 796 q 234 818 252 844 q 269 869 285 896 q 300 922 311 944 l 311 944 l 414 944 z"},"Ě":{"ha":500,"x_min":88,"x_max":445,"o":"m 445 78 l 445 0 l 88 0 l 88 714 l 445 714 l 445 636 l 176 636 l 176 411 l 429 411 l 429 334 l 176 334 l 176 78 l 445 78 z m 314 784 l 229 784 q 217 807 198 833 q 178 859 157 886 q 135 912 117 932 l 117 932 l 117 944 l 172 944 q 195 927 221 903 q 247 878 271 851 l 271 851 q 297 879 322 902 q 346 924 371 944 l 371 944 l 427 944 l 427 932 q 410 913 388 887 q 366 860 346 834 q 326 807 314 784 l 314 784 z"},"Ê":{"ha":500,"x_min":88,"x_max":445,"o":"m 445 78 l 445 0 l 88 0 l 88 714 l 445 714 l 445 636 l 176 636 l 176 411 l 429 411 l 429 334 l 176 334 l 176 78 l 445 78 z m 229 944 l 314 944 q 326 922 346 895 q 365 868 387 842 q 409 815 427 795 l 427 795 l 427 784 l 371 784 q 347 801 322 825 q 296 849 271 875 l 271 875 q 245 849 220 825 q 195 801 172 784 l 172 784 l 117 784 l 117 795 q 136 816 157 843 q 178 869 198 896 q 217 922 229 944 l 229 944 z"},"Ë":{"ha":500,"x_min":88,"x_max":445,"o":"m 445 78 l 445 0 l 88 0 l 88 714 l 445 714 l 445 636 l 176 636 l 176 411 l 429 411 l 429 334 l 176 334 l 176 78 l 445 78 z m 138 854 l 138 854 q 138 880 152 892 q 165 904 183 904 l 183 904 q 202 904 215 892 q 228 880 228 854 l 228 854 q 228 829 215 817 q 202 804 183 804 l 183 804 q 165 804 152 817 q 138 829 138 854 z m 316 854 l 316 854 q 316 880 330 892 q 343 904 361 904 l 361 904 q 380 904 394 892 q 407 880 407 854 l 407 854 q 407 829 394 817 q 380 804 361 804 l 361 804 q 342 804 329 817 q 316 829 316 854 z"},"Ė":{"ha":500,"x_min":88,"x_max":445,"o":"m 445 78 l 445 0 l 88 0 l 88 714 l 445 714 l 445 636 l 176 636 l 176 411 l 429 411 l 429 334 l 176 334 l 176 78 l 445 78 z m 274 916 l 274 916 q 295 916 309 902 q 323 888 323 859 l 323 859 q 323 831 309 817 q 295 803 274 803 l 274 803 q 252 803 238 817 q 223 831 223 859 l 223 859 q 223 888 237 902 q 251 916 274 916 z"},"È":{"ha":500,"x_min":88,"x_max":445,"o":"m 445 78 l 445 0 l 88 0 l 88 714 l 445 714 l 445 636 l 176 636 l 176 411 l 429 411 l 429 334 l 176 334 l 176 78 l 445 78 z m 149 944 l 251 944 q 262 922 278 895 q 294 867 312 841 q 330 815 345 796 l 345 796 l 345 784 l 288 784 q 272 798 252 817 q 231 836 211 858 q 191 879 175 900 q 158 920 149 934 l 149 934 l 149 944 z"},"Ē":{"ha":500,"x_min":88,"x_max":445,"o":"m 445 78 l 445 0 l 88 0 l 88 714 l 445 714 l 445 636 l 176 636 l 176 411 l 429 411 l 429 334 l 176 334 l 176 78 l 445 78 z m 133 855 l 410 855 l 410 787 l 133 787 l 133 855 z"},"Ę":{"ha":500,"x_min":88,"x_max":445,"o":"m 445 78 l 445 0 l 88 0 l 88 714 l 445 714 l 445 636 l 176 636 l 176 411 l 429 411 l 429 334 l 176 334 l 176 78 l 445 78 z m 352 -116 l 352 -116 q 352 -139 364 -151 q 376 -163 397 -163 l 397 -163 q 412 -163 422 -160 q 432 -158 439 -157 l 439 -157 l 439 -213 q 427 -217 414 -219 q 401 -221 382 -221 l 382 -221 q 331 -221 307 -197 q 282 -173 282 -128 l 282 -128 q 282 -100 295 -74 q 307 -48 328 -25 q 348 -2 370 14 l 370 14 l 417 0 q 383 -33 368 -59 q 352 -86 352 -116 z"},"F":{"ha":468,"x_min":88,"x_max":445,"o":"m 176 304 l 176 0 l 88 0 l 88 714 l 445 714 l 445 636 l 176 636 l 176 382 l 429 382 l 429 304 l 176 304 z"},"G":{"ha":661,"x_min":57,"x_max":594,"o":"m 371 299 l 371 377 l 594 377 l 594 26 q 541 8 487 -1 q 432 -10 367 -10 l 367 -10 q 265 -10 196 36 q 127 82 92 165 q 57 248 57 358 l 57 358 q 57 468 96 550 q 134 632 209 678 q 283 724 390 724 l 390 724 q 445 724 494 713 q 543 702 585 681 l 585 681 l 552 605 q 516 624 474 635 q 432 646 388 646 l 388 646 q 312 646 259 612 q 205 578 177 513 q 149 448 149 357 l 149 357 q 149 273 173 208 q 196 142 248 105 q 299 67 383 67 l 383 67 q 423 67 453 72 q 482 77 507 84 l 507 84 l 507 299 l 371 299 z"},"Ğ":{"ha":661,"x_min":57,"x_max":594,"o":"m 371 299 l 371 377 l 594 377 l 594 26 q 541 8 487 -1 q 432 -10 367 -10 l 367 -10 q 265 -10 196 36 q 127 82 92 165 q 57 248 57 358 l 57 358 q 57 468 96 550 q 134 632 209 678 q 283 724 390 724 l 390 724 q 445 724 494 713 q 543 702 585 681 l 585 681 l 552 605 q 516 624 474 635 q 432 646 388 646 l 388 646 q 312 646 259 612 q 205 578 177 513 q 149 448 149 357 l 149 357 q 149 273 173 208 q 196 142 248 105 q 299 67 383 67 l 383 67 q 423 67 453 72 q 482 77 507 84 l 507 84 l 507 299 l 371 299 z m 459 918 l 512 918 q 511 878 493 848 q 474 818 443 801 q 411 784 367 784 l 367 784 q 300 784 265 820 q 229 855 226 918 l 226 918 l 280 918 q 282 892 293 878 q 304 864 324 858 q 343 852 369 852 l 369 852 q 393 852 412 858 q 431 864 444 879 q 456 893 459 918 l 459 918 z"},"Ģ":{"ha":661,"x_min":57,"x_max":594,"o":"m 371 299 l 371 377 l 594 377 l 594 26 q 541 8 487 -1 q 432 -10 367 -10 l 367 -10 q 265 -10 196 36 q 127 82 92 165 q 57 248 57 358 l 57 358 q 57 468 96 550 q 134 632 209 678 q 283 724 390 724 l 390 724 q 445 724 494 713 q 543 702 585 681 l 585 681 l 552 605 q 516 624 474 635 q 432 646 388 646 l 388 646 q 312 646 259 612 q 205 578 177 513 q 149 448 149 357 l 149 357 q 149 273 173 208 q 196 142 248 105 q 299 67 383 67 l 383 67 q 423 67 453 72 q 482 77 507 84 l 507 84 l 507 299 l 371 299 z m 429 -61 l 429 -70 q 424 -91 412 -118 q 400 -146 385 -173 q 370 -200 353 -221 l 353 -221 l 306 -221 l 306 -209 q 313 -192 321 -165 q 329 -138 336 -110 q 342 -82 344 -61 l 344 -61 l 429 -61 z"}}}
